<?xml version="1.0" encoding="utf-8"?>
<!-- Generator: Adobe Illustrator 27.3.1, SVG Export Plug-In . SVG Version: 6.00 Build 0)  -->
<svg version="1.1" id="Calque_1" xmlns="http://www.w3.org/2000/svg" xmlns:xlink="http://www.w3.org/1999/xlink" x="0px" y="0px"
	 viewBox="0 0 823.4 916.5" style="enable-background:new 0 0 823.4 916.5;" xml:space="preserve">
<style type="text/css">
	.st0{fill:#00468E;}
	.st1{fill:#289B38;}
	.st2{fill:#7CC6C8;}
	.st3{fill:#009FE3;}
	.st4{fill:#F98FC9;}
	.st5{fill:#2C5075;}
	.st6{fill:#FFFFFF;}
</style>
<circle class="st0" cx="415.9" cy="674.3" r="205.8"/>
<circle class="st1" cx="224.2" cy="192" r="44.6"/>
<circle class="st2" cx="299" cy="350.3" r="85.3"/>
<circle class="st3" cx="561" cy="348" r="92.4"/>
<circle class="st2" cx="624.2" cy="182" r="44.6"/>
<circle class="st4" cx="421" cy="179.1" r="61.7"/>
<path class="st5" d="M800.3,50.7H40.9c-6.6,0-12-5.4-12-12v-5c0-6.6,5.4-12,12-12h759.4c6.6,0,12,5.4,12,12v5
	C812.3,45.3,806.9,50.7,800.3,50.7z"/>
<g>
	<path class="st6" d="M198.3,181.4c1.4,0,2.5,0.5,3.3,1.5c0.9,1.2,1.4,3.1,1.4,5.8s-0.5,4.7-1.4,5.9c-0.8,1-1.9,1.5-3.2,1.5
		c-1.4,0-2.5-0.5-3.4-1.6s-1.3-3-1.3-5.7s0.5-4.6,1.4-5.8C195.8,181.9,196.9,181.4,198.3,181.4z M198.3,183.7
		c-0.3,0-0.6,0.1-0.9,0.3c-0.3,0.2-0.5,0.6-0.6,1.1c-0.2,0.7-0.3,1.9-0.3,3.6s0.1,2.8,0.3,3.5c0.2,0.6,0.4,1,0.6,1.3
		c0.3,0.2,0.6,0.3,0.9,0.3c0.3,0,0.6-0.1,0.9-0.3c0.3-0.2,0.5-0.6,0.6-1.1c0.2-0.7,0.3-1.9,0.3-3.6s-0.1-2.8-0.3-3.5
		c-0.2-0.6-0.4-1.1-0.6-1.3S198.6,183.7,198.3,183.7z"/>
	<path class="st6" d="M205.3,193.1h2.7v2c0,0.8-0.1,1.4-0.2,1.9c-0.1,0.5-0.4,0.9-0.8,1.2c-0.4,0.4-0.9,0.7-1.5,0.9L205,198
		c0.6-0.2,0.9-0.4,1.2-0.8c0.2-0.3,0.4-0.8,0.4-1.3h-1.3L205.3,193.1L205.3,193.1z"/>
	<path class="st6" d="M210.3,184.2v-2.6h9.4v2c-0.8,0.8-1.6,1.9-2.4,3.3c-0.8,1.4-1.4,2.9-1.8,4.6c-0.4,1.6-0.6,3-0.6,4.3h-2.7
		c0-2,0.5-4,1.2-6.1c0.8-2.1,1.8-3.9,3.1-5.5H210.3z"/>
	<path class="st6" d="M227.4,195.8v-14.3h4.3l2.6,9.8l2.6-9.8h4.3v14.3h-2.7v-11.3l-2.8,11.3H233l-2.8-11.3v11.3H227.4z"/>
	<path class="st6" d="M253.2,181.8l-0.6,2.7c-0.6-0.6-1.4-0.8-2.4-0.8c-1.1,0-1.9,0.4-2.6,1.1c-0.4,0.4-0.6,1-0.8,1.6h5.4l-0.3,1.5
		h-5.3c0,0.1,0,0.3,0,0.6c0,0.2,0,0.5,0,0.7h5l-0.3,1.5h-4.5c0.2,0.7,0.4,1.2,0.8,1.6c0.7,0.8,1.5,1.2,2.5,1.2c1.3,0,2.3-0.4,3-1.2
		v3c-0.8,0.4-1.8,0.6-3,0.6c-1.9,0-3.5-0.7-4.7-2c-0.8-0.9-1.4-2-1.7-3.3h-1.4l0.3-1.5h1c0-0.2,0-0.3,0-0.5c0-0.3,0-0.6,0-0.8h-1.3
		l0.3-1.5h1.2c0.3-1.3,0.8-2.4,1.6-3.3c1.2-1.3,2.9-2,4.9-2C251.5,181.2,252.4,181.4,253.2,181.8z"/>
</g>
<g>
	<g>
		<path class="st6" d="M387.9,184.6h-3.8v-14.4c-1.4,1.3-3.1,2.3-5,2.9v-3.5c1-0.3,2.1-0.9,3.3-1.9c1.2-0.9,2-2,2.4-3.2h3.1V184.6z"
			/>
		<path class="st6" d="M394.4,180.8h3.8v2.7c0,1.1-0.1,2-0.3,2.6c-0.2,0.6-0.6,1.2-1.1,1.7s-1.2,0.9-2,1.2l-0.8-1.6
			c0.8-0.3,1.3-0.6,1.7-1.1c0.3-0.4,0.5-1.1,0.5-1.8h-1.9L394.4,180.8L394.4,180.8z"/>
		<path class="st6" d="M414.5,181v3.6h-13.4c0.1-1.3,0.6-2.6,1.3-3.8c0.7-1.2,2.2-2.8,4.3-4.8c1.7-1.6,2.8-2.7,3.2-3.3
			c0.5-0.8,0.8-1.6,0.8-2.3c0-0.9-0.2-1.5-0.7-2s-1.1-0.7-1.9-0.7s-1.4,0.2-1.9,0.7s-0.7,1.3-0.8,2.4l-3.8-0.4
			c0.2-2.1,0.9-3.6,2.1-4.5s2.7-1.4,4.5-1.4c2,0,3.5,0.5,4.7,1.6c1.1,1.1,1.7,2.4,1.7,4c0,0.9-0.2,1.8-0.5,2.6s-0.8,1.7-1.5,2.6
			c-0.5,0.6-1.3,1.4-2.5,2.6s-2,1.8-2.3,2.2s-0.6,0.7-0.8,1.1h7.5L414.5,181L414.5,181z"/>
	</g>
</g>
<g>
	<g>
		<path class="st6" d="M425.7,184.6v-20h6l3.6,13.7l3.6-13.7h6.1v20h-3.8v-15.8l-4,15.8h-3.9l-4-15.8v15.8H425.7z"/>
		<path class="st6" d="M461.7,165.1l-0.8,3.8c-0.8-0.8-1.9-1.2-3.4-1.2s-2.7,0.5-3.6,1.6c-0.5,0.6-0.9,1.4-1.1,2.3h7.5l-0.4,2.1
			h-7.4c0,0.2,0,0.5,0,0.8s0,0.7,0,1h6.9l-0.4,2.1h-6.2c0.2,1,0.6,1.7,1.1,2.3c0.9,1.1,2.1,1.6,3.5,1.6c1.7,0,3.1-0.5,4.2-1.6v4.2
			c-1.2,0.6-2.6,0.9-4.1,0.9c-2.7,0-4.8-0.9-6.6-2.7c-1.2-1.2-1.9-2.8-2.3-4.6h-2l0.4-2.1h1.3c0-0.2,0-0.5,0-0.7c0-0.4,0-0.8,0-1.1
			h-1.8l0.4-2.1h1.6c0.4-1.8,1.1-3.3,2.3-4.5c1.7-1.8,4-2.8,6.8-2.8C459.3,164.3,460.6,164.5,461.7,165.1z"/>
	</g>
</g>
<g>
	<g>
		<path class="st6" d="M255.1,355.4v4.6h-17.3c0.2-1.7,0.8-3.4,1.7-4.9s2.8-3.6,5.6-6.2c2.2-2.1,3.6-3.5,4.1-4.2c0.7-1,1-2,1-3
			c0-1.1-0.3-1.9-0.9-2.5s-1.4-0.9-2.5-0.9c-1,0-1.9,0.3-2.5,0.9s-1,1.7-1.1,3.1l-4.9-0.5c0.3-2.7,1.2-4.7,2.8-5.9s3.5-1.8,5.8-1.8
			c2.5,0,4.5,0.7,6,2.1s2.2,3.1,2.2,5.1c0,1.2-0.2,2.3-0.6,3.3s-1.1,2.1-2,3.3c-0.6,0.8-1.7,1.9-3.2,3.3s-2.5,2.4-3,2.8
			s-0.8,0.9-1,1.4L255.1,355.4L255.1,355.4z"/>
		<path class="st6" d="M259.3,355h4.9v3.5c0,1.4-0.1,2.6-0.4,3.4s-0.7,1.6-1.4,2.2c-0.7,0.6-1.6,1.2-2.6,1.5l-1-2
			c1-0.3,1.7-0.8,2.1-1.4c0.4-0.6,0.6-1.4,0.7-2.4h-2.4L259.3,355L259.3,355z"/>
		<path class="st6" d="M285.1,355.4v4.6h-17.3c0.2-1.7,0.8-3.4,1.7-4.9s2.8-3.6,5.6-6.2c2.2-2.1,3.6-3.5,4.1-4.2c0.7-1,1-2,1-3
			c0-1.1-0.3-1.9-0.9-2.5s-1.4-0.9-2.5-0.9c-1,0-1.9,0.3-2.5,0.9s-1,1.7-1.1,3.1l-4.9-0.5c0.3-2.7,1.2-4.7,2.8-5.9
			c1.6-1.2,3.5-1.8,5.8-1.8c2.5,0,4.5,0.7,6,2.1s2.2,3.1,2.2,5.1c0,1.2-0.2,2.3-0.6,3.3c-0.4,1-1.1,2.1-2,3.3
			c-0.6,0.8-1.7,1.9-3.2,3.3s-2.5,2.4-3,2.8s-0.8,0.9-1,1.4L285.1,355.4L285.1,355.4z"/>
		<path class="st6" d="M299.4,360v-25.8h7.8l4.7,17.6l4.6-17.6h7.8V360h-4.8v-20.3l-5.1,20.3h-5l-5.1-20.3V360H299.4z"/>
		<path class="st6" d="M345.7,334.8l-1,4.9c-1-1-2.4-1.5-4.4-1.5s-3.5,0.7-4.6,2.1c-0.7,0.8-1.1,1.7-1.4,2.9h9.7l-0.6,2.7h-9.5
			c0,0.3,0,0.6,0,1s0,0.8,0,1.3h8.9l-0.6,2.7h-8c0.3,1.3,0.7,2.2,1.4,3c1.2,1.4,2.7,2.1,4.6,2.1c2.2,0,4-0.7,5.4-2.1v5.4
			c-1.5,0.8-3.3,1.1-5.3,1.1c-3.4,0-6.2-1.2-8.4-3.5c-1.5-1.6-2.5-3.6-3-6h-2.6l0.6-2.7h1.7c0-0.3,0-0.6,0-0.9c0-0.5,0-1,0-1.4h-2.3
			l0.6-2.7h2.1c0.5-2.3,1.5-4.3,2.9-5.9c2.2-2.4,5.1-3.6,8.7-3.6C342.6,333.8,344.3,334.1,345.7,334.8z"/>
	</g>
</g>
<g>
	<g>
		<path class="st6" d="M518.8,354.5v4.6h-17.3c0.2-1.7,0.8-3.4,1.7-4.9s2.8-3.6,5.6-6.2c2.2-2.1,3.6-3.5,4.1-4.2c0.7-1,1-2,1-3
			c0-1.1-0.3-1.9-0.9-2.5s-1.4-0.9-2.5-0.9c-1,0-1.9,0.3-2.5,0.9s-1,1.7-1.1,3.1l-4.9-0.5c0.3-2.7,1.2-4.7,2.8-5.9s3.5-1.8,5.8-1.8
			c2.5,0,4.5,0.7,6,2.1s2.2,3.1,2.2,5.1c0,1.2-0.2,2.3-0.6,3.3s-1.1,2.1-2,3.3c-0.6,0.8-1.7,1.9-3.2,3.3s-2.5,2.4-3,2.8
			s-0.8,0.9-1,1.4L518.8,354.5L518.8,354.5z"/>
		<path class="st6" d="M523.1,354.1h4.9v3.5c0,1.4-0.1,2.6-0.4,3.4s-0.7,1.6-1.4,2.2s-1.6,1.2-2.6,1.5l-1-2c1-0.3,1.7-0.8,2.1-1.4
			s0.6-1.4,0.7-2.4H523L523.1,354.1L523.1,354.1L523.1,354.1z"/>
		<path class="st6" d="M531.9,352.2l4.8-0.6c0.2,1.2,0.6,2.2,1.2,2.8s1.5,1,2.4,1c1,0,1.9-0.4,2.6-1.2s1-1.8,1-3.1
			c0-1.2-0.3-2.2-1-3s-1.5-1.1-2.4-1.1c-0.6,0-1.4,0.1-2.3,0.4l0.5-4c1.3,0,2.4-0.3,3.1-0.9s1.1-1.4,1.1-2.5c0-0.9-0.3-1.6-0.8-2.1
			s-1.2-0.8-2.1-0.8c-0.8,0-1.6,0.3-2.2,0.9s-1,1.4-1.1,2.6l-4.6-0.8c0.3-1.6,0.8-2.8,1.4-3.7s1.5-1.7,2.7-2.2s2.4-0.8,3.8-0.8
			c2.4,0,4.4,0.8,5.8,2.3c1.2,1.3,1.8,2.7,1.8,4.3c0,2.3-1.2,4.1-3.7,5.4c1.5,0.3,2.7,1,3.5,2.1s1.3,2.4,1.3,4
			c0,2.3-0.8,4.2-2.5,5.8s-3.7,2.4-6.2,2.4c-2.3,0-4.3-0.7-5.8-2S532.2,354.4,531.9,352.2z"/>
		<path class="st6" d="M563.1,359.1v-25.8h7.8l4.7,17.6l4.6-17.6h7.8v25.8h-4.8v-20.3l-5.1,20.3h-5l-5.1-20.3v20.3H563.1z"/>
		<path class="st6" d="M609.4,333.9l-1,4.9c-1-1-2.4-1.5-4.4-1.5s-3.5,0.7-4.6,2.1c-0.7,0.8-1.1,1.7-1.4,2.9h9.7l-0.6,2.7h-9.5
			c0,0.3,0,0.6,0,1s0,0.8,0,1.3h8.9L606,350h-8c0.3,1.3,0.7,2.2,1.4,3c1.2,1.4,2.7,2.1,4.6,2.1c2.2,0,4-0.7,5.4-2.1v5.4
			c-1.5,0.8-3.3,1.1-5.3,1.1c-3.4,0-6.2-1.2-8.4-3.5c-1.5-1.6-2.5-3.6-3-6H590l0.6-2.7h1.7c0-0.3,0-0.6,0-0.9c0-0.5,0-1,0-1.4H590
			l0.6-2.7h2.1c0.5-2.3,1.5-4.3,2.9-5.9c2.2-2.4,5.1-3.6,8.7-3.6C606.3,332.8,608,333.2,609.4,333.9z"/>
	</g>
</g>
<g>
	<g>
		<path class="st6" d="M604.2,171.4c1.4,0,2.5,0.5,3.3,1.5c0.9,1.2,1.4,3.1,1.4,5.8s-0.5,4.7-1.4,5.9c-0.8,1-1.9,1.5-3.2,1.5
			c-1.4,0-2.5-0.5-3.4-1.6s-1.3-3-1.3-5.7s0.5-4.6,1.4-5.8C601.8,171.9,602.8,171.4,604.2,171.4z M604.2,173.7
			c-0.3,0-0.6,0.1-0.9,0.3s-0.5,0.6-0.6,1.1c-0.2,0.7-0.3,1.9-0.3,3.6s0.1,2.8,0.3,3.5c0.2,0.6,0.4,1,0.6,1.3
			c0.3,0.2,0.6,0.3,0.9,0.3s0.6-0.1,0.9-0.3c0.3-0.2,0.5-0.6,0.6-1.1c0.2-0.7,0.3-1.9,0.3-3.6s-0.1-2.8-0.3-3.5s-0.4-1.1-0.6-1.3
			S604.6,173.7,604.2,173.7z"/>
		<path class="st6" d="M611.3,183.1h2.7v2c0,0.8-0.1,1.4-0.2,1.9c-0.1,0.5-0.4,0.9-0.8,1.2c-0.4,0.4-0.9,0.7-1.5,0.9L611,188
			c0.6-0.2,0.9-0.4,1.2-0.8c0.2-0.3,0.4-0.8,0.4-1.3h-1.3L611.3,183.1L611.3,183.1z"/>
		<path class="st6" d="M616.3,174.2v-2.6h9.4v2c-0.8,0.8-1.6,1.9-2.4,3.3c-0.8,1.4-1.4,2.9-1.8,4.6c-0.4,1.6-0.6,3-0.6,4.3h-2.7
			c0-2,0.5-4,1.2-6.1c0.8-2.1,1.8-3.9,3.1-5.5H616.3z"/>
	</g>
</g>
<g>
	<g>
		<path class="st6" d="M633.4,185.8v-14.3h4.3l2.6,9.8l2.6-9.8h4.3v14.3h-2.7v-11.3l-2.8,11.3h-2.8l-2.8-11.3v11.3H633.4z"/>
		<path class="st6" d="M659.2,171.8l-0.6,2.7c-0.6-0.6-1.4-0.8-2.4-0.8s-1.9,0.4-2.6,1.1c-0.4,0.4-0.6,1-0.8,1.6h5.4l-0.3,1.5h-5.3
			c0,0.1,0,0.3,0,0.6c0,0.2,0,0.5,0,0.7h5l-0.3,1.5h-4.5c0.2,0.7,0.4,1.2,0.8,1.6c0.7,0.8,1.5,1.2,2.5,1.2c1.3,0,2.3-0.4,3-1.2v3
			c-0.8,0.4-1.8,0.6-3,0.6c-1.9,0-3.5-0.7-4.7-2c-0.8-0.9-1.4-2-1.7-3.3h-1.4l0.3-1.5h1c0-0.2,0-0.3,0-0.5c0-0.3,0-0.6,0-0.8h-1.3
			l0.3-1.5h1.2c0.3-1.3,0.8-2.4,1.6-3.3c1.2-1.3,2.9-2,4.9-2C657.4,171.2,658.4,171.4,659.2,171.8z"/>
	</g>
</g>
<path class="st6" d="M190.9,44V27.8h3.3l3.8,11.5c0.3,1.1,0.6,1.9,0.7,2.4c0.1-0.6,0.4-1.4,0.9-2.6l3.8-11.3h2.9V44h-2.1V30.4
	L199.4,44h-2l-4.7-13.8V44H190.9z"/>
<path class="st6" d="M217.2,42.6c-0.7,0.6-1.4,1.1-2.1,1.3c-0.7,0.3-1.4,0.4-2.1,0.4c-1.3,0-2.3-0.3-3-1c-0.7-0.6-1-1.4-1-2.4
	c0-0.6,0.1-1.1,0.4-1.6s0.6-0.9,1-1.1s0.9-0.6,1.4-0.7c0.4-0.1,1-0.1,1.7-0.3c1.6-0.1,2.9-0.4,3.6-0.7c0-0.3,0-0.4,0-0.6
	c0-0.9-0.1-1.4-0.6-1.7c-0.6-0.4-1.3-0.7-2.3-0.7s-1.6,0.1-2.1,0.4c-0.4,0.3-0.7,0.9-1,1.7l-2-0.3c0.1-0.9,0.4-1.6,0.9-2
	c0.4-0.6,1-0.9,1.7-1.1c0.7-0.3,1.7-0.4,2.7-0.4s1.9,0.1,2.4,0.3c0.6,0.3,1.1,0.6,1.4,0.9c0.3,0.4,0.6,0.9,0.6,1.4
	c0,0.3,0.1,1,0.1,1.9V39c0,1.9,0,3,0.1,3.6c0.1,0.4,0.3,1,0.6,1.4h-2.1C217.5,43.6,217.4,43.2,217.2,42.6z M217.1,38.1
	c-0.7,0.3-1.9,0.6-3.3,0.7c-0.9,0.1-1.4,0.3-1.7,0.4c-0.3,0.1-0.6,0.4-0.9,0.7c-0.3,0.3-0.3,0.6-0.3,1c0,0.6,0.1,1,0.6,1.3
	c0.4,0.3,1,0.6,1.7,0.6s1.4-0.1,2-0.6c0.6-0.3,1-0.9,1.3-1.4c0.3-0.4,0.3-1.1,0.3-2v-0.7H217.1z"/>
<path class="st6" d="M222.2,44V32.2h1.9v1.9c0.4-0.9,0.9-1.4,1.3-1.7c0.4-0.3,0.9-0.4,1.3-0.4c0.7,0,1.4,0.3,2,0.7l-0.7,1.9
	c-0.4-0.3-1-0.4-1.4-0.4s-0.9,0.1-1.1,0.4s-0.6,0.6-0.7,1.1c-0.3,0.7-0.3,1.4-0.3,2.3v6C224.4,44,222.2,44,222.2,44z"/>
<path class="st6" d="M228.9,40.5l2-0.3c0.1,0.9,0.4,1.4,1,1.9c0.6,0.4,1.3,0.6,2.1,0.6c0.9,0,1.6-0.1,2-0.6c0.4-0.4,0.7-0.9,0.7-1.3
	c0-0.4-0.1-0.9-0.6-1c-0.3-0.1-1-0.4-2-0.7c-1.4-0.4-2.4-0.7-3-1s-1-0.7-1.3-1.1c-0.3-0.4-0.4-1-0.4-1.6s0.1-1,0.4-1.4
	s0.6-0.9,1-1.1c0.3-0.3,0.7-0.4,1.3-0.6c0.6-0.1,1.1-0.3,1.7-0.3c0.9,0,1.7,0.1,2.4,0.4s1.3,0.6,1.6,1.1s0.6,1,0.7,1.9l-2,0.3
	c-0.1-0.6-0.3-1.1-0.7-1.4s-1-0.6-1.9-0.6s-1.6,0.1-2,0.4c-0.4,0.3-0.6,0.7-0.6,1s0.1,0.4,0.3,0.7c0.1,0.3,0.4,0.4,0.7,0.6
	c0.1,0.1,0.9,0.3,1.7,0.6c1.4,0.4,2.4,0.7,3,1s1,0.6,1.3,1s0.4,1,0.4,1.7s-0.1,1.3-0.6,1.9c-0.4,0.6-1,1-1.7,1.4
	c-0.7,0.3-1.6,0.4-2.4,0.4c-1.6,0-2.7-0.3-3.6-1C229.8,42.8,229.2,41.8,228.9,40.5z"/>
<path class="st6" d="M402.4,44V27.8h3.3l3.8,11.5c0.3,1.1,0.6,1.9,0.7,2.4c0.1-0.6,0.4-1.4,0.9-2.6l3.8-11.3h2.9V44h-2.1V30.4
	L410.9,44h-2l-4.7-13.8V44H402.4z"/>
<path class="st6" d="M428.7,42.6c-0.7,0.6-1.4,1.1-2.1,1.3c-0.7,0.3-1.4,0.4-2.1,0.4c-1.3,0-2.3-0.3-3-1c-0.7-0.6-1-1.4-1-2.4
	c0-0.6,0.1-1.1,0.4-1.6c0.3-0.4,0.6-0.9,1-1.1s0.9-0.6,1.4-0.7c0.4-0.1,1-0.1,1.7-0.3c1.6-0.1,2.9-0.4,3.6-0.7c0-0.3,0-0.4,0-0.6
	c0-0.9-0.1-1.4-0.6-1.7c-0.6-0.4-1.3-0.7-2.3-0.7s-1.6,0.1-2.1,0.4c-0.4,0.3-0.7,0.9-1,1.7l-2-0.3c0.1-0.9,0.4-1.6,0.9-2
	c0.4-0.6,1-0.9,1.7-1.1c0.7-0.3,1.7-0.4,2.7-0.4s1.9,0.1,2.4,0.3c0.6,0.3,1.1,0.6,1.4,0.9c0.3,0.4,0.6,0.9,0.6,1.4
	c0,0.3,0.1,1,0.1,1.9V39c0,1.9,0,3,0.1,3.6c0.1,0.4,0.3,1,0.6,1.4H429C429,43.6,428.9,43.2,428.7,42.6z M428.6,38.1
	c-0.7,0.3-1.9,0.6-3.3,0.7c-0.9,0.1-1.4,0.3-1.7,0.4c-0.3,0.1-0.6,0.4-0.9,0.7s-0.3,0.6-0.3,1c0,0.6,0.1,1,0.6,1.3
	c0.4,0.3,1,0.6,1.7,0.6s1.4-0.1,2-0.6c0.6-0.3,1-0.9,1.3-1.4c0.3-0.4,0.3-1.1,0.3-2v-0.7H428.6z"/>
<path class="st6" d="M433.7,30.1v-2.3h2v2.3H433.7z M433.7,44V32.2h2V44H433.7z"/>
<path class="st6" d="M587.9,38.8l2-0.1c0.1,0.9,0.3,1.4,0.7,2c0.3,0.6,0.9,1,1.6,1.3s1.6,0.4,2.6,0.4c0.9,0,1.6-0.1,2.1-0.4
	s1.1-0.6,1.4-1c0.3-0.4,0.4-0.9,0.4-1.4s-0.1-1-0.4-1.3c-0.3-0.4-0.9-0.7-1.4-1c-0.4-0.1-1.4-0.4-2.9-0.9c-1.4-0.4-2.6-0.7-3.1-1
	c-0.7-0.4-1.4-0.9-1.7-1.6c-0.4-0.6-0.6-1.3-0.6-2c0-0.9,0.3-1.6,0.7-2.3c0.4-0.7,1.1-1.3,2-1.6c0.9-0.4,1.9-0.6,3-0.6
	s2.3,0.1,3.1,0.6c0.9,0.4,1.6,1,2.1,1.7c0.4,0.7,0.7,1.6,0.9,2.6l-2,0.1c-0.1-1-0.4-1.9-1.1-2.3c-0.7-0.6-1.6-0.9-2.9-0.9
	s-2.3,0.3-2.9,0.7c-0.6,0.4-0.9,1-0.9,1.7c0,0.6,0.1,1,0.6,1.4c0.4,0.4,1.6,0.7,3.3,1.1s3,0.7,3.6,1c1,0.4,1.7,1,2.1,1.7
	s0.7,1.4,0.7,2.3c0,0.9-0.3,1.7-0.7,2.4s-1.1,1.4-2.1,1.9c-1,0.4-2,0.6-3.1,0.6c-1.4,0-2.7-0.3-3.7-0.7s-1.7-1.1-2.3-2
	C588.3,40.9,587.9,39.9,587.9,38.8z"/>
<path class="st6" d="M611.7,40.2l2,0.3c-0.3,1.1-1,2.1-1.9,2.9c-0.9,0.7-2,1-3.4,1c-1.7,0-3.1-0.6-4.1-1.6s-1.6-2.6-1.6-4.4
	c0-2,0.6-3.6,1.6-4.6c1-1.1,2.3-1.7,4-1.7c1.6,0,2.9,0.6,3.8,1.6c1,1,1.6,2.6,1.6,4.6c0,0.1,0,0.3,0,0.6H605c0.1,1.3,0.4,2.3,1.1,3
	s1.4,1,2.4,1c0.7,0,1.4-0.1,1.9-0.6C611,41.6,611.4,41,611.7,40.2z M605.1,36.9h6.6c-0.1-1-0.3-1.7-0.7-2.3
	c-0.6-0.7-1.4-1.1-2.4-1.1c-0.9,0-1.7,0.3-2.3,0.9C605.6,35.2,605.1,35.9,605.1,36.9z"/>
<path class="st6" d="M616.2,48.6V32.2h1.9v1.6c0.4-0.6,0.9-1,1.4-1.3s1.1-0.4,2-0.4c1,0,1.9,0.3,2.7,0.7c0.7,0.6,1.3,1.3,1.7,2.1
	c0.4,1,0.6,2,0.6,3.1s-0.3,2.3-0.7,3.3s-1,1.7-1.9,2.3s-1.7,0.7-2.6,0.7c-0.7,0-1.3-0.1-1.9-0.4c-0.6-0.3-1-0.6-1.3-1v5.7
	C618.2,48.6,616.2,48.6,616.2,48.6z M618.1,38.2c0,1.6,0.3,2.7,0.9,3.4s1.4,1.1,2.3,1.1s1.7-0.4,2.3-1.1c0.6-0.7,1-1.9,1-3.6
	c0-1.6-0.3-2.6-1-3.4c-0.7-0.9-1.4-1.1-2.3-1.1s-1.6,0.4-2.3,1.1C618.4,35.5,618.1,36.6,618.1,38.2z"/>
<path class="st6" d="M633.2,42.2l0.3,1.7c-0.6,0.1-1,0.1-1.6,0.1c-0.7,0-1.3-0.1-1.7-0.3c-0.4-0.3-0.7-0.6-0.9-0.9
	c-0.1-0.3-0.1-1.1-0.1-2.3v-6.8h-1.4v-1.6h1.4v-2.9l2-1.1v4.1h2v1.6h-2v6.8c0,0.6,0,1,0.1,1.1c0,0.1,0.1,0.3,0.3,0.4
	s0.4,0.1,0.7,0.1C632.6,42.3,632.9,42.3,633.2,42.2z"/>
<path class="st6" d="M643.3,40.2l2,0.3c-0.3,1.1-1,2.1-1.9,2.9s-2,1-3.4,1c-1.7,0-3.1-0.6-4.1-1.6s-1.6-2.6-1.6-4.4
	c0-2,0.6-3.6,1.6-4.6c1-1.1,2.3-1.7,4-1.7c1.6,0,2.9,0.6,3.8,1.6c1,1.1,1.6,2.6,1.6,4.6c0,0.1,0,0.3,0,0.6h-8.8
	c0.1,1.3,0.4,2.3,1.1,3s1.4,1,2.4,1c0.7,0,1.4-0.1,1.9-0.6C642.6,41.6,643,41,643.3,40.2z M636.8,36.9h6.6c-0.1-1-0.3-1.7-0.7-2.3
	c-0.6-0.7-1.4-1.1-2.4-1.1c-0.9,0-1.7,0.3-2.3,0.9C637.2,35.2,636.8,35.9,636.8,36.9z"/>
<g>
	<path class="st6" d="M649.2,44V32.2h1.9v1.7c0.4-0.6,0.9-1,1.4-1.4c0.6-0.3,1.3-0.6,2.1-0.6c0.9,0,1.6,0.1,2.1,0.6
		c0.6,0.4,1,0.9,1.1,1.6c1-1.4,2.1-2,3.7-2c1.1,0,2.1,0.3,2.7,1c0.6,0.7,1,1.7,1,3v8.1h-2v-7.4c0-0.9,0-1.4-0.1-1.7
		s-0.4-0.6-0.7-0.9c-0.3-0.3-0.7-0.3-1.1-0.3c-0.9,0-1.6,0.3-2.1,0.9c-0.6,0.6-0.9,1.4-0.9,2.7v6.8h-2v-7.7c0-0.9-0.1-1.6-0.4-2
		c-0.3-0.4-0.9-0.7-1.6-0.7c-0.6,0-1.1,0.1-1.6,0.4s-0.9,0.7-1,1.3s-0.3,1.4-0.3,2.4v6.1L649.2,44L649.2,44L649.2,44z"/>
	<path class="st6" d="M670,44h-1.9V27.8h2v5.8c0.9-1,1.9-1.6,3.3-1.6c0.7,0,1.4,0.1,2,0.4c0.7,0.3,1.1,0.7,1.6,1.3s0.7,1.1,1,1.9
		c0.3,0.7,0.3,1.6,0.3,2.4c0,2-0.6,3.6-1.6,4.7c-1,1.1-2.1,1.7-3.6,1.7c-1.4,0-2.4-0.6-3.3-1.7V44H670z M670,38.1
		c0,1.4,0.1,2.4,0.6,3.1c0.6,1,1.4,1.6,2.6,1.6c0.9,0,1.6-0.4,2.3-1.1c0.6-0.7,1-1.9,1-3.4c0-1.6-0.3-2.7-0.9-3.4
		c-0.6-0.7-1.3-1.1-2.3-1.1c-0.9,0-1.6,0.4-2.3,1.1C670.3,35.5,670,36.6,670,38.1z"/>
	<path class="st6" d="M680.8,44V32.2h1.9v1.9c0.4-0.9,0.9-1.4,1.3-1.7c0.4-0.3,0.9-0.4,1.3-0.4c0.7,0,1.4,0.3,2,0.7l-0.7,1.9
		c-0.4-0.3-1-0.4-1.4-0.4s-0.9,0.1-1.1,0.4s-0.6,0.6-0.7,1.1c-0.3,0.7-0.3,1.4-0.3,2.3v6C683,44,680.8,44,680.8,44z"/>
	<path class="st6" d="M696.4,40.2l2,0.3c-0.3,1.1-1,2.1-1.9,2.9s-2,1-3.4,1c-1.7,0-3.1-0.6-4.1-1.6s-1.6-2.6-1.6-4.4
		c0-2,0.6-3.6,1.6-4.6c1-1.1,2.3-1.7,4-1.7c1.6,0,2.9,0.6,3.8,1.6c1,1.1,1.6,2.6,1.6,4.6c0,0.1,0,0.3,0,0.6h-8.8
		c0.1,1.3,0.4,2.3,1.1,3s1.4,1,2.4,1c0.7,0,1.4-0.1,1.9-0.6C695.6,41.6,696.1,41,696.4,40.2z M689.8,36.9h6.6
		c-0.1-1-0.3-1.7-0.7-2.3c-0.6-0.7-1.4-1.1-2.4-1.1c-0.9,0-1.7,0.3-2.3,0.9C690.2,35.2,689.9,35.9,689.8,36.9z"/>
</g>
<path d="M70.6,188.8v-12.9h9.6v2.2h-7v2.9h6.5v2.2h-6.5v3.5h7.2v2.2L70.6,188.8L70.6,188.8z"/>
<path d="M84.9,188.8h-2.5v-9.3h2.3v1.3c0.4-0.6,0.7-1,1.1-1.2s0.7-0.3,1.1-0.3c0.6,0,1.1,0.2,1.6,0.5l-0.8,2.2
	c-0.4-0.3-0.8-0.4-1.2-0.4c-0.3,0-0.6,0.1-0.9,0.3s-0.4,0.5-0.6,1s-0.2,1.5-0.2,3.1L84.9,188.8L84.9,188.8z"/>
<path d="M89.3,189.4l2.8,0.3c0,0.3,0.2,0.6,0.3,0.7c0.2,0.2,0.6,0.3,1.1,0.3c0.6,0,1.1-0.1,1.5-0.3c0.2-0.1,0.4-0.3,0.5-0.6
	c0.1-0.2,0.1-0.6,0.1-1.1v-1.4c-0.7,1-1.7,1.5-2.8,1.5c-1.3,0-2.2-0.5-3-1.6c-0.6-0.8-0.9-1.9-0.9-3.1c0-1.6,0.4-2.8,1.1-3.6
	s1.7-1.2,2.8-1.2c1.2,0,2.1,0.5,2.9,1.5v-1.3H98v8.4c0,1.1-0.1,1.9-0.3,2.5s-0.4,1-0.8,1.3s-0.8,0.6-1.3,0.7s-1.2,0.3-2.1,0.3
	c-1.6,0-2.7-0.3-3.4-0.8s-1-1.2-1-2.1C89.3,189.6,89.3,189.5,89.3,189.4z M91.5,183.9c0,1,0.2,1.7,0.6,2.2s0.9,0.7,1.4,0.7
	c0.6,0,1.1-0.2,1.5-0.7s0.6-1.2,0.6-2.1c0-1-0.2-1.7-0.6-2.2s-0.9-0.7-1.5-0.7s-1.1,0.2-1.5,0.7S91.5,183,91.5,183.9z"/>
<path d="M99.4,179.5h2.6l2.2,6.6l2.2-6.6h2.6l-3.3,9l-0.6,1.6c-0.2,0.5-0.4,1-0.6,1.2s-0.4,0.5-0.7,0.7s-0.6,0.3-0.9,0.4
	s-0.8,0.1-1.3,0.1s-0.9,0-1.4-0.1l-0.2-1.9c0.4,0.1,0.7,0.1,1,0.1c0.6,0,1-0.2,1.3-0.5s0.5-0.8,0.6-1.3L99.4,179.5z"/>
<path d="M114.7,179.5v2H113v3.8c0,0.8,0,1.2,0,1.3s0.1,0.2,0.2,0.3s0.3,0.1,0.4,0.1c0.2,0,0.6-0.1,1-0.2l0.2,1.9
	c-0.6,0.2-1.2,0.4-2,0.4c-0.4,0-0.8-0.1-1.2-0.2s-0.6-0.3-0.8-0.6s-0.3-0.6-0.3-1c-0.1-0.3-0.1-0.9-0.1-1.7v-4.1h-1.1v-2h1.1v-1.9
	l2.5-1.4v3.3C112.9,179.5,114.7,179.5,114.7,179.5z"/>
<path d="M118.8,188.8h-2.5v-9.3h2.3v1.3c0.4-0.6,0.7-1,1.1-1.2s0.7-0.3,1.1-0.3c0.6,0,1.1,0.2,1.6,0.5l-0.8,2.2
	c-0.4-0.3-0.8-0.4-1.2-0.4c-0.3,0-0.6,0.1-0.9,0.3c-0.3,0.2-0.4,0.5-0.6,1s-0.2,1.5-0.2,3.1L118.8,188.8L118.8,188.8z"/>
<path d="M125.2,182.3l-2.2-0.4c0.3-0.9,0.7-1.6,1.3-2s1.5-0.7,2.7-0.7c1.1,0,1.9,0.1,2.5,0.4s0.9,0.6,1.1,1s0.3,1.1,0.3,2.2v2.9
	c0,0.8,0,1.4,0.1,1.8c0.1,0.4,0.2,0.8,0.4,1.3H129c-0.1-0.2-0.1-0.4-0.2-0.7c0-0.1-0.1-0.2-0.1-0.3c-0.4,0.4-0.9,0.7-1.4,0.9
	s-1,0.3-1.5,0.3c-1,0-1.7-0.3-2.3-0.8s-0.8-1.2-0.8-2c0-0.5,0.1-1,0.4-1.4c0.3-0.4,0.6-0.7,1.1-0.9s1.1-0.4,2-0.6
	c1.2-0.2,2-0.4,2.4-0.6v-0.2c0-0.5-0.1-0.8-0.4-1s-0.7-0.3-1.3-0.3c-0.4,0-0.8,0.1-1,0.3S125.4,181.9,125.2,182.3z M128.5,184.3
	c-0.3,0.1-0.8,0.2-1.5,0.4s-1.1,0.3-1.3,0.4c-0.3,0.2-0.5,0.5-0.5,0.9c0,0.3,0.1,0.6,0.4,0.9s0.6,0.4,1,0.4s0.9-0.1,1.3-0.4
	c0.3-0.2,0.5-0.5,0.6-0.8c0.1-0.2,0.1-0.6,0.1-1.2v-0.6L128.5,184.3L128.5,184.3z"/>
<path d="M141.8,188.8h-2.5V184c0-1-0.1-1.7-0.2-2s-0.3-0.5-0.5-0.7s-0.5-0.2-0.9-0.2s-0.8,0.1-1.2,0.4c-0.4,0.3-0.6,0.5-0.7,0.9
	s-0.2,1.1-0.2,2.1v4.2h-2.5v-9.3h2.3v1.4c0.8-1.1,1.8-1.6,3.1-1.6c0.5,0,1,0.1,1.5,0.3s0.8,0.4,1,0.8s0.4,0.7,0.5,1s0.1,0.9,0.1,1.7
	v5.8L141.8,188.8L141.8,188.8z"/>
<path d="M143.5,186.1l2.5-0.4c0.1,0.5,0.3,0.8,0.6,1.1s0.8,0.4,1.4,0.4c0.6,0,1.1-0.1,1.4-0.4c0.2-0.2,0.3-0.4,0.3-0.7
	c0-0.2-0.1-0.3-0.2-0.5c-0.1-0.1-0.4-0.2-0.8-0.3c-2-0.4-3.3-0.8-3.8-1.2c-0.7-0.5-1.1-1.2-1.1-2.1c0-0.8,0.3-1.5,1-2s1.6-0.8,3-0.8
	c1.3,0,2.2,0.2,2.8,0.6c0.6,0.4,1,1,1.3,1.8l-2.3,0.4c-0.1-0.4-0.3-0.6-0.6-0.8s-0.7-0.3-1.2-0.3c-0.7,0-1.1,0.1-1.4,0.3
	c-0.2,0.1-0.3,0.3-0.3,0.5s0.1,0.3,0.2,0.4c0.2,0.2,1,0.4,2.3,0.7s2.2,0.7,2.8,1.1c0.5,0.4,0.8,1.1,0.8,1.8c0,0.9-0.4,1.6-1.1,2.2
	s-1.8,0.9-3.2,0.9c-1.3,0-2.3-0.3-3-0.8S143.7,187,143.5,186.1z"/>
<path d="M154.4,178.2v-2.3h2.5v2.3H154.4z M154.4,188.8v-9.3h2.5v9.3H154.4z"/>
<path d="M163.7,179.5v2H162v3.8c0,0.8,0,1.2,0,1.3s0.1,0.2,0.2,0.3s0.3,0.1,0.4,0.1c0.2,0,0.6-0.1,1-0.2l0.2,1.9
	c-0.6,0.2-1.2,0.4-2,0.4c-0.4,0-0.8-0.1-1.2-0.2s-0.6-0.3-0.8-0.6s-0.3-0.6-0.3-1c-0.1-0.3-0.1-0.9-0.1-1.7v-4.1h-1.1v-2h1.1v-1.9
	l2.5-1.4v3.3C161.9,179.5,163.7,179.5,163.7,179.5z"/>
<path d="M118.3,210.4v-12.9h8.8v2.2H121v3h5.4v2.2H121v5.5H118.3z"/>
<path d="M129.3,210.4v-12.9h2.5v12.9H129.3z"/>
<path d="M136.2,203.9l-2.2-0.4c0.3-0.9,0.7-1.6,1.3-2s1.5-0.7,2.7-0.7c1.1,0,1.9,0.1,2.5,0.4s0.9,0.6,1.1,1s0.3,1.1,0.3,2.2v2.9
	c0,0.8,0,1.4,0.1,1.8s0.2,0.8,0.4,1.3H140c-0.1-0.2-0.1-0.4-0.2-0.7c0-0.1-0.1-0.2-0.1-0.3c-0.4,0.4-0.9,0.7-1.4,0.9s-1,0.3-1.5,0.3
	c-1,0-1.7-0.3-2.3-0.8s-0.8-1.2-0.8-2c0-0.5,0.1-1,0.4-1.4s0.6-0.7,1.1-0.9s1.1-0.4,2-0.6c1.2-0.2,2-0.4,2.4-0.6v-0.2
	c0-0.5-0.1-0.8-0.4-1s-0.7-0.3-1.3-0.3c-0.4,0-0.8,0.1-1,0.3S136.4,203.5,136.2,203.9z M139.5,205.9c-0.3,0.1-0.8,0.2-1.5,0.4
	s-1.1,0.3-1.3,0.4c-0.3,0.2-0.5,0.5-0.5,0.9c0,0.3,0.1,0.6,0.4,0.9s0.6,0.4,1,0.4s0.9-0.1,1.3-0.4c0.3-0.2,0.5-0.5,0.6-0.8
	c0.1-0.2,0.1-0.6,0.1-1.2v-0.6L139.5,205.9L139.5,205.9z"/>
<path d="M143.5,207.7l2.5-0.4c0.1,0.5,0.3,0.8,0.6,1.1s0.8,0.4,1.4,0.4c0.6,0,1.1-0.1,1.4-0.4c0.2-0.2,0.3-0.4,0.3-0.7
	c0-0.2-0.1-0.3-0.2-0.5c-0.1-0.1-0.4-0.2-0.8-0.3c-2-0.4-3.3-0.8-3.8-1.2c-0.7-0.5-1.1-1.2-1.1-2.1c0-0.8,0.3-1.5,1-2s1.6-0.8,3-0.8
	c1.3,0,2.2,0.2,2.8,0.6s1,1,1.3,1.8l-2.3,0.4c-0.1-0.4-0.3-0.6-0.6-0.8s-0.7-0.3-1.2-0.3c-0.7,0-1.1,0.1-1.4,0.3
	c-0.2,0.1-0.3,0.3-0.3,0.5s0.1,0.3,0.2,0.4c0.2,0.2,1,0.4,2.3,0.7s2.2,0.7,2.8,1.1c0.5,0.4,0.8,1.1,0.8,1.8c0,0.9-0.4,1.6-1.1,2.2
	s-1.8,0.9-3.2,0.9c-1.3,0-2.3-0.3-3-0.8S143.7,208.6,143.5,207.7z"/>
<path d="M156.8,197.5v4.7c0.8-0.9,1.7-1.4,2.9-1.4c0.6,0,1.1,0.1,1.5,0.3s0.8,0.5,1,0.8s0.4,0.7,0.5,1.1s0.1,1,0.1,1.9v5.5h-2.5
	v-4.9c0-1,0-1.6-0.1-1.9s-0.3-0.5-0.5-0.6s-0.5-0.2-0.9-0.2s-0.8,0.1-1.1,0.3s-0.6,0.5-0.7,0.9s-0.2,1-0.2,1.8v4.7h-2.5v-12.9h2.5
	V197.5z"/>
<path d="M59.5,348.8V336H62l5.3,8.6V336h2.4v12.9h-2.6l-5.2-8.4v8.4h-2.4C59.5,348.9,59.5,348.8,59.5,348.8z"/>
<path d="M71.8,344c0-0.8,0.2-1.6,0.6-2.4c0.4-0.8,1-1.4,1.7-1.8s1.6-0.6,2.5-0.6c1.4,0,2.6,0.5,3.5,1.4s1.4,2.1,1.4,3.5
	s-0.5,2.6-1.4,3.5S78,349,76.7,349c-0.9,0-1.7-0.2-2.4-0.6c-0.7-0.4-1.4-1-1.8-1.7C72,346,71.8,345.1,71.8,344z M74.4,344.2
	c0,0.9,0.2,1.6,0.7,2.1s1,0.7,1.6,0.7c0.6,0,1.2-0.2,1.6-0.7c0.4-0.5,0.7-1.2,0.7-2.1s-0.2-1.6-0.7-2.1s-1-0.7-1.6-0.7
	c-0.6,0-1.2,0.2-1.6,0.7C74.7,342.6,74.4,343.3,74.4,344.2z"/>
<path d="M89.6,348.8v-1.4c-0.3,0.5-0.8,0.9-1.3,1.2s-1.1,0.4-1.8,0.4c-0.6,0-1.2-0.1-1.7-0.4s-0.9-0.7-1.1-1.2s-0.3-1.2-0.3-2.1
	v-5.9h2.5v4.3c0,1.3,0,2.1,0.1,2.4s0.3,0.5,0.5,0.7s0.5,0.3,0.9,0.3s0.8-0.1,1.1-0.3c0.3-0.2,0.6-0.5,0.7-0.9
	c0.1-0.3,0.2-1.2,0.2-2.5v-3.9h2.5v9.3H89.6z"/>
<path d="M97,348.8l-3.8-9.3h2.6l1.8,4.8l0.5,1.6c0.1-0.4,0.2-0.7,0.3-0.8c0.1-0.3,0.2-0.5,0.3-0.8l1.8-4.8h2.5l-3.7,9.3L97,348.8
	L97,348.8z"/>
<path d="M109.5,345.9l2.5,0.4c-0.3,0.9-0.8,1.6-1.5,2.1s-1.5,0.7-2.6,0.7c-1.6,0-2.8-0.5-3.6-1.6c-0.6-0.8-0.9-1.9-0.9-3.2
	c0-1.5,0.4-2.8,1.2-3.6s1.8-1.3,3.1-1.3c1.4,0,2.5,0.5,3.3,1.4s1.2,2.3,1.2,4.2H106c0,0.7,0.2,1.3,0.6,1.7c0.4,0.4,0.9,0.6,1.4,0.6
	c0.4,0,0.7-0.1,1-0.3S109.3,346.3,109.5,345.9z M109.6,343.4c0-0.7-0.2-1.3-0.6-1.6c-0.4-0.4-0.8-0.6-1.3-0.6s-1,0.2-1.3,0.6
	s-0.5,0.9-0.5,1.6H109.6z"/>
<path d="M114,348.8V336h2.5v12.9H114V348.8z"/>
<path d="M119.1,348.8V336h2.5v12.9h-2.5V348.8z"/>
<path d="M129.5,345.9l2.5,0.4c-0.3,0.9-0.8,1.6-1.5,2.1s-1.5,0.7-2.6,0.7c-1.6,0-2.8-0.5-3.6-1.6c-0.6-0.8-0.9-1.9-0.9-3.2
	c0-1.5,0.4-2.8,1.2-3.6s1.8-1.3,3.1-1.3c1.4,0,2.5,0.5,3.3,1.4s1.2,2.3,1.2,4.2H126c0,0.7,0.2,1.3,0.6,1.7c0.4,0.4,0.9,0.6,1.4,0.6
	c0.4,0,0.7-0.1,1-0.3S129.4,346.3,129.5,345.9z M129.7,343.4c0-0.7-0.2-1.3-0.6-1.6c-0.4-0.4-0.8-0.6-1.3-0.6c-0.5,0-1,0.2-1.3,0.6
	s-0.5,0.9-0.5,1.6H129.7z"/>
<path d="M139.3,349.5l2.8,0.3c0,0.3,0.2,0.6,0.3,0.7c0.2,0.2,0.6,0.3,1.1,0.3c0.6,0,1.1-0.1,1.5-0.3c0.2-0.1,0.4-0.3,0.5-0.6
	c0.1-0.2,0.1-0.6,0.1-1.1v-1.4c-0.7,1-1.7,1.5-2.8,1.5c-1.3,0-2.2-0.5-3-1.6c-0.6-0.8-0.9-1.9-0.9-3.1c0-1.6,0.4-2.8,1.1-3.6
	s1.7-1.2,2.8-1.2c1.2,0,2.1,0.5,2.9,1.5v-1.3h2.3v8.4c0,1.1-0.1,1.9-0.3,2.5c-0.2,0.6-0.4,1-0.8,1.3c-0.4,0.3-0.8,0.6-1.3,0.7
	s-1.2,0.3-2.1,0.3c-1.6,0-2.7-0.3-3.4-0.8c-0.7-0.5-1-1.2-1-2.1C139.3,349.7,139.3,349.6,139.3,349.5z M141.5,344
	c0,1,0.2,1.7,0.6,2.2c0.4,0.5,0.9,0.7,1.4,0.7c0.6,0,1.1-0.2,1.5-0.7s0.6-1.2,0.6-2.1c0-1-0.2-1.7-0.6-2.2s-0.9-0.7-1.5-0.7
	s-1.1,0.2-1.5,0.7S141.5,343,141.5,344z"/>
<path d="M152.4,342.4l-2.2-0.4c0.3-0.9,0.7-1.6,1.3-2s1.5-0.7,2.7-0.7c1.1,0,1.9,0.1,2.5,0.4c0.5,0.3,0.9,0.6,1.1,1s0.3,1.1,0.3,2.2
	v2.9c0,0.8,0,1.4,0.1,1.8c0.1,0.4,0.2,0.8,0.4,1.3h-2.4c-0.1-0.2-0.1-0.4-0.2-0.7c0-0.1-0.1-0.2-0.1-0.3c-0.4,0.4-0.9,0.7-1.4,0.9
	s-1,0.3-1.5,0.3c-1,0-1.7-0.3-2.3-0.8s-0.8-1.2-0.8-2c0-0.5,0.1-1,0.4-1.4s0.6-0.7,1.1-0.9c0.5-0.2,1.1-0.4,2-0.6
	c1.2-0.2,2-0.4,2.4-0.6v-0.2c0-0.5-0.1-0.8-0.4-1c-0.2-0.2-0.7-0.3-1.3-0.3c-0.4,0-0.8,0.1-1,0.3
	C152.7,341.6,152.5,341.9,152.4,342.4z M155.7,344.4c-0.3,0.1-0.8,0.2-1.5,0.4s-1.1,0.3-1.3,0.4c-0.3,0.2-0.5,0.5-0.5,0.9
	c0,0.3,0.1,0.6,0.4,0.9c0.3,0.3,0.6,0.4,1,0.4c0.4,0,0.9-0.1,1.3-0.4c0.3-0.2,0.5-0.5,0.6-0.8c0.1-0.2,0.1-0.6,0.1-1.2L155.7,344.4
	L155.7,344.4L155.7,344.4z"/>
<path d="M160.3,339.5h2.3v1.3c0.8-1,1.8-1.5,2.9-1.5c0.6,0,1.1,0.1,1.6,0.4s0.8,0.6,1.1,1.1c0.4-0.5,0.9-0.9,1.3-1.1s1-0.4,1.5-0.4
	c0.7,0,1.3,0.1,1.7,0.4s0.8,0.7,1.1,1.2c0.2,0.4,0.3,1,0.3,1.9v6h-2.5v-5.3c0-0.9-0.1-1.5-0.3-1.8c-0.2-0.4-0.6-0.5-1.1-0.5
	c-0.3,0-0.7,0.1-1,0.3s-0.5,0.5-0.7,0.9c-0.1,0.4-0.2,1.1-0.2,1.9v4.5H166v-5.1c0-0.9,0-1.5-0.1-1.8s-0.2-0.5-0.4-0.6
	s-0.4-0.2-0.8-0.2c-0.4,0-0.7,0.1-1,0.3s-0.5,0.5-0.7,0.9s-0.2,1-0.2,1.9v4.5h-2.5V339.5z"/>
<path d="M176.3,339.5h2.3v1.3c0.8-1,1.8-1.5,2.9-1.5c0.6,0,1.1,0.1,1.6,0.4s0.8,0.6,1.1,1.1c0.4-0.5,0.9-0.9,1.3-1.1s1-0.4,1.5-0.4
	c0.7,0,1.3,0.1,1.7,0.4s0.8,0.7,1.1,1.2c0.2,0.4,0.3,1,0.3,1.9v6h-2.5v-5.3c0-0.9-0.1-1.5-0.3-1.8c-0.2-0.4-0.6-0.5-1.1-0.5
	c-0.3,0-0.7,0.1-1,0.3s-0.5,0.5-0.7,0.9c-0.1,0.4-0.2,1.1-0.2,1.9v4.5h-2.5v-5.1c0-0.9,0-1.5-0.1-1.8s-0.2-0.5-0.4-0.6
	s-0.4-0.2-0.8-0.2c-0.4,0-0.7,0.1-1,0.3s-0.5,0.5-0.7,0.9s-0.2,1-0.2,1.9v4.5h-2.5v-9.2L176.3,339.5L176.3,339.5z"/>
<path d="M197.8,345.9l2.5,0.4c-0.3,0.9-0.8,1.6-1.5,2.1s-1.5,0.7-2.6,0.7c-1.6,0-2.8-0.5-3.6-1.6c-0.6-0.8-0.9-1.9-0.9-3.2
	c0-1.5,0.4-2.8,1.2-3.6s1.8-1.3,3.1-1.3c1.4,0,2.5,0.5,3.3,1.4s1.2,2.3,1.2,4.2h-6.2c0,0.7,0.2,1.3,0.6,1.7c0.4,0.4,0.9,0.6,1.4,0.6
	c0.4,0,0.7-0.1,1-0.3S197.7,346.3,197.8,345.9z M198,343.4c0-0.7-0.2-1.3-0.6-1.6c-0.4-0.4-0.8-0.6-1.3-0.6s-1,0.2-1.3,0.6
	s-0.5,0.9-0.5,1.6H198z"/>
<path d="M143.8,367.5l2.5,0.4c-0.3,0.9-0.8,1.6-1.5,2.1s-1.5,0.7-2.6,0.7c-1.6,0-2.8-0.5-3.6-1.6c-0.6-0.8-0.9-1.9-0.9-3.2
	c0-1.5,0.4-2.8,1.2-3.6c0.8-0.8,1.8-1.3,3.1-1.3c1.4,0,2.5,0.5,3.3,1.4s1.2,2.3,1.2,4.2h-6.2c0,0.7,0.2,1.3,0.6,1.7
	c0.4,0.4,0.9,0.6,1.4,0.6c0.4,0,0.7-0.1,1-0.3S143.7,367.9,143.8,367.5z M143.9,365c0-0.7-0.2-1.3-0.6-1.6c-0.4-0.4-0.8-0.6-1.3-0.6
	s-1,0.2-1.3,0.6s-0.5,0.9-0.5,1.6H143.9z"/>
<path d="M156.9,370.4h-2.5v-4.8c0-1-0.1-1.7-0.2-2c-0.1-0.3-0.3-0.5-0.5-0.7c-0.2-0.2-0.5-0.2-0.9-0.2s-0.8,0.1-1.2,0.4
	s-0.6,0.5-0.7,0.9s-0.2,1.1-0.2,2.1v4.2h-2.5V361h2.3v1.4c0.8-1.1,1.8-1.6,3.1-1.6c0.5,0,1,0.1,1.5,0.3s0.8,0.4,1,0.8
	c0.2,0.4,0.4,0.7,0.5,1c0.1,0.3,0.1,0.9,0.1,1.7v5.8L156.9,370.4L156.9,370.4z"/>
<path d="M158.3,361.1h1.4v-0.7c0-0.8,0.1-1.4,0.3-1.8s0.5-0.7,0.9-0.9c0.4-0.2,1-0.4,1.7-0.4s1.4,0.1,2.1,0.3l-0.3,1.7
	c-0.4-0.1-0.8-0.1-1.1-0.1c-0.4,0-0.6,0.1-0.8,0.3c-0.2,0.2-0.2,0.5-0.2,1v0.7h1.8v1.9h-1.8v7.4h-2.5v-7.4h-1.4L158.3,361.1
	L158.3,361.1z"/>
<path d="M167.2,364l-2.2-0.4c0.3-0.9,0.7-1.6,1.3-2s1.5-0.7,2.7-0.7c1.1,0,1.9,0.1,2.5,0.4c0.5,0.3,0.9,0.6,1.1,1s0.3,1.1,0.3,2.2
	v2.9c0,0.8,0,1.4,0.1,1.8s0.2,0.8,0.4,1.3H171c-0.1-0.2-0.1-0.4-0.2-0.7c0-0.1-0.1-0.2-0.1-0.3c-0.4,0.4-0.9,0.7-1.4,0.9
	s-1,0.3-1.5,0.3c-1,0-1.7-0.3-2.3-0.8s-0.8-1.2-0.8-2c0-0.5,0.1-1,0.4-1.4c0.3-0.4,0.6-0.7,1.1-0.9c0.5-0.2,1.1-0.4,2-0.6
	c1.2-0.2,2-0.4,2.4-0.6v-0.2c0-0.5-0.1-0.8-0.4-1c-0.2-0.2-0.7-0.3-1.3-0.3c-0.4,0-0.8,0.1-1,0.3C167.6,363.2,167.4,363.5,167.2,364
	z M170.5,366c-0.3,0.1-0.8,0.2-1.5,0.4s-1.1,0.3-1.3,0.4c-0.3,0.2-0.5,0.5-0.5,0.9c0,0.3,0.1,0.6,0.4,0.9s0.6,0.4,1,0.4
	s0.9-0.1,1.3-0.4c0.3-0.2,0.5-0.5,0.6-0.8c0.1-0.2,0.1-0.6,0.1-1.2V366H170.5z"/>
<path d="M183.9,370.4h-2.5v-4.8c0-1-0.1-1.7-0.2-2s-0.3-0.5-0.5-0.7s-0.5-0.2-0.9-0.2s-0.8,0.1-1.2,0.4s-0.6,0.5-0.7,0.9
	s-0.2,1.1-0.2,2.1v4.2h-2.5V361h2.3v1.4c0.8-1.1,1.8-1.6,3.1-1.6c0.5,0,1,0.1,1.5,0.3s0.8,0.4,1,0.8s0.4,0.7,0.5,1s0.1,0.9,0.1,1.7
	v5.8L183.9,370.4L183.9,370.4z"/>
<path d="M190.7,361.1v2H189v3.8c0,0.8,0,1.2,0,1.3s0.1,0.2,0.2,0.3s0.3,0.1,0.4,0.1c0.2,0,0.6-0.1,1-0.2l0.2,1.9
	c-0.6,0.2-1.2,0.4-2,0.4c-0.4,0-0.8-0.1-1.2-0.2s-0.6-0.3-0.8-0.6c-0.2-0.2-0.3-0.6-0.3-1c-0.1-0.3-0.1-0.9-0.1-1.7v-4.1h-1.1v-2
	h1.1v-1.9l2.5-1.4v3.3L190.7,361.1L190.7,361.1z"/>
<path d="M191.5,367.8l2.5-0.4c0.1,0.5,0.3,0.8,0.6,1.1c0.3,0.2,0.8,0.4,1.4,0.4c0.6,0,1.1-0.1,1.4-0.4c0.2-0.2,0.3-0.4,0.3-0.7
	c0-0.2-0.1-0.3-0.2-0.5c-0.1-0.1-0.4-0.2-0.8-0.3c-2-0.4-3.3-0.8-3.8-1.2c-0.7-0.5-1.1-1.2-1.1-2.1c0-0.8,0.3-1.5,1-2s1.6-0.8,3-0.8
	c1.3,0,2.2,0.2,2.8,0.6s1,1,1.3,1.8l-2.3,0.4c-0.1-0.4-0.3-0.6-0.6-0.8s-0.7-0.3-1.2-0.3c-0.7,0-1.1,0.1-1.4,0.3
	c-0.2,0.1-0.3,0.3-0.3,0.5s0.1,0.3,0.2,0.4c0.2,0.2,1,0.4,2.3,0.7s2.2,0.7,2.8,1.1c0.5,0.4,0.8,1.1,0.8,1.8c0,0.9-0.4,1.6-1.1,2.2
	s-1.8,0.9-3.2,0.9c-1.3,0-2.3-0.3-3-0.8S191.8,368.7,191.5,367.8z"/>
<path d="M382.4,78.2l2.5-0.2c0.2,0.8,0.5,1.5,0.9,1.9s1.1,0.6,1.9,0.6s1.5-0.2,1.9-0.5s0.6-0.8,0.6-1.2c0-0.3-0.1-0.6-0.3-0.8
	s-0.5-0.4-0.9-0.6c-0.3-0.1-1-0.3-2.1-0.6c-1.4-0.3-2.4-0.8-2.9-1.3c-0.8-0.7-1.2-1.6-1.2-2.6c0-0.7,0.2-1.3,0.6-1.8s0.9-1,1.6-1.3
	s1.5-0.4,2.5-0.4c1.6,0,2.8,0.4,3.7,1.1s1.2,1.7,1.3,2.8l-2.6,0.1c-0.1-0.7-0.4-1.1-0.7-1.4s-0.9-0.4-1.6-0.4
	c-0.8,0-1.3,0.2-1.8,0.5c-0.3,0.2-0.4,0.5-0.4,0.8s0.1,0.6,0.4,0.8c0.3,0.3,1.1,0.6,2.4,0.9s2.2,0.6,2.8,0.9s1.1,0.8,1.4,1.3
	s0.5,1.2,0.5,2.1c0,0.7-0.2,1.4-0.6,2.1s-1,1.1-1.7,1.4s-1.7,0.5-2.8,0.5c-1.6,0-2.9-0.4-3.8-1.1S382.6,79.6,382.4,78.2z"/>
<path d="M401.2,82.4V81c-0.3,0.5-0.8,0.9-1.3,1.2s-1.1,0.4-1.8,0.4c-0.6,0-1.2-0.1-1.7-0.4s-0.9-0.7-1.1-1.2s-0.3-1.2-0.3-2.1V73
	h2.5v4.3c0,1.3,0,2.1,0.1,2.4s0.3,0.5,0.5,0.7s0.5,0.3,0.9,0.3s0.8-0.1,1.1-0.3s0.6-0.5,0.7-0.9s0.2-1.2,0.2-2.5v-3.9h2.5v9.3H401.2
	z"/>
<path d="M408.5,82.4H406v-9.3h2.3v1.3c0.4-0.6,0.7-1,1.1-1.2s0.7-0.3,1.1-0.3c0.6,0,1.1,0.2,1.6,0.5l-0.8,2.2
	c-0.4-0.3-0.8-0.4-1.2-0.4c-0.3,0-0.6,0.1-0.9,0.3s-0.4,0.5-0.6,1s-0.2,1.5-0.2,3.1v2.8H408.5z"/>
<path d="M413,73.1h2.3v1.4c0.3-0.5,0.7-0.8,1.2-1.1s1.1-0.4,1.7-0.4c1.1,0,2,0.4,2.8,1.3s1.1,2,1.1,3.6s-0.4,2.8-1.1,3.6
	s-1.7,1.3-2.8,1.3c-0.5,0-1-0.1-1.4-0.3s-0.9-0.6-1.3-1.1v4.7H413V73.1z M415.4,77.6c0,1,0.2,1.8,0.6,2.3s0.9,0.8,1.5,0.8
	s1.1-0.2,1.4-0.7s0.6-1.2,0.6-2.3c0-1-0.2-1.7-0.6-2.2s-0.9-0.7-1.5-0.7s-1.1,0.2-1.5,0.7S415.4,76.7,415.4,77.6z"/>
<path d="M426.5,82.4H424v-9.3h2.3v1.3c0.4-0.6,0.7-1,1.1-1.2s0.7-0.3,1.1-0.3c0.6,0,1.1,0.2,1.6,0.5l-0.8,2.2
	c-0.4-0.3-0.8-0.4-1.2-0.4c-0.3,0-0.6,0.1-0.9,0.3s-0.4,0.5-0.6,1s-0.2,1.5-0.2,3.1v2.8H426.5z"/>
<path d="M431.1,71.8v-2.3h2.5v2.3H431.1z M431.1,82.4v-9.3h2.5v9.3H431.1z"/>
<path d="M435.2,79.7l2.5-0.4c0.1,0.5,0.3,0.8,0.6,1.1s0.8,0.4,1.4,0.4s1.1-0.1,1.4-0.4c0.2-0.2,0.3-0.4,0.3-0.7
	c0-0.2-0.1-0.3-0.2-0.5c-0.1-0.1-0.4-0.2-0.8-0.3c-2-0.4-3.3-0.8-3.8-1.2c-0.7-0.5-1.1-1.2-1.1-2.1c0-0.8,0.3-1.5,1-2s1.6-0.8,3-0.8
	c1.3,0,2.2,0.2,2.8,0.6s1,1,1.3,1.8l-2.3,0.4c-0.1-0.4-0.3-0.6-0.6-0.8s-0.7-0.3-1.2-0.3c-0.7,0-1.1,0.1-1.4,0.3
	c-0.2,0.1-0.3,0.3-0.3,0.5s0.1,0.3,0.2,0.4c0.2,0.2,1,0.4,2.3,0.7s2.2,0.7,2.8,1.1c0.5,0.4,0.8,1.1,0.8,1.8c0,0.9-0.4,1.6-1.1,2.2
	s-1.8,0.9-3.2,0.9c-1.3,0-2.3-0.3-3-0.8S435.5,80.6,435.2,79.7z"/>
<path d="M451.5,79.4l2.5,0.4c-0.3,0.9-0.8,1.6-1.5,2.1s-1.5,0.7-2.6,0.7c-1.6,0-2.8-0.5-3.6-1.6c-0.6-0.8-0.9-1.9-0.9-3.2
	c0-1.5,0.4-2.8,1.2-3.6s1.8-1.3,3.1-1.3c1.4,0,2.5,0.5,3.3,1.4s1.2,2.3,1.2,4.2H448c0,0.7,0.2,1.3,0.6,1.7s0.9,0.6,1.4,0.6
	c0.4,0,0.7-0.1,1-0.3S451.4,79.9,451.5,79.4z M451.6,76.9c0-0.7-0.2-1.3-0.6-1.6s-0.8-0.6-1.3-0.6s-1,0.2-1.3,0.6s-0.5,0.9-0.5,1.6
	H451.6z"/>
<path d="M388.7,97.4l-2.4,0.4c-0.1-0.5-0.3-0.9-0.6-1.1s-0.7-0.4-1.1-0.4c-0.6,0-1.1,0.2-1.5,0.6s-0.6,1.3-0.6,2.3
	c0,1.1,0.2,1.9,0.6,2.3s0.9,0.7,1.5,0.7c0.5,0,0.9-0.1,1.2-0.4s0.5-0.7,0.6-1.4l2.4,0.4c-0.3,1.1-0.7,2-1.5,2.5s-1.7,0.9-2.9,0.9
	c-1.4,0-2.5-0.4-3.3-1.3s-1.2-2.1-1.2-3.6s0.4-2.7,1.2-3.6s1.9-1.3,3.3-1.3c1.1,0,2,0.2,2.7,0.7S388.4,96.4,388.7,97.4z"/>
<path d="M392.4,97.5l-2.2-0.4c0.3-0.9,0.7-1.6,1.3-2s1.5-0.7,2.7-0.7c1.1,0,1.9,0.1,2.5,0.4s0.9,0.6,1.1,1s0.3,1.1,0.3,2.2v2.9
	c0,0.8,0,1.4,0.1,1.8s0.2,0.8,0.4,1.3h-2.4c-0.1-0.2-0.1-0.4-0.2-0.7c0-0.1-0.1-0.2-0.1-0.3c-0.4,0.4-0.9,0.7-1.4,0.9
	s-1,0.3-1.5,0.3c-1,0-1.7-0.3-2.3-0.8s-0.8-1.2-0.8-2c0-0.5,0.1-1,0.4-1.4s0.6-0.7,1.1-0.9s1.1-0.4,2-0.6c1.2-0.2,2-0.4,2.4-0.6
	v-0.2c0-0.5-0.1-0.8-0.4-1s-0.7-0.3-1.3-0.3c-0.4,0-0.8,0.1-1,0.3S392.5,97.1,392.4,97.5z M395.7,99.5c-0.3,0.1-0.8,0.2-1.5,0.4
	s-1.1,0.3-1.3,0.4c-0.3,0.2-0.5,0.5-0.5,0.9c0,0.3,0.1,0.6,0.4,0.9s0.6,0.4,1,0.4s0.9-0.1,1.3-0.4c0.3-0.2,0.5-0.5,0.6-0.8
	c0.1-0.2,0.1-0.6,0.1-1.2v-0.6C395.8,99.5,395.7,99.5,395.7,99.5z"/>
<path d="M400.4,94.7h2.3v1.4c0.3-0.5,0.7-0.8,1.2-1.1s1.1-0.4,1.7-0.4c1.1,0,2,0.4,2.8,1.3s1.1,2,1.1,3.6s-0.4,2.8-1.1,3.6
	s-1.7,1.3-2.8,1.3c-0.5,0-1-0.1-1.4-0.3s-0.9-0.6-1.3-1.1v4.7h-2.5L400.4,94.7L400.4,94.7z M402.9,99.2c0,1,0.2,1.8,0.6,2.3
	s0.9,0.8,1.5,0.8s1.1-0.2,1.4-0.7s0.6-1.2,0.6-2.3c0-1-0.2-1.7-0.6-2.2s-0.9-0.7-1.5-0.7s-1.1,0.2-1.5,0.7S402.9,98.2,402.9,99.2z"
	/>
<path d="M411.5,93.4v-2.3h2.5v2.3H411.5z M411.5,104v-9.3h2.5v9.3H411.5z"/>
<path d="M416.6,104V91.1h2.5V104H416.6z"/>
<path d="M421.6,104V91.1h2.5V104H421.6z"/>
<path d="M428.5,97.5l-2.2-0.4c0.3-0.9,0.7-1.6,1.3-2s1.5-0.7,2.7-0.7c1.1,0,1.9,0.1,2.5,0.4s0.9,0.6,1.1,1s0.3,1.1,0.3,2.2v2.9
	c0,0.8,0,1.4,0.1,1.8s0.2,0.8,0.4,1.3h-2.4c-0.1-0.2-0.1-0.4-0.2-0.7c0-0.1-0.1-0.2-0.1-0.3c-0.4,0.4-0.9,0.7-1.4,0.9
	s-1,0.3-1.5,0.3c-1,0-1.7-0.3-2.3-0.8s-0.8-1.2-0.8-2c0-0.5,0.1-1,0.4-1.4s0.6-0.7,1.1-0.9s1.1-0.4,2-0.6c1.2-0.2,2-0.4,2.4-0.6
	v-0.2c0-0.5-0.1-0.8-0.4-1s-0.7-0.3-1.3-0.3c-0.4,0-0.8,0.1-1,0.3S428.6,97.1,428.5,97.5z M431.8,99.5c-0.3,0.1-0.8,0.2-1.5,0.4
	s-1.1,0.3-1.3,0.4c-0.3,0.2-0.5,0.5-0.5,0.9c0,0.3,0.1,0.6,0.4,0.9s0.6,0.4,1,0.4s0.9-0.1,1.3-0.4c0.3-0.2,0.5-0.5,0.6-0.8
	c0.1-0.2,0.1-0.6,0.1-1.2L431.8,99.5L431.8,99.5z"/>
<path d="M436.6,93.4v-2.3h2.5v2.3H436.6z M436.6,104v-9.3h2.5v9.3H436.6z"/>
<path d="M444,104h-2.5v-9.3h2.3V96c0.4-0.6,0.7-1,1.1-1.2s0.7-0.3,1.1-0.3c0.6,0,1.1,0.2,1.6,0.5l-0.8,2.2c-0.4-0.3-0.8-0.4-1.2-0.4
	c-0.3,0-0.6,0.1-0.9,0.3s-0.4,0.5-0.6,1s-0.2,1.5-0.2,3.1v2.8H444z"/>
<path d="M454,101l2.5,0.4c-0.3,0.9-0.8,1.6-1.5,2.1s-1.5,0.7-2.6,0.7c-1.6,0-2.8-0.5-3.6-1.6c-0.6-0.8-0.9-1.9-0.9-3.2
	c0-1.5,0.4-2.8,1.2-3.6s1.8-1.3,3.1-1.3c1.4,0,2.5,0.5,3.3,1.4s1.2,2.3,1.2,4.2h-6.2c0,0.7,0.2,1.3,0.6,1.7s0.9,0.6,1.4,0.6
	c0.4,0,0.7-0.1,1-0.3S453.9,101.5,454,101z M454.2,98.5c0-0.7-0.2-1.3-0.6-1.6s-0.8-0.6-1.3-0.6s-1,0.2-1.3,0.6s-0.5,0.9-0.5,1.6
	H454.2z"/>
<path d="M676.6,167.7l2.5-0.2c0.2,0.8,0.5,1.5,0.9,1.9s1.1,0.6,1.9,0.6c0.8,0,1.5-0.2,1.9-0.5s0.6-0.8,0.6-1.2
	c0-0.3-0.1-0.6-0.3-0.8s-0.5-0.4-0.9-0.6c-0.3-0.1-1-0.3-2.1-0.6c-1.4-0.3-2.4-0.8-2.9-1.3c-0.8-0.7-1.2-1.6-1.2-2.6
	c0-0.7,0.2-1.3,0.6-1.8s0.9-1,1.6-1.3c0.7-0.3,1.5-0.4,2.5-0.4c1.6,0,2.8,0.4,3.7,1.1c0.9,0.7,1.2,1.7,1.3,2.8l-2.6,0.1
	c-0.1-0.7-0.4-1.1-0.7-1.4c-0.3-0.3-0.9-0.4-1.6-0.4c-0.8,0-1.3,0.2-1.8,0.5c-0.3,0.2-0.4,0.5-0.4,0.8s0.1,0.6,0.4,0.8
	c0.3,0.3,1.1,0.6,2.4,0.9c1.3,0.3,2.2,0.6,2.8,0.9s1.1,0.8,1.4,1.3s0.5,1.2,0.5,2.1c0,0.7-0.2,1.4-0.6,2.1s-1,1.1-1.7,1.4
	c-0.7,0.3-1.7,0.5-2.8,0.5c-1.6,0-2.9-0.4-3.8-1.1S676.7,169.1,676.6,167.7z"/>
<path d="M695.4,171.8v-1.4c-0.3,0.5-0.8,0.9-1.3,1.2s-1.1,0.4-1.8,0.4c-0.6,0-1.2-0.1-1.7-0.4c-0.5-0.3-0.9-0.7-1.1-1.2
	s-0.3-1.2-0.3-2.1v-5.9h2.5v4.3c0,1.3,0,2.1,0.1,2.4s0.3,0.5,0.5,0.7s0.5,0.3,0.9,0.3s0.8-0.1,1.1-0.3s0.6-0.5,0.7-0.9
	c0.1-0.4,0.2-1.2,0.2-2.5v-3.9h2.5v9.3L695.4,171.8L695.4,171.8z"/>
<path d="M702.6,171.8h-2.5v-9.3h2.3v1.3c0.4-0.6,0.7-1,1.1-1.2s0.7-0.3,1.1-0.3c0.6,0,1.1,0.2,1.6,0.5l-0.8,2.2
	c-0.4-0.3-0.8-0.4-1.2-0.4c-0.3,0-0.6,0.1-0.9,0.3c-0.3,0.2-0.4,0.5-0.6,1s-0.2,1.5-0.2,3.1v2.8L702.6,171.8L702.6,171.8z"/>
<path d="M707.2,162.5h2.3v1.4c0.3-0.5,0.7-0.8,1.2-1.1s1.1-0.4,1.7-0.4c1.1,0,2,0.4,2.8,1.3c0.8,0.9,1.1,2,1.1,3.6s-0.4,2.8-1.1,3.6
	c-0.7,0.8-1.7,1.3-2.8,1.3c-0.5,0-1-0.1-1.4-0.3s-0.9-0.6-1.3-1.1v4.7h-2.5V162.5z M709.6,167c0,1,0.2,1.8,0.6,2.3s0.9,0.8,1.5,0.8
	s1.1-0.2,1.4-0.7s0.6-1.2,0.6-2.3c0-1-0.2-1.7-0.6-2.2s-0.9-0.7-1.5-0.7s-1.1,0.2-1.5,0.7S709.6,166.1,709.6,167z"/>
<path d="M720.6,171.8h-2.5v-9.3h2.3v1.3c0.4-0.6,0.7-1,1.1-1.2s0.7-0.3,1.1-0.3c0.6,0,1.1,0.2,1.6,0.5l-0.8,2.2
	c-0.4-0.3-0.8-0.4-1.2-0.4c-0.3,0-0.6,0.1-0.9,0.3c-0.3,0.2-0.4,0.5-0.6,1s-0.2,1.5-0.2,3.1v2.8L720.6,171.8L720.6,171.8z"/>
<path d="M725.2,161.2V159h2.5v2.3h-2.5V161.2z M725.2,171.8v-9.3h2.5v9.3H725.2z"/>
<path d="M729.4,169.2l2.5-0.4c0.1,0.5,0.3,0.8,0.6,1.1s0.8,0.4,1.4,0.4c0.6,0,1.1-0.1,1.4-0.4c0.2-0.2,0.3-0.4,0.3-0.7
	c0-0.2-0.1-0.3-0.2-0.5c-0.1-0.1-0.4-0.2-0.8-0.3c-2-0.4-3.3-0.8-3.8-1.2c-0.7-0.5-1.1-1.2-1.1-2.1c0-0.8,0.3-1.5,1-2s1.6-0.8,3-0.8
	c1.3,0,2.2,0.2,2.8,0.6s1,1,1.3,1.8l-2.3,0.4c-0.1-0.4-0.3-0.6-0.6-0.8s-0.7-0.3-1.2-0.3c-0.7,0-1.1,0.1-1.4,0.3
	c-0.2,0.1-0.3,0.3-0.3,0.5s0.1,0.3,0.2,0.4c0.2,0.2,1,0.4,2.3,0.7s2.2,0.7,2.8,1.1c0.5,0.4,0.8,1.1,0.8,1.8c0,0.9-0.4,1.6-1.1,2.2
	c-0.7,0.6-1.8,0.9-3.2,0.9c-1.3,0-2.3-0.3-3-0.8S729.6,170.1,729.4,169.2z"/>
<path d="M745.6,168.9l2.5,0.4c-0.3,0.9-0.8,1.6-1.5,2.1s-1.5,0.7-2.6,0.7c-1.6,0-2.8-0.5-3.6-1.6c-0.6-0.8-0.9-1.9-0.9-3.2
	c0-1.5,0.4-2.8,1.2-3.6s1.8-1.3,3.1-1.3c1.4,0,2.5,0.5,3.3,1.4s1.2,2.3,1.2,4.2H742c0,0.7,0.2,1.3,0.6,1.7s0.9,0.6,1.4,0.6
	c0.4,0,0.7-0.1,1-0.3C745.3,169.8,745.5,169.3,745.6,168.9z M745.8,166.4c0-0.7-0.2-1.3-0.6-1.6s-0.8-0.6-1.3-0.6s-1,0.2-1.3,0.6
	s-0.5,0.9-0.5,1.6H745.8z"/>
<path d="M685.7,193.4h-2.5v-4.8c0-1-0.1-1.7-0.2-2s-0.3-0.5-0.5-0.7s-0.5-0.2-0.9-0.2s-0.8,0.1-1.2,0.4s-0.6,0.5-0.7,0.9
	s-0.2,1.1-0.2,2.1v4.2H677V184h2.3v1.4c0.8-1.1,1.8-1.6,3.1-1.6c0.5,0,1,0.1,1.5,0.3s0.8,0.4,1,0.8s0.4,0.7,0.5,1s0.1,0.9,0.1,1.7
	v5.8H685.7z"/>
<path d="M694.4,193.4V192c-0.3,0.5-0.8,0.9-1.3,1.2s-1.1,0.4-1.8,0.4c-0.6,0-1.2-0.1-1.7-0.4s-0.9-0.7-1.1-1.2s-0.3-1.2-0.3-2.1V184
	h2.5v4.3c0,1.3,0,2.1,0.1,2.4s0.3,0.5,0.5,0.7s0.5,0.3,0.9,0.3s0.8-0.1,1.1-0.3s0.6-0.5,0.7-0.9s0.2-1.2,0.2-2.5v-3.9h2.5v9.3
	L694.4,193.4L694.4,193.4z"/>
<path d="M703.6,184.1v2h-1.7v3.8c0,0.8,0,1.2,0,1.3s0.1,0.2,0.2,0.3s0.3,0.1,0.4,0.1c0.2,0,0.6-0.1,1-0.2l0.2,1.9
	c-0.6,0.2-1.2,0.4-2,0.4c-0.4,0-0.8-0.1-1.2-0.2s-0.6-0.3-0.8-0.6s-0.3-0.6-0.3-1c-0.1-0.3-0.1-0.9-0.1-1.7v-4.1h-1.1v-2h1.1v-1.9
	l2.5-1.4v3.3L703.6,184.1L703.6,184.1z"/>
<path d="M707.7,193.4h-2.5v-9.3h2.3v1.3c0.4-0.6,0.7-1,1.1-1.2s0.7-0.3,1.1-0.3c0.6,0,1.1,0.2,1.6,0.5l-0.8,2.2
	c-0.4-0.3-0.8-0.4-1.2-0.4c-0.3,0-0.6,0.1-0.9,0.3s-0.4,0.5-0.6,1s-0.2,1.5-0.2,3.1v2.8L707.7,193.4L707.7,193.4z"/>
<path d="M712.3,182.8v-2.3h2.5v2.3H712.3z M712.3,193.4v-9.3h2.5v9.3H712.3z"/>
<path d="M721.6,184.1v2h-1.7v3.8c0,0.8,0,1.2,0,1.3s0.1,0.2,0.2,0.3s0.3,0.1,0.4,0.1c0.2,0,0.6-0.1,1-0.2l0.2,1.9
	c-0.6,0.2-1.2,0.4-2,0.4c-0.4,0-0.8-0.1-1.2-0.2s-0.6-0.3-0.8-0.6s-0.3-0.6-0.3-1c-0.1-0.3-0.1-0.9-0.1-1.7v-4.1h-1.1v-2h1.1v-1.9
	l2.5-1.4v3.3L721.6,184.1L721.6,184.1z"/>
<path d="M723.3,182.8v-2.3h2.5v2.3H723.3z M723.3,193.4v-9.3h2.5v9.3H723.3z"/>
<path d="M727.8,188.6c0-0.8,0.2-1.6,0.6-2.4s1-1.4,1.7-1.8s1.6-0.6,2.5-0.6c1.4,0,2.6,0.5,3.5,1.4s1.4,2.1,1.4,3.5s-0.5,2.6-1.4,3.5
	s-2.1,1.4-3.4,1.4c-0.9,0-1.7-0.2-2.4-0.6s-1.4-1-1.8-1.7S727.8,189.7,727.8,188.6z M730.3,188.8c0,0.9,0.2,1.6,0.7,2.1
	s1,0.7,1.6,0.7s1.2-0.2,1.6-0.7s0.7-1.2,0.7-2.1c0-0.9-0.2-1.6-0.7-2.1s-1-0.7-1.6-0.7s-1.2,0.2-1.6,0.7S730.3,187.8,730.3,188.8z"
	/>
<path d="M747.8,193.4h-2.5v-4.8c0-1-0.1-1.7-0.2-2s-0.3-0.5-0.5-0.7s-0.5-0.2-0.9-0.2s-0.8,0.1-1.2,0.4s-0.6,0.5-0.7,0.9
	s-0.2,1.1-0.2,2.1v4.2h-2.5V184h2.3v1.4c0.8-1.1,1.8-1.6,3.1-1.6c0.5,0,1,0.1,1.5,0.3s0.8,0.4,1,0.8s0.4,0.7,0.5,1s0.1,0.9,0.1,1.7
	v5.8H747.8z"/>
<path d="M661.5,343.9l2.5-0.2c0.2,0.8,0.5,1.5,0.9,1.9c0.4,0.4,1.1,0.6,1.9,0.6s1.5-0.2,1.9-0.5c0.4-0.3,0.6-0.8,0.6-1.2
	c0-0.3-0.1-0.6-0.3-0.8s-0.5-0.4-0.9-0.6c-0.3-0.1-1-0.3-2.1-0.6c-1.4-0.3-2.4-0.8-2.9-1.3c-0.8-0.7-1.2-1.6-1.2-2.6
	c0-0.7,0.2-1.3,0.6-1.8c0.4-0.6,0.9-1,1.6-1.3c0.7-0.3,1.5-0.4,2.5-0.4c1.6,0,2.8,0.4,3.7,1.1s1.2,1.7,1.3,2.8H669
	c-0.1-0.7-0.4-1.1-0.7-1.4c-0.4-0.3-0.9-0.4-1.6-0.4c-0.8,0-1.3,0.2-1.8,0.5c-0.3,0.2-0.4,0.5-0.4,0.8s0.1,0.6,0.4,0.8
	c0.3,0.3,1.1,0.6,2.4,0.9s2.2,0.6,2.8,0.9s1.1,0.8,1.4,1.3c0.3,0.6,0.5,1.2,0.5,2.1c0,0.7-0.2,1.4-0.6,2.1s-1,1.1-1.7,1.4
	c-0.8,0.3-1.7,0.5-2.8,0.5c-1.6,0-2.9-0.4-3.8-1.1S661.7,345.4,661.5,343.9z"/>
<path d="M680.3,348.1v-1.4c-0.3,0.5-0.8,0.9-1.3,1.2s-1.1,0.4-1.8,0.4c-0.6,0-1.2-0.1-1.7-0.4s-0.9-0.7-1.1-1.2
	c-0.2-0.5-0.3-1.2-0.3-2.1v-5.9h2.5v4.3c0,1.3,0,2.1,0.1,2.4s0.3,0.5,0.5,0.7s0.5,0.3,0.9,0.3s0.8-0.1,1.1-0.3
	c0.3-0.2,0.6-0.5,0.7-0.9c0.1-0.3,0.2-1.2,0.2-2.5v-3.9h2.5v9.3H680.3z"/>
<path d="M687.6,348.1h-2.5v-9.3h2.3v1.3c0.4-0.6,0.7-1,1.1-1.2s0.7-0.3,1.1-0.3c0.6,0,1.1,0.2,1.6,0.5l-0.8,2.2
	c-0.4-0.3-0.8-0.4-1.2-0.4c-0.3,0-0.6,0.1-0.9,0.3c-0.2,0.2-0.4,0.5-0.6,1s-0.2,1.5-0.2,3.1v2.8H687.6z"/>
<path d="M692.1,338.8h2.3v1.4c0.3-0.5,0.7-0.8,1.2-1.1s1.1-0.4,1.7-0.4c1.1,0,2,0.4,2.8,1.3s1.1,2,1.1,3.6s-0.4,2.8-1.1,3.6
	c-0.8,0.9-1.7,1.3-2.8,1.3c-0.5,0-1-0.1-1.4-0.3s-0.9-0.6-1.3-1.1v4.7h-2.5V338.8z M694.6,343.3c0,1,0.2,1.8,0.6,2.3
	c0.4,0.5,0.9,0.8,1.5,0.8s1.1-0.2,1.4-0.7c0.4-0.5,0.6-1.2,0.6-2.3c0-1-0.2-1.7-0.6-2.2s-0.9-0.7-1.5-0.7s-1.1,0.2-1.5,0.7
	C694.8,341.7,694.6,342.4,694.6,343.3z"/>
<path d="M705.6,348.1h-2.5v-9.3h2.3v1.3c0.4-0.6,0.7-1,1.1-1.2s0.7-0.3,1.1-0.3c0.6,0,1.1,0.2,1.6,0.5l-0.8,2.2
	c-0.4-0.3-0.8-0.4-1.2-0.4c-0.3,0-0.6,0.1-0.9,0.3c-0.2,0.2-0.4,0.5-0.6,1s-0.2,1.5-0.2,3.1v2.8H705.6z"/>
<path d="M710.2,337.5v-2.3h2.5v2.3H710.2z M710.2,348.1v-9.3h2.5v9.3H710.2z"/>
<path d="M714.4,345.5l2.5-0.4c0.1,0.5,0.3,0.8,0.6,1.1c0.3,0.2,0.8,0.4,1.4,0.4c0.6,0,1.1-0.1,1.4-0.4c0.2-0.2,0.3-0.4,0.3-0.7
	c0-0.2-0.1-0.3-0.2-0.5c-0.1-0.1-0.4-0.2-0.8-0.3c-2-0.4-3.3-0.8-3.8-1.2c-0.7-0.5-1.1-1.2-1.1-2.1c0-0.8,0.3-1.5,1-2s1.6-0.8,3-0.8
	c1.3,0,2.2,0.2,2.8,0.6s1,1,1.3,1.8l-2.3,0.4c-0.1-0.4-0.3-0.6-0.6-0.8s-0.7-0.3-1.2-0.3c-0.7,0-1.1,0.1-1.4,0.3
	c-0.2,0.1-0.3,0.3-0.3,0.5s0.1,0.3,0.2,0.4c0.2,0.2,1,0.4,2.3,0.7s2.2,0.7,2.8,1.1c0.5,0.4,0.8,1.1,0.8,1.8c0,0.9-0.4,1.6-1.1,2.2
	s-1.8,0.9-3.2,0.9c-1.3,0-2.3-0.3-3-0.8S714.6,346.3,714.4,345.5z"/>
<path d="M730.6,345.1l2.5,0.4c-0.3,0.9-0.8,1.6-1.5,2.1s-1.5,0.7-2.6,0.7c-1.6,0-2.8-0.5-3.6-1.6c-0.6-0.8-0.9-1.9-0.9-3.2
	c0-1.5,0.4-2.8,1.2-3.6s1.8-1.3,3.1-1.3c1.4,0,2.5,0.5,3.3,1.4s1.2,2.3,1.2,4.2H727c0,0.7,0.2,1.3,0.6,1.7c0.4,0.4,0.9,0.6,1.4,0.6
	c0.4,0,0.7-0.1,1-0.3S730.5,345.6,730.6,345.1z M730.7,342.6c0-0.7-0.2-1.3-0.6-1.6c-0.4-0.4-0.8-0.6-1.3-0.6s-1,0.2-1.3,0.6
	s-0.5,0.9-0.5,1.6H730.7z"/>
<path d="M662.2,369.7v-12.9h9.6v2.2h-7v2.9h6.5v2.2h-6.5v3.5h7.2v2.2h-9.8L662.2,369.7L662.2,369.7z"/>
<path d="M676.5,369.7H674v-9.3h2.3v1.3c0.4-0.6,0.7-1,1.1-1.2c0.4-0.2,0.7-0.3,1.1-0.3c0.6,0,1.1,0.2,1.6,0.5l-0.8,2.2
	c-0.4-0.3-0.8-0.4-1.2-0.4c-0.3,0-0.6,0.1-0.9,0.3c-0.2,0.2-0.4,0.5-0.6,1c-0.2,0.5-0.2,1.5-0.2,3.1L676.5,369.7L676.5,369.7z"/>
<path d="M680.9,370.3l2.8,0.3c0,0.3,0.2,0.6,0.3,0.7c0.2,0.2,0.6,0.3,1.1,0.3c0.6,0,1.1-0.1,1.5-0.3c0.2-0.1,0.4-0.3,0.5-0.6
	c0.1-0.2,0.1-0.6,0.1-1.1v-1.4c-0.7,1-1.7,1.5-2.8,1.5c-1.3,0-2.2-0.5-3-1.6c-0.6-0.8-0.9-1.9-0.9-3.1c0-1.6,0.4-2.8,1.1-3.6
	c0.7-0.8,1.7-1.2,2.8-1.2c1.2,0,2.1,0.5,2.9,1.5v-1.3h2.3v8.4c0,1.1-0.1,1.9-0.3,2.5s-0.4,1-0.8,1.3s-0.8,0.6-1.3,0.7
	s-1.2,0.3-2.1,0.3c-1.6,0-2.7-0.3-3.4-0.8s-1-1.2-1-2.1C680.9,370.6,680.9,370.5,680.9,370.3z M683.1,364.9c0,1,0.2,1.7,0.6,2.2
	s0.9,0.7,1.4,0.7c0.6,0,1.1-0.2,1.5-0.7c0.4-0.5,0.6-1.2,0.6-2.1c0-1-0.2-1.7-0.6-2.2c-0.4-0.5-0.9-0.7-1.5-0.7
	c-0.6,0-1.1,0.2-1.5,0.7C683.2,363.3,683.1,363.9,683.1,364.9z"/>
<path d="M691,360.4h2.6l2.2,6.6l2.2-6.6h2.6l-3.3,9l-0.6,1.6c-0.2,0.5-0.4,1-0.6,1.2s-0.4,0.5-0.7,0.7s-0.6,0.3-0.9,0.4
	c-0.3,0.1-0.8,0.1-1.3,0.1s-0.9,0-1.4-0.1l-0.2-1.9c0.4,0.1,0.7,0.1,1,0.1c0.6,0,1-0.2,1.3-0.5s0.5-0.8,0.6-1.3L691,360.4z"/>
<path d="M701.9,360.4h2.3v1.4c0.3-0.5,0.7-0.8,1.2-1.1s1.1-0.4,1.7-0.4c1.1,0,2,0.4,2.8,1.3s1.1,2,1.1,3.6s-0.4,2.8-1.1,3.6
	c-0.8,0.9-1.7,1.3-2.8,1.3c-0.5,0-1-0.1-1.4-0.3s-0.9-0.6-1.3-1.1v4.7h-2.5V360.4z M704.4,364.9c0,1,0.2,1.8,0.6,2.3
	c0.4,0.5,0.9,0.8,1.5,0.8s1.1-0.2,1.4-0.7c0.4-0.5,0.6-1.2,0.6-2.3c0-1-0.2-1.7-0.6-2.2s-0.9-0.7-1.5-0.7s-1.1,0.2-1.5,0.7
	C704.6,363.3,704.4,364,704.4,364.9z"/>
<path d="M715.5,356.8v4.7c0.8-0.9,1.7-1.4,2.9-1.4c0.6,0,1.1,0.1,1.5,0.3s0.8,0.5,1,0.8s0.4,0.7,0.5,1.1s0.1,1,0.1,1.9v5.5H719v-4.9
	c0-1,0-1.6-0.1-1.9s-0.3-0.5-0.5-0.6s-0.5-0.2-0.9-0.2s-0.8,0.1-1.1,0.3s-0.6,0.5-0.7,0.9s-0.2,1-0.2,1.8v4.7H713v-12.9L715.5,356.8
	L715.5,356.8z"/>
<path d="M724.1,359.1v-2.3h2.5v2.3H724.1z M724.1,369.7v-9.3h2.5v9.3H724.1z"/>
<path d="M729.1,369.7v-12.9h2.5v12.9H729.1z"/>
<path d="M740.3,369.7v-1.4c-0.3,0.5-0.8,0.9-1.3,1.2s-1.1,0.4-1.8,0.4c-0.6,0-1.2-0.1-1.7-0.4s-0.9-0.7-1.1-1.2s-0.3-1.2-0.3-2.1
	v-5.9h2.5v4.3c0,1.3,0,2.1,0.1,2.4s0.3,0.5,0.5,0.7s0.5,0.3,0.9,0.3s0.8-0.1,1.1-0.3c0.3-0.2,0.6-0.5,0.7-0.9
	c0.1-0.3,0.2-1.2,0.2-2.5v-3.9h2.5v9.3H740.3z"/>
<path d="M744.3,367.1l2.5-0.4c0.1,0.5,0.3,0.8,0.6,1.1c0.3,0.2,0.8,0.4,1.4,0.4c0.6,0,1.1-0.1,1.4-0.4c0.2-0.2,0.3-0.4,0.3-0.7
	c0-0.2-0.1-0.3-0.2-0.5c-0.1-0.1-0.4-0.2-0.8-0.3c-2-0.4-3.3-0.8-3.8-1.2c-0.7-0.5-1.1-1.2-1.1-2.1c0-0.8,0.3-1.5,1-2s1.6-0.8,3-0.8
	c1.3,0,2.2,0.2,2.8,0.6s1,1,1.3,1.8l-2.3,0.4c-0.1-0.4-0.3-0.6-0.6-0.8s-0.7-0.3-1.2-0.3c-0.7,0-1.1,0.1-1.4,0.3
	c-0.2,0.1-0.3,0.3-0.3,0.5s0.1,0.3,0.2,0.4c0.2,0.2,1,0.4,2.3,0.7s2.2,0.7,2.8,1.1c0.5,0.4,0.8,1.1,0.8,1.8c0,0.9-0.4,1.6-1.1,2.2
	s-1.8,0.9-3.2,0.9c-1.3,0-2.3-0.3-3-0.8S744.5,367.9,744.3,367.1z"/>
<g>
	<rect x="385.5" y="518.4" class="st6" width="60.8" height="11.3"/>
	<rect x="385.5" y="540.1" class="st6" width="60.8" height="11.3"/>
</g>
<g>
	<g>
		<path class="st6" d="M234.6,638v-17.8h65.7V634c-5.4,5.4-10.9,13-16.5,22.9c-5.6,9.9-9.8,20.5-12.8,31.8
			c-2.9,11.2-4.4,21.3-4.4,30.1h-18.6c0.3-13.9,3.2-27.9,8.6-42.3c5.4-14.4,12.5-27.2,21.6-38.6L234.6,638L234.6,638z"/>
		<path class="st6" d="M301.8,699.6H321v13.7c0,5.6-0.5,10-1.4,13.1c-0.9,3.2-2.7,6.1-5.4,8.6c-2.6,2.6-6.1,4.5-10.1,6l-3.8-7.9
			c3.8-1.3,6.6-3,8.3-5.3c1.6-2.3,2.6-5.3,2.6-9.1h-9.3L301.8,699.6L301.8,699.6z"/>
		<path class="st6" d="M369.9,718.9h-19.2v-72.3c-7,6.6-15.3,11.5-24.8,14.6v-17.4c5-1.6,10.4-4.8,16.3-9.3s10-10,12.1-16h15.6
			V718.9L369.9,718.9z"/>
		<path class="st6" d="M421.1,718.9V618.8h30.2l18.1,68.2l18-68.2h30.3v100.1h-18.7v-78.8l-19.9,78.8h-19.5l-19.8-78.8v78.8
			L421.1,718.9L421.1,718.9z"/>
	</g>
	<g>
		<path class="st6" d="M588.7,642.4c-6.5-4.1-12.4-6.2-18.1-6.2c-9.8,0-16.2,6.4-19.3,18.9H585l-4.3,10h-31l-0.1,5.8H579l-4.3,10
			h-24c2.9,14.5,9.7,21.8,20.5,21.8c6.9,0,14-2.9,21.3-8.7l-0.1,20.9c-6.4,3.7-13.4,5.5-21.3,5.5c-11.6,0-21-3.7-28.1-11.3
			c-6.5-6.9-10.6-16.3-12.6-28.2h-10.6l4.3-10h5.5c0-2.9,0-4.8,0.1-5.8h-10.1l4.3-10h7c2.2-11.1,6.8-19.9,13.7-26.4
			c7.3-7,16.4-10.5,27.4-10.5c7.9,0,16.3,2.3,25.2,6.9L588.7,642.4z"/>
	</g>
</g>
</svg>
