<?xml version="1.0" encoding="UTF-8"?>
<svg id="Calque_1" data-name="Calque 1" xmlns="http://www.w3.org/2000/svg" version="1.1" viewBox="0 0 1395.5 1000">
  <defs>
    <style>
      .cls-1 {
        fill: #0069b4;
        stroke-width: 0px;
      }
    </style>
  </defs>
  <path class="cls-1" d="M11.7,703.4c3.8-16.7,6.5-33.8,11.7-50.1,21.2-65.9,62.5-115.4,123.6-148.1,6.3-3.3,9.1-6.4,7.9-14.1-17.9-125.1,61.5-246.3,183.1-280.5,35.1-9.9,70.5-13.3,106.5-7.9,7.9,1.2,11.5-1.3,15-8.5,58.6-118.5,175.8-184.9,307.4-174.6,137.8,10.7,257.1,121.8,277.4,258.4,1.4,9.3,3.4,14.6,14.8,15.5,153.4,12.3,284.6,136.5,310.5,289,30.5,180.2-98.3,372.5-301.5,397.9-15.8,2-31.8,2.9-47.7,2.9-249.2.2-498.4.5-747.6,0-124.2-.2-225.6-80.6-254.3-199.8-2.6-10.7-4.5-21.5-6.8-32.3,0-16,0-31.9,0-47.9ZM649.2,927c122.8,0,245.7.9,368.5-.6,31.5-.4,64.1-4.5,94.1-13.7,143.6-43.8,230.2-191.2,198.6-335.3-27.6-125.7-139-226.9-283.3-229.8-26.8-.5-34.8-8.6-36.1-34.9-6.8-129.4-115.9-235-245.4-237.4-109.8-2.1-204.5,62.3-244,165.9-8.1,21.3-18.9,25.5-41.4,22.5-25.2-3.4-51.2-6.7-76.4-4.3-114.3,10.8-196.9,128.5-169.7,239.5,7.2,29.4,3.4,36.9-25,48.7-84.9,35.5-134.4,127.1-116.8,216.2,18.8,95,100.5,162.8,197.6,163.1,126.4.4,252.8,0,379.2,0Z"/>
  <path class="cls-1" d="M867.2,558.8c1.1,73.1-58.3,133.9-132.3,135.3-74.3,1.4-136.1-59-136.8-133.7-.6-73.4,58.5-133.8,132.5-135.4,74.3-1.6,135.4,58.3,136.6,133.8ZM732.8,482c-43.3,0-77.5,34.2-77.5,77.5,0,43.3,34.3,77.6,77.5,77.6,43.2,0,77.5-34.4,77.6-77.5.1-43.1-34.4-77.5-77.6-77.5Z"/>
  <path class="cls-1" d="M476.3,428.6c41.1.5,73.4,13.9,99.9,40.7,13.5,13.6,14.5,30.7,3.3,42.5-11.6,12.2-29.1,11.3-43.4-2.5-23-22.3-50-30-80.5-20.2-28.8,9.2-46.7,29.6-52.9,59.4-6.8,32.7,8.2,66,37,82.9,28.3,16.7,64.1,14,89.5-6.9,3.8-3.1,7.1-6.7,10.8-9.9,12.3-10.6,28.9-10.5,39.6.2,10.7,10.7,11.2,27.5.4,39.6-22.2,24.7-50,39.6-82.9,43.3-75.8,8.7-140.3-41.4-151.6-116.8-10.4-69.6,38.5-136.2,110.6-150.2,7.8-1.5,15.8-1.7,20.4-2.2Z"/>
  <path class="cls-1" d="M987.2,721.3c14.2,0,23.9-.5,33.6.1,15.2,1,25.8,11.9,26.4,26.5.7,14.9-9.7,28.9-25,29.2-39.4,1-78.9.8-118.4,0-12-.2-20.8-8.2-23.9-20-3.6-13.3,1.3-23.7,12.2-32.5,22-17.8,43.8-35.9,64.4-55.3,8.1-7.6,14.2-18.2,18.7-28.6,5.6-12.9-2.7-22.7-16.4-19.6-8.7,2-17.2,6.7-24.8,11.8-16.1,10.9-32.2,10.4-42.6-2.7-10.5-13.3-8-29.7,7.2-41.9,21.5-17.3,45.6-27.3,73.7-24.1,41.9,4.7,69.5,45.2,58.8,85.8-7,26.7-21.4,49.2-44,71.2Z"/>
  <path class="cls-1" d="M934.3,314.9c.7,18.1-9.8,31.3-26.1,32.3-17.6,1.2-29.6-10.1-30.9-30.5-2.4-38.7-18-70.8-47.4-96-23.3-19.9-50.4-30.7-81.3-31.6-4.4-.1-8.9-.2-13.2-1-15-2.9-24.3-14.4-23.8-29,.5-14.3,10.9-26.9,26.1-26.6,19.7.5,40,2.1,59,7.3,78.3,21.6,134.3,93.8,137.6,175Z"/>
</svg>