<?xml version="1.0" encoding="UTF-8"?>
<svg id="Calque_1" data-name="Calque 1" xmlns="http://www.w3.org/2000/svg" version="1.1" viewBox="0 0 1000 1000">
  <defs>
    <style>
      .cls-1 {
         fill: #0069b4;
        stroke-width: 0px;
      }
    </style>
  </defs>
  <path class="cls-1" d="M2.3,404.8c7.4-16.5,20.1-22.8,38.1-21.7,16.5,1,33.1,0,49.6.3,30.3.3,54,13.7,72.6,38.4,17.4-13.9,34.6-27.6,51.7-41.3,41.5-33.2,82.8-66.7,124.5-99.6,52.1-41,118.1-44.7,172.1-9.6,10,6.5,19.1,14.6,27.6,23,28,27.5,55.4,55.6,83.4,83.1,3.4,3.4,9.3,5.9,14.1,5.9,89.8.3,179.6.3,269.4.3,30.6,0,56.6,10.2,75.3,35.3,19.5,26.3,23.1,55.6,10.5,85.5-12.5,29.8-35.5,49.7-68.2,52.1-37.1,2.7-74.5,1.6-111.7,2-17.8.2-35.6,0-54.3,0,12,55.2-8,93.2-59.7,114.1,16.1,47.6-5.4,98.3-59,117,6.3,17.3,8,35.2,2.9,53.2-11.4,39.8-41.6,65.1-83.9,65.5-61.2.5-122.6,0-183.7-3.1-67.3-3.5-132.5-19.3-196-41.7-2.7-1-5.5-1.9-7.5-2.6-8.4,9.5-15.7,19.5-24.7,27.5-16.2,14.3-35.9,20.2-57.4,20.4-16.2.1-32.4-.5-48.6.2-18.1.8-30.7-6-36.9-23.4v-480.6ZM545.1,383.4c-19.4-19.4-36-37.6-54.4-53.9-34.6-30.6-78.3-32.1-114.5-3.6-64.9,51.1-129.2,103.1-193.6,154.9-2.6,2.1-4.9,6.3-4.9,9.5-.3,101.5-.3,202.9,0,304.4,0,2.8,2.9,7.2,5.4,8.2,59.9,22.8,121.7,39.2,185.7,43,62,3.7,124.3,3.2,186.5,4.1,17.5.2,30.3-12.6,30.5-28.7.2-15.8-11.4-27.8-28.7-29.5-18.4-1.8-30.3-14.3-29.4-30.9.9-16.3,13.5-27.3,31.6-27.5,17.8-.1,35.7.1,53.5,0,18.2-.2,31.2-12.4,31.4-28.9.2-17-12.9-29.3-31.7-29.4-17.8-.1-35.7.8-53.5-.4-7.8-.6-16.4-4-22.7-8.8-9.3-7-11.2-20.4-6.5-31.1,5.2-11.8,14.5-18,27.5-18,35.7,0,71.3,0,107,0,2.9,0,5.8,0,8.8,0,17.2-.9,29.9-13.8,29.5-29.9-.4-16-12.8-28.2-29.8-28.4-36.3-.3-72.6,0-108.9-.1-22.2,0-36-11.3-36-29.3,0-18,13.6-28.8,36.2-28.9,112.8,0,225.6,0,338.4,0,3.9,0,7.8.2,11.7-.3,13.8-1.6,24.8-13.4,25.7-27.5.9-14-8.6-27.1-22.4-30.1-4.7-1-9.7-.8-14.5-.8-151.4,0-302.7,0-454.1-.2-5.5,0-11.1-.2-16.4-1.4-11.9-2.8-19-11-21.1-22.9-2-11.5,1.8-21.8,11.8-27.8,6-3.6,13.9-5.6,20.9-5.7,32.7-.6,65.3-.3,101-.3ZM61,850.2c5.5,0,10-.3,14.5,0,31.3,2.4,44.2-9.8,43.9-43.1-1-109.2-.4-218.3-.4-327.5,0-3.6.1-7.1-.1-10.7-1.1-13.3-10.2-24.9-23.1-26.5-11.4-1.3-23-.3-34.8-.3v408Z"/>
</svg>