<?xml version="1.0" encoding="UTF-8"?>
<svg id="Calque_1" data-name="Calque 1" xmlns="http://www.w3.org/2000/svg" version="1.1" viewBox="0 0 1000 1000">
  <defs>

    <style>
      .cls-1 {
        fill: #0069b4;
        stroke-width: 0px;
      }
    </style>
  </defs>
  <path class="cls-1" d="M508.4,22c11.9,4.4,19.6,13.2,26.4,23.6,58.5,88.9,118.1,177.1,175.4,266.8,41.1,64.3,78.3,131,106.4,202.3,19.6,49.6,32.5,100.2,25.7,154.3-12.1,96.6-56.2,174.9-132.6,235-50.2,39.5-107.6,62.8-170.9,69.7-74,8.1-143.8-6.6-208.6-43.7-65.5-37.5-113.8-90.8-143.7-159.8-31.7-73.1-38.9-148-12-224.8,19.8-56.8,46.1-110.4,75.6-162.5,57.3-101.4,123-197.5,188.7-293.6,9.3-13.6,18.4-27.3,26.9-41.3,6.9-11.4,15.2-20.9,27.8-25.9h14.9ZM501.2,115.9c-1.8,2.3-2.6,3.2-3.3,4.2-49.5,75.1-99.9,149.7-148.2,225.6-37.5,58.9-71.9,119.6-98.7,184.3-19.6,47.4-31.7,95.6-22.4,147.7,10.7,60.1,36.3,112,80.5,153.8,49.5,46.9,108.7,72.7,177.2,76.4,54,2.9,104.8-8.5,151.8-35.3,62.1-35.4,103.5-88.1,125.4-155.7,15.4-47.3,18.5-95.2,3-143.6-15.4-48.1-37.2-93.2-61.4-137.3-53-96.4-115-187.1-175.8-278.5-9.1-13.6-18.3-27.1-28.1-41.6Z"/>
  <path class="cls-1" d="M732.8,649.8c-7,79.8-44,141.3-112.2,183.7-19.3,12-39,7.5-50-10.5-10.1-16.5-4.8-36.3,14.2-47.7,42.7-25.6,68.4-62.9,78.9-111,1.4-6.6,2.2-13.5,2.9-20.2,2.5-22.4,17-36.7,35.7-34.7,16.9,1.8,33.7,15.5,30.6,40.5Z"/>
</svg>