<?xml version="1.0" encoding="utf-8"?>
<!-- Generator: Adobe Illustrator 27.3.1, SVG Export Plug-In . SVG Version: 6.00 Build 0)  -->
<svg version="1.1" id="Calque_1" xmlns="http://www.w3.org/2000/svg" xmlns:xlink="http://www.w3.org/1999/xlink" x="0px" y="0px"
	 viewBox="0 0 321 105.1" style="enable-background:new 0 0 321 105.1;" xml:space="preserve">
<style type="text/css">
	.st0{fill:none;}
	.st1{fill:#0E468C;}
	.st2{fill:#FFFFFF;}
</style>
<rect x="6.6" y="4.2" class="st0" width="56.7" height="81.1"/>
<g>
	<path class="st1" d="M30,23.4c5.2,0,9.4-4.4,9.4-9.7c0-5.3-4.2-9.6-9.4-9.6s-9.4,4.3-9.4,9.6C20.6,19.1,24.8,23.4,30,23.4z"/>
	<polygon class="st1" points="40,42.6 40,54.8 44.2,54.8 	"/>
	<path class="st1" d="M39,55.8v-0.7v-0.3V31.6c-3,0.3-5.9,0.4-8.8,0.5c-24.7,0.2-25.5,16.1-18.4,24c1.3,1.4,4.2,1.9,2-1.5
		c-4.6-7.1,6.9-12.3,6.9-12.3L6.5,85c0,0,1.3,1.7,4.5-2.3c2.3-2.9,13.1-18.2,17.1-23.4c0.7-0.8,1.4-1.3,2.2-1.4
		c0.8,0.1,1.5,0.5,2.2,1.4c4,5.3,15.2,20.5,17.6,23.4c3.2,4,4.5,2.3,4.5,2.3L44.5,55.8H39z"/>
	<path class="st1" d="M61.5,27.7c-7.9,1.9-14.9,3.2-21.5,3.8v10.7c1.3-0.6,15.2-7.5,21.7-12.3C64.1,28.2,63.6,27.2,61.5,27.7z"/>
</g>
<g>
	<path class="st1" d="M182,54.8h7.8V37.4l16.6-27.1h-8.7l-11.6,19.9l-11.8-19.9h-9L182,37.4V54.8z M162,31.4h-19v5.9h11.8
		c-0.1,7.5-4.5,12.3-12.5,12.2c-9.5,0-13.5-8.4-13.5-17c0-8.5,4-17,13.5-17c5.6,0,10.7,3,11.5,8.9h7.6c-1.2-10-9.4-15.2-19.1-15.2
		C129,9.2,121,19.8,121,32.5s8,23.3,21.3,23.3c5.4,0,9.2-1.6,13.4-6.3l1.2,5.2h5V31.4H162z M79.2,54.8H87V36.5h11.5
		c7.2,0,8.9,3.6,8.9,11.8c0,2.2,0,4.6,1.2,6.5h8.4c-1.7-1.8-2.4-6.5-2.4-11.7c0-7-3.9-9-6.6-9.4v-0.1c1.4-0.5,7.4-2.7,7.4-11.2
		c0-7.5-5-12-14.7-12H79.2V54.8z M87,16.7h12.7c4.1,0,7.7,1.1,7.7,6.8c0,4.7-2.7,7.1-7.6,7.1H87V16.7z M47.8,35.1v-6.4V17H72v-6.7
		H40v44.5h32.5v-6.7H47.7L47.8,35.1"/>
</g>
<g>
	<g>
		<g>
			<path class="st1" d="M191.6,97.1c-0.2,0-0.4,0-0.5-0.1c-0.2-0.1-0.5-0.3-0.6-0.8c-0.8-2.9,5.8-14.2,11.6-23.6
				c0.4-0.7,0.7-1.2,0.9-1.5c0.6-2.3,0.8-4.4,0.6-5.9c-0.1-0.6-0.3-1-0.6-1.4l0,0c-0.6,0-1.8,0.1-3.2,0.1c-7.2,0-8.2-1.4-8.4-2.4
				c0-0.2,0-0.4,0.2-0.6c0.3-0.4,1.2-0.9,5.1-1.4c0.8-0.1,1.6-0.2,2.4-0.2c1.5,0,2.9,0.3,4,0.8c2.1-0.1,4.5-0.2,6.8-0.3
				c7-9.8,8.4-16.3,4.3-19.3c-3.2-2.3-8.7-2.7-12.9-2.7c-0.7,0.1-1.5,0.3-2.2,0.5c-2.7,0.5-5,0.7-6.9,0.7c-0.4,0-0.7,0-1.1,0
				l0.1,0.1l-1.5-0.2c-2.5-0.4-3-1.3-3-1.9v-0.2l0.2-0.3c0.7-0.8,5.8-2.1,10.8-2.4h1.8c8.7-1.5,18.9-2.7,30.3-3.6
				c0.9-1.4,1.7-2.5,2.2-3.2c0.3-0.4,0.5-0.7,0.6-0.8l0,0l0.1-0.1c0.2-0.3,0.5-0.4,0.8-0.4c0.5,0,1.1,0.3,1.6,0.9
				c0.5,0.5,0.9,1.2,1,1.8c0,0.4-0.1,0.6-0.3,0.7l-0.5,0.7c8.4-0.5,16-0.7,22.5-0.7c2.1,0,4.2,0,6.1,0.1c6.3,0.1,12.2,0.5,16.7,1.2
				c5.8,1,8.8,2.8,8.9,5.3v0.5c-0.1,0.6-0.4,0.9-1,0.9c-0.4,0-0.9-0.2-1.3-0.6c-0.6-0.5-1.2-1.3-1.3-2c-0.1,0-0.3,0-0.4,0
				c-0.8-0.1-2-0.2-3.7-0.5c-3.9-0.6-9.5-1-16.3-1.2c-1.6,0-3.2,0-4.9,0c-8.9,0-18.6,0.4-28.1,1c-1.7,2.6-4.1,6-6.8,9.9
				s-5.8,8.4-8.9,13c-0.5,0.8-1,1.8-1.6,2.8c0.3,0,0.6,0,0.9,0c11.8,0,16.9,1.1,17.1,3.8c0.1,0.4-0.1,0.7-0.2,0.8
				c-0.2,0.2-0.4,0.3-0.7,0.3s-0.7-0.1-1-0.4l-0.3-0.2c-0.7-0.3-1.4-0.7-1.7-1.3c-0.2,0-0.4,0-0.9,0c-2.5,0-8.7,0.2-15.8,0.6
				c-0.1,0-0.2,0.1-0.3,0.1l-5.1,7.4c-0.2,1.1-0.5,2.3-0.9,3.6c-0.8,2.7-2.1,5.7-3.6,8.7C199.3,89.8,194,97.1,191.6,97.1L191.6,97.1
				z M206.4,63.7c0.2,0.4,0.3,0.8,0.4,1.3l0.9-1.3C207.2,63.6,206.8,63.7,206.4,63.7z M212.1,36.1c1,0.4,1.9,0.9,2.7,1.5
				c2.8,2,4.4,4.6,4.8,7.8c2.7-4,5.2-7.8,7.3-10.8C221.8,35,216.9,35.5,212.1,36.1z"/>
			<path class="st2" d="M233.4,26.4c0.4,0,0.8,0.3,1.3,0.7c0.7,0.6,1,1.5,0.7,1.8l-1.1,1.7c8.2-0.5,16.3-0.8,23.5-0.8
				c2.1,0,4.1,0,6,0.1c6.8,0.1,12.5,0.6,16.6,1.2c5.2,0.9,8.4,2.4,8.5,4.9v0.1c0,0.2,0,0.3,0,0.4c0,0.3-0.2,0.4-0.5,0.4
				s-0.7-0.2-1-0.5c-0.7-0.6-1.2-1.4-1.1-1.9v-0.1c0-0.1-1.7-0.2-4.6-0.6c-4-0.6-9.7-1-16.4-1.2c-1.6,0-3.2,0-4.9,0
				c-8.6,0-18.4,0.3-28.4,1.1c-3.5,5.1-9.5,13.8-15.8,23c-0.6,1.1-1.3,2.3-2.1,3.5c0.6,0,1.2,0,1.8,0c8.7,0,16.4,0.6,16.6,3.3
				c0,0.4-0.1,0.6-0.4,0.6c-0.2,0-0.5-0.1-0.7-0.3c-0.7-0.4-1.8-0.9-1.9-1.5c0-0.1-0.5-0.1-1.3-0.1c-2.7,0-9.1,0.3-15.9,0.6
				c-0.2,0.1-0.3,0.2-0.5,0.2l-5.3,7.6c-0.2,1.2-0.5,2.4-0.9,3.6c-0.9,2.8-2.1,5.8-3.5,8.7c-3.6,7.4-8.7,13.6-10.6,13.6
				c-0.1,0-0.2,0-0.3-0.1c-3-1.5,10.6-22.7,12.1-25.2c0.6-2.4,0.9-4.5,0.6-6.1c-0.1-0.8-0.4-1.3-0.9-1.8c-0.6,0-1.9,0.1-3.4,0.1
				c-3.3,0-7.6-0.3-7.9-2c-0.1-0.6,1.3-1,4.8-1.5c0.8-0.1,1.6-0.2,2.3-0.2c1.5,0,2.8,0.3,3.9,0.8c2.2-0.2,4.7-0.2,7.2-0.3
				c8.4-11.7,8-17.5,4.3-20.2c-3.1-2.2-8.4-2.8-13.2-2.8c-0.8,0.2-1.6,0.3-2.3,0.5c-2.8,0.5-5,0.7-6.8,0.7c-0.8,0-1.5,0-2.1-0.1
				c0.1,0,0.2-0.1,0.3-0.2c-0.4,0.1-0.6,0.2-0.6,0.2l0.1,0.1c-1.7-0.2-2.5-0.8-2.6-1.4c-0.1-0.5,4.7-2,10.5-2.3c0.6,0,1.2,0,1.7,0
				c9.5-1.7,20.1-2.8,30.6-3.6c1.8-2.7,3-4.3,3-4.3C233.1,26.5,233.2,26.4,233.4,26.4 M227.9,34c-6.1,0.5-12.1,1.1-17.8,1.9
				c1.7,0.6,3.2,1.3,4.4,2.1c2.8,2,4.7,4.9,4.7,8.9C222.5,42,225.5,37.5,227.9,34 M208.6,63.1c-1,0-2,0.1-3,0.2
				c0.5,0.9,0.8,1.9,0.9,3L208.6,63.1 M233.4,25.4L233.4,25.4c-0.5,0-1,0.2-1.2,0.7l-0.1,0.2c-0.1,0.2-0.3,0.5-0.5,0.8
				c-0.5,0.7-1.2,1.7-2.1,3c-11.3,0.9-21.4,2.1-30.1,3.6h-1.6l0,0l0,0c-4.9,0.3-10.3,1.5-11.2,2.6c-0.2,0.3-0.3,0.6-0.2,0.9
				c0.1,0.6,0.6,1.8,3.4,2.2l3,0.4l-0.3-0.3c1.9,0,4.2-0.2,6.8-0.7l0,0l0,0c0.7-0.1,1.4-0.3,2.2-0.4c5.8,0,10.1,0.9,12.5,2.7
				c4.7,3.4,0.4,11.8-4.3,18.4c-2.2,0.1-4.4,0.1-6.5,0.3c-1.2-0.5-2.5-0.8-4.1-0.8c-0.8,0-1.6,0.1-2.5,0.2c-3.9,0.5-4.9,1-5.4,1.6
				c-0.2,0.3-0.3,0.6-0.3,1c0.3,2,3.1,2.8,8.9,2.8c1.2,0,2.3,0,3-0.1c0.2,0.3,0.3,0.5,0.3,0.9c0.2,1.5,0,3.4-0.6,5.7
				c-0.2,0.3-0.5,0.8-0.9,1.4c-8.9,14.3-12.4,21.5-11.7,24c0.2,0.6,0.6,1,0.9,1.1c0.2,0.1,0.5,0.2,0.7,0.2c2.8,0,8.1-7.4,11.5-14.2
				c1.5-3.1,2.8-6.1,3.6-8.8c0.4-1.2,0.6-2.4,0.9-3.5l4.9-7.2h0.1c7.1-0.4,13.2-0.6,15.7-0.6c0.3,0,0.5,0,0.6,0
				c0.4,0.6,1.1,0.9,1.7,1.3c0.1,0.1,0.2,0.1,0.3,0.2c0.4,0.3,0.9,0.4,1.3,0.4c0.4,0,0.8-0.2,1.1-0.5s0.4-0.8,0.3-1.2
				c-0.2-3-5.3-4.2-17.6-4.2l0,0c0.4-0.7,0.8-1.4,1.2-2c3.1-4.6,6.2-9,8.9-12.9c2.6-3.8,4.9-7.1,6.7-9.7c9.4-0.7,19-1,27.8-1
				c1.7,0,3.3,0,4.9,0c6.8,0.2,12.4,0.6,16.3,1.2c1.7,0.3,3,0.4,3.8,0.5h0.1c0.2,0.7,0.8,1.4,1.4,1.9c0.6,0.4,1.1,0.7,1.7,0.7
				c0.8,0,1.3-0.5,1.4-1.2v-0.1v-0.1v-0.4V36l0,0l0,0c-0.2-2.9-3.2-4.8-9.3-5.8c-4.5-0.7-10.5-1.1-16.8-1.2
				c-1.9-0.1-3.9-0.1-6.1-0.1c-6.3,0-13.5,0.2-21.6,0.7c0.2-0.3,0.3-0.6,0.3-0.9c0-0.7-0.5-1.5-1.1-2.1
				C234.7,25.8,234,25.4,233.4,25.4L233.4,25.4z M213.8,36.4c3.9-0.5,7.9-0.9,12.1-1.2c-1.8,2.6-3.9,5.7-6,8.9
				c-0.6-2.7-2.2-5.1-4.8-6.9C214.7,36.9,214.3,36.7,213.8,36.4L213.8,36.4z"/>
		</g>
		<g>
			<path class="st1" d="M233.4,91.7c-1.9,0-3.4-0.7-4.2-2.1c-1-1.4-0.7-4.2,1-8.5c4.9-12.8,22.7-39.4,25.5-42l0,0
				c2.4-3.4,5.7-6.2,8.5-7c0.6-0.2,1.1-0.2,1.5-0.2c0.5,0,0.9,0.1,1.3,0.2c1.5,0.4,2.5,1.4,3,2.8c0.4,1.5-0.1,3.6-1.5,6.1
				c-4.5,9-21.1,22.3-26.1,26.2l-0.3,0.2h-0.2l0,0c-6.1,10.7-9.5,18.8-8.6,20.7c0,0,0.3,0.1,0.6,0.1l0,0c1.2,0,3-0.7,3.6-1
				c4.7-2.5,19.9-14.5,21.7-17.6c0.1-0.2,0.5-0.7,1-0.7c0.3,0,0.5,0.1,0.8,0.3c0.5,0.3,1,0.9,1.1,1.3c0.1,0.3,0,0.5-0.1,0.6
				c-2,3.4-18,16.3-22.7,18.7C238.4,90.5,235.9,91.7,233.4,91.7z M266.3,34.8c-1.8,0.6-4.9,2.6-7.7,6.4c-0.1,0.1-5.4,7.8-11.1,17
				c7-6,15-13.6,17.9-19.3c1.1-2.2,1.4-3.5,1.4-4.3C266.6,34.7,266.4,34.8,266.3,34.8z"/>
			<path class="st2" d="M265.7,32.3c0.4,0,0.8,0.1,1.1,0.2c1.3,0.4,2.3,1.3,2.7,2.5c0.3,1.2,0,3.1-1.4,5.8
				C263,50.9,242,66.9,241.9,67c-0.1,0-0.1,0-0.2,0h-0.1c-5.8,10-9.9,19.1-8.7,21.4c0.2,0.3,0.6,0.4,1.1,0.4c1.3,0,3.2-0.7,3.8-1
				c4.5-2.4,19.9-14.5,21.9-17.8c0.1-0.2,0.3-0.4,0.6-0.4c0.1,0,0.3,0.1,0.5,0.2c0.6,0.4,1,1,0.9,1.3c-2,3.4-17.9,16.2-22.5,18.5
				c-1.6,0.8-3.8,1.7-5.7,1.7c-1.5,0-2.9-0.5-3.8-1.9c-4.7-6.5,25.7-49.8,26.4-50c2.5-3.6,5.8-6.1,8.3-6.8
				C264.7,32.4,265.2,32.3,265.7,32.3 M245.4,60.6c6.5-5.4,17-14.7,20.4-21.4c1.2-2.4,1.6-4,1.3-5c-0.2,0-0.6,0.1-1,0.2
				c-2.3,0.7-5.4,3.1-8,6.6C258.2,40.9,251.8,50.2,245.4,60.6 M265.7,31.3c-0.5,0-1,0.1-1.6,0.2c-2.9,0.8-6.3,3.6-8.8,7.1
				c-0.5,0.4-1.3,1.6-3.5,4.7c-1.3,1.9-4.1,5.9-7.4,11c-5,7.8-11.7,18.8-14.7,26.6c-1.7,4.5-2,7.4-0.9,9c1,1.5,2.6,2.3,4.6,2.3
				c2.6,0,5.2-1.2,6.2-1.8c4.7-2.4,20.8-15.4,22.9-18.9c0.2-0.3,0.2-0.6,0.1-1c-0.1-0.6-0.6-1.2-1.3-1.7c-0.3-0.2-0.7-0.4-1.1-0.4
				c-0.8,0-1.3,0.7-1.4,0.9l0,0l0,0c-1.8,3-16.9,15-21.5,17.4c-0.5,0.3-2.3,0.9-3.3,0.9c-0.1,0-0.2,0-0.3,0
				c-0.4-1.8,2.1-8.5,8.5-19.8h0.1l0.3-0.2l0.1-0.1c5-3.9,21.7-17.3,26.3-26.4c1.4-2.7,1.9-4.9,1.5-6.5c-0.5-1.6-1.7-2.7-3.3-3.2
				C266.7,31.4,266.2,31.3,265.7,31.3L265.7,31.3z M249.7,55.7c5-7.9,9.2-14.1,9.3-14.1c2.5-3.5,5.4-5.5,7.2-6.1
				c-0.1,0.7-0.4,1.8-1.3,3.4C262.5,43.7,256,50.1,249.7,55.7L249.7,55.7z"/>
		</g>
		<g>
			<path class="st1" d="M258.5,81.2c-0.3,0-0.7-0.1-0.9-0.2c-0.7-0.3-1.2-0.8-1.7-1.3c-0.9-1.2-1.3-2.4-1.1-3.7
				c0.1-0.9,0.4-2,0.9-3.1c1.1-2.4,3-4.9,5-6.5c1.7-1.4,4-2.2,6.2-2.2c3,0,5.2,1.5,5.9,3.9c0.3,0.7,0.1,1.1,0,1.4
				c-0.2,0.3-0.5,0.4-0.8,0.4c-0.1,0-0.2,0-0.3,0c-0.8-0.2-1.6-0.9-2-1.8c-0.3-0.2-0.7-0.4-1.3-0.4c-1.6,0-3.9,1.1-4.9,1.9
				c-2.5,2-4.1,4.4-5,7.5c2.5-1.6,7.1-6.5,8.8-8.6c0.2-0.2,0.5-0.3,0.7-0.3c0.5,0,1.1,0.3,1.7,0.9c0.8,0.9,1,1.8,0.7,2.3
				c-0.6,1.5-0.8,2.9-0.6,4.2c0.7-0.1,2.8-1.2,9.4-6.5c0.3-0.3,0.5-0.4,0.5-0.4c0.2-0.2,0.6-0.5,1.2-0.5c0.3,0,0.7,0.1,1.1,0.5
				c0.9,1,0.7,1.9,0.2,2.4l-0.2,0.2c-5.1,4.5-8.1,7.3-10.3,8.4c-1.2,0.6-2.4,1-3.4,1s-1.9-0.3-2.5-1c-0.6-0.6-0.9-1.4-1.1-2.4
				C262.3,79.7,260.2,81.2,258.5,81.2z"/>
			<path class="st2" d="M266.9,64.7c2.5,0,4.7,1.1,5.5,3.6c0.3,0.7,0.1,1.1-0.3,1.1c-0.1,0-0.1,0-0.2,0c-0.6-0.2-1.4-0.9-1.7-1.6
				c-0.4-0.4-1-0.6-1.7-0.6c-1.8,0-4.1,1.2-5.2,2.1c-2.9,2.4-4.6,5.2-5.4,8.8c2.8-0.8,9.9-9.1,9.9-9.1c0.1-0.1,0.2-0.1,0.4-0.1
				c0.4,0,0.9,0.3,1.4,0.8c0.6,0.6,0.9,1.3,0.6,1.7c-0.2,0.4-1.1,2.4-0.6,4.7c0,0.2,0.2,0.3,0.4,0.3c1.9,0,10.2-7,10.4-7.1
				c0.2-0.2,0.5-0.4,0.9-0.4c0.2,0,0.5,0.1,0.7,0.3c0.6,0.7,0.6,1.3,0.2,1.7c-5.2,4.7-8.3,7.4-10.4,8.5c-1.2,0.6-2.2,0.9-3.1,0.9
				c-2,0-3.2-1.4-3.2-4c-2.5,2.3-5,4.5-6.8,4.5c-0.3,0-0.5,0-0.7-0.2c-0.6-0.2-1.1-0.7-1.6-1.2c-0.8-1-1.1-2.1-0.9-3.3
				c0.1-0.9,0.4-2,0.9-3c1-2.2,2.8-4.7,4.9-6.3C262.7,65.5,264.9,64.7,266.9,64.7 M266.9,63.7L266.9,63.7c-2.3,0-4.8,0.9-6.5,2.3
				c-2.1,1.7-4,4.2-5.2,6.7c-0.5,1.2-0.9,2.3-1,3.3c-0.2,1.4,0.2,2.8,1.1,4v0.1l0,0c0.5,0.5,1.1,1.1,1.9,1.4
				c0.3,0.1,0.7,0.2,1.1,0.2c1.7,0,3.6-1.3,6-3.4c0.2,0.7,0.6,1.3,1,1.8c0.7,0.7,1.7,1.1,2.9,1.1c1.1,0,2.3-0.3,3.6-1
				c2.2-1.1,5.3-3.9,10.4-8.5l0.2-0.2l0,0l0,0c0.6-0.6,0.8-1.9-0.2-3l0,0l0,0c-0.5-0.5-1.1-0.6-1.4-0.6c-0.5,0-1.1,0.2-1.5,0.6
				c-0.1,0.1-0.2,0.2-0.5,0.4c-5.5,4.4-7.8,5.8-8.7,6.2c-0.1-1,0.1-2.1,0.6-3.3l0,0c0.3-0.5,0.2-1.1,0-1.7c0.2,0.1,0.4,0.2,0.6,0.2
				s0.3,0.1,0.5,0.1c0.5,0,0.9-0.2,1.2-0.6c0.2-0.3,0.4-0.9,0.1-1.8C272.5,65.3,270.1,63.7,266.9,63.7L266.9,63.7z M259.6,75.9
				c0.9-2.3,2.3-4.2,4.3-5.8c0.6-0.5,1.8-1.2,2.9-1.5C264.8,70.8,261.8,74.1,259.6,75.9L259.6,75.9z"/>
		</g>
		<g>
			<path class="st1" d="M280,83c-0.8,0-1.6-0.2-2.3-0.6c-2.9-1.5-3.7-4.2-2.3-7.3l0,0l0.1-0.1c0.2-0.3,0.5-0.5,0.9-0.5
				c0.5,0,1,0.3,1.6,0.7c0.8,0.7,1.2,1.7,1,2.4c0,0.1-0.1,0.2-0.3,0.6c-0.1,0.2-0.3,0.7-0.5,1l0,0c0.2,0,0.5,0,0.8-0.1
				c0.5-0.1,1-0.3,1.4-0.6c0.4-0.3,0.9-0.8,1-1.2c0.6-1.2,0.7-2.5,0.4-4v-0.1v-0.1c0-0.2,0-0.3-0.1-0.5c-0.1-0.4-0.1-0.8,0-1.3
				l-1.1,1.3c-0.3,0.3-0.9,0.6-1.5,0.6c-0.4,0-0.8-0.2-1.1-0.5c-0.9-1,0.6-2.4,1.2-3l0.1-0.1l5.9-7.1c1.1-1.1,1.9-1.8,1.9-1.8
				c0.1-0.1,0.4-0.2,0.6-0.2c0.6,0,1.2,0.4,1.7,1c0.3,0.3,0.6,0.7,0.7,1.2c0.3,0.7,0,1.1-0.2,1.3l-1.9,1.8c-1.4,1.6-3.7,4.9-2.9,8.4
				c0.5,2.2,0.3,4.2-0.4,5.8c-0.5,0.9-1.1,1.5-1.6,1.9c-0.7,0.5-1.4,0.8-2,1C280.7,83,280.3,83,280,83z"/>
			<path class="st2" d="M287.6,61c0.4,0,0.9,0.3,1.3,0.8c0.6,0.6,0.9,1.5,0.6,1.8l-1.9,1.8c-1.7,1.9-3.9,5.3-3,8.9
				c0.5,2.3,0.2,4.1-0.4,5.4c-0.4,0.7-0.9,1.3-1.5,1.7c-0.6,0.4-1.2,0.7-1.8,0.9c-0.3,0.1-0.7,0.1-1,0.1c-0.7,0-1.5-0.2-2.1-0.5
				c-4.5-2.3-2-6.7-2-6.8c0.1-0.1,0.2-0.2,0.4-0.2c0.3,0,0.8,0.2,1.2,0.6c0.7,0.6,1,1.5,0.9,1.9c0,0.1-1.1,2-0.9,2.1
				s0.4,0.1,0.7,0.1s0.6,0,0.9-0.1c0.6-0.1,1.1-0.3,1.6-0.7c0.5-0.3,0.9-0.9,1.2-1.4c0.6-1.1,0.8-2.5,0.4-4.3c0-1-0.7-1.1,1.2-4.6
				l-3.2,3.7c-0.2,0.2-0.7,0.5-1.1,0.5c-0.3,0-0.5-0.1-0.8-0.3c-0.6-0.7,1-2.1,1.3-2.4l5.9-7.2c1-1.1,1.8-1.7,1.8-1.7
				C287.4,61,287.5,61,287.6,61 M287.6,60c-0.4,0-0.7,0.1-1,0.4c-0.2,0.1-0.9,0.8-1.9,1.8l0,0l0,0l-5.9,7.1l-0.1,0.1
				c-0.7,0.6-2.5,2.3-1.3,3.7l0,0l0,0c0.4,0.4,0.9,0.6,1.5,0.6c0.7,0,1.5-0.4,1.8-0.8l0,0l0,0l0.2-0.3v0.1c0,0.2,0,0.3,0,0.4v0.1
				v0.1c0.3,1.4,0.2,2.6-0.3,3.7l0,0l0,0c-0.2,0.4-0.5,0.8-0.8,1l0,0l0,0c-0.3,0.2-0.6,0.4-1,0.5c0-0.1,0.1-0.1,0.1-0.2
				c0.2-0.4,0.3-0.6,0.3-0.7c0.3-1-0.4-2.2-1.2-2.9c-0.6-0.6-1.3-0.9-1.9-0.9c-0.5,0-1,0.3-1.3,0.7l-0.1,0.2V75
				c-1.5,3.4-0.5,6.3,2.6,7.9c0.7,0.4,1.6,0.6,2.5,0.6c0.4,0,0.8,0,1.2-0.1c0.8-0.2,1.5-0.5,2.2-1l0,0l0,0c0.5-0.5,1.2-1.1,1.7-2
				l0,0l0,0c0.8-1.7,0.9-3.8,0.5-6.1c-0.8-3.3,1.4-6.4,2.7-8l1.9-1.8c0.4-0.4,0.5-1.1,0.3-1.8c-0.2-0.5-0.5-1-0.9-1.4
				C289.1,60.4,288.3,60,287.6,60L287.6,60z"/>
		</g>
		<g>
			<path class="st1" d="M288,82.4c-0.5,0-1.1-0.3-1.6-0.8c-0.9-0.8-1.2-1.9-0.9-2.5l24-39c0.2-0.3,0.5-0.4,0.8-0.4
				c0.5,0,1.1,0.3,1.6,0.8c0.9,0.8,1.2,1.9,0.9,2.5l-16,25.9c2-1.3,3.7-2,4.9-2c1.3,0,2.8,0.6,3.1,3.7c0.1,0.6,0.1,4.2,0.2,5.4
				c0.7-0.2,3.1-1.2,8.9-6.6l0.1-0.1c0.2-0.3,0.6-0.7,1.2-0.7c0.3,0,0.6,0.1,0.9,0.4c0.9,1,0.8,1.8,0.3,2.3c-6,5.5-9.7,8-12.1,8
				c-0.8,0-1.5-0.3-2-0.9c-1.5-1.7-1.6-4.3-1.6-6.6c0-0.6,0-1.3,0-1.8c-1.2,0.7-5.2,4.5-11.9,12c-0.1,0.1-0.2,0.2-0.2,0.2
				C288.6,82.3,288.3,82.4,288,82.4z"/>
			<path class="st2" d="M310.4,40.1c0.4,0,0.8,0.2,1.3,0.7c0.7,0.6,1,1.5,0.8,1.9l-17.3,28c2.4-1.8,4.9-3.3,6.6-3.3
				c1.4,0,2.4,0.9,2.6,3.2c0.1,0.7,0.2,5.8,0.2,5.8c0,0.1,0.1,0.1,0.3,0.1c0.9,0,3.6-1.3,9.5-6.8c0.2-0.2,0.5-0.6,0.9-0.6
				c0.2,0,0.3,0.1,0.5,0.3c0.6,0.7,0.6,1.3,0.3,1.6c-5.9,5.5-9.5,7.9-11.7,7.9c-0.7,0-1.3-0.2-1.7-0.7c-1.9-2-1.3-5.8-1.5-8.5
				c0-0.1-0.1-0.2-0.2-0.2c-1.6,0-12.6,12.3-12.7,12.4S288.1,82,288,82c-0.3,0-0.8-0.2-1.3-0.7c-0.7-0.6-1-1.5-0.8-1.9l24-39
				C310.1,40.2,310.2,40.1,310.4,40.1 M310.4,39.1L310.4,39.1c-0.5,0-1,0.2-1.3,0.7l-24,39c-0.6,1,0.1,2.3,1,3.1
				c0.6,0.6,1.3,1,1.9,1c0.4,0,0.8-0.2,1.1-0.5l0.1-0.1c5.6-6.3,9.3-10,11-11.3c0,0.3,0,0.6,0,0.9c0,2.4,0,5.1,1.7,6.9
				c0.7,0.7,1.5,1,2.4,1c2.5,0,6.3-2.4,12.4-8.1c0.6-0.6,0.9-1.7-0.2-3l0,0l0,0c-0.5-0.5-0.9-0.5-1.2-0.5c-0.8,0-1.3,0.5-1.5,0.8
				l-0.1,0.1c-4.6,4.3-7,5.8-8.1,6.3c0-1.6-0.1-4.3-0.1-4.8c-0.3-3.6-2.4-4.1-3.6-4.1c-1,0-2.1,0.3-3.4,1l14.9-24.2
				c0.6-1-0.1-2.3-1-3.1C311.7,39.5,311,39.1,310.4,39.1L310.4,39.1z"/>
		</g>
	</g>
</g>
</svg>
