<?xml version="1.0" encoding="utf-8"?>
<!-- Generator: Adobe Illustrator 27.1.1, SVG Export Plug-In . SVG Version: 6.00 Build 0)  -->
<svg version="1.1" id="Calque_1" xmlns="http://www.w3.org/2000/svg" xmlns:xlink="http://www.w3.org/1999/xlink" x="0px" y="0px"
	 viewBox="0 0 807.2 165.9" style="enable-background:new 0 0 807.2 165.9;" xml:space="preserve">
<style type="text/css">
	.st0{fill:#00468E;}
	.st1{fill:#0095DB;}
	.st2{fill:#FFFFFF;}
</style>
<g>
	<g>
		<polygon class="st0" points="210.7,135.1 206.1,135.1 206.1,166.1 227.9,166.1 227.9,161.8 210.7,161.8 		"/>
		<path class="st0" d="M246.8,135.1l-13.9,31h5l3.3-7.6h15l3.4,7.6h5l-13.9-31H246.8z M243.2,154.2l5.7-12.9l5.6,12.9H243.2z"/>
		<path class="st0" d="M292.1,150.2c0.8-0.4,1.5-1,2.1-1.8c1.1-1.3,1.6-3,1.6-4.9c0-2.5-0.9-4.6-2.5-6.1c-1.7-1.5-4-2.3-6.9-2.3
			h-14.3v31H287c3.1,0,5.5-0.8,7.2-2.4c1.7-1.6,2.6-3.7,2.6-6.3c0-2.1-0.6-3.9-1.9-5.3C294.2,151.3,293.2,150.6,292.1,150.2z
			 M276.8,139.2h9.4c1.6,0,3,0.4,3.9,1.2c0.9,0.8,1.4,1.9,1.4,3.2c0,1.5-0.4,2.6-1.4,3.5c-0.9,0.9-2.1,1.3-3.7,1.3h-9.6V139.2z
			 M290.7,160.6c-1,0.9-2.3,1.3-4,1.3h-9.9v-9.5h10c1.6,0,2.9,0.4,4,1.3c1,0.9,1.5,2,1.5,3.4C292.2,158.6,291.7,159.7,290.7,160.6z"
			/>
		<path class="st0" d="M321,134.5c-4.5,0-8.3,1.6-11.4,4.7c-3.1,3.1-4.6,6.9-4.6,11.4c0,4.5,1.6,8.3,4.6,11.4
			c3.1,3.1,6.9,4.7,11.4,4.7c4.4,0,8.3-1.6,11.3-4.7c3.1-3.1,4.7-6.9,4.7-11.4c0-4.5-1.6-8.3-4.7-11.4
			C329.3,136.1,325.4,134.5,321,134.5z M329,158.9c-2.2,2.2-4.9,3.3-8,3.3c-3.2,0-5.9-1.1-8.1-3.3c-2.2-2.2-3.3-5-3.3-8.3
			c0-3.3,1.1-6.1,3.3-8.3c2.2-2.2,4.9-3.4,8.1-3.4c3.2,0,5.9,1.1,8,3.4c2.2,2.3,3.3,5,3.3,8.3C332.3,153.9,331.2,156.7,329,158.9z"
			/>
		<path class="st0" d="M368.6,150.8c1.9-1.7,2.9-3.9,2.9-6.6c0-2.7-1-4.9-2.9-6.6c-1.9-1.6-4.4-2.5-7.4-2.5h-14.4v31h4.6v-12.8h4.7
			l11.4,12.8h5.9l-11.6-12.8C364.5,153.1,366.8,152.3,368.6,150.8z M351.4,149v-9.6h9.8c1.7,0,3.1,0.4,4.2,1.3c1,0.9,1.5,2,1.5,3.5
			c0,1.5-0.5,2.6-1.5,3.5c-1,0.9-2.4,1.3-4.2,1.3H351.4z"/>
		<path class="st0" d="M391.9,135.1l-13.9,31h5l3.3-7.6h15.1l3.3,7.6h5l-13.9-31H391.9z M388.2,154.2l5.7-12.9l5.6,12.9H388.2z"/>
		<polygon class="st0" points="411.7,139.4 422.8,139.4 422.8,166.1 427.5,166.1 427.5,139.4 438.6,139.4 438.6,135.1 411.7,135.1 
					"/>
		<path class="st0" d="M460.2,134.5c-4.5,0-8.3,1.6-11.4,4.7c-3.1,3.1-4.6,6.9-4.6,11.4c0,4.5,1.6,8.3,4.6,11.4
			c3.1,3.1,6.9,4.7,11.4,4.7c4.5,0,8.3-1.6,11.4-4.7c3.1-3.1,4.6-6.9,4.6-11.4c0-4.5-1.6-8.3-4.6-11.4
			C468.5,136.1,464.6,134.5,460.2,134.5z M468.2,158.9c-2.2,2.2-4.9,3.3-8,3.3c-3.2,0-5.9-1.1-8.1-3.3c-2.2-2.2-3.3-5-3.3-8.3
			c0-3.3,1.1-6.1,3.3-8.3c2.2-2.2,4.9-3.4,8.1-3.4c3.2,0,5.9,1.1,8,3.4c2.2,2.3,3.3,5,3.3,8.3C471.5,153.9,470.4,156.7,468.2,158.9z
			"/>
		<rect x="485.9" y="135.1" class="st0" width="4.6" height="31"/>
		<path class="st0" d="M523.6,150.8c1.9-1.7,2.9-3.9,2.9-6.6c0-2.7-1-4.9-2.9-6.6c-1.9-1.6-4.4-2.5-7.4-2.5h-14.4v31h4.6v-12.8h4.7
			l11.4,12.8h5.9l-11.6-12.8C519.5,153.1,521.8,152.3,523.6,150.8z M506.4,149v-9.6h9.8c1.7,0,3.1,0.4,4.2,1.3c1,0.9,1.5,2,1.5,3.5
			c0,1.5-0.5,2.6-1.5,3.5c-1,0.9-2.4,1.3-4.2,1.3H506.4z"/>
		<polygon class="st0" points="540.7,152.6 557.7,152.6 557.7,148.4 540.7,148.4 540.7,139.4 558.9,139.4 558.9,135.1 536.1,135.1 
			536.1,166.1 559,166.1 559,161.8 540.7,161.8 		"/>
	</g>
	<g>
		<path class="st0" d="M429.5,97.1C424.7,97.1,419,95,419,85V55.4h17.6l1.4-17.7h-19V18l-14.5,3.9c-3.5,0.8-6.9,3.1-6.9,10.6V86
			c0,25.6,16.9,29.6,28.1,29.6c6.2,0,13.9-1.9,19.3-5.3l-5.4-15.9C436.4,96.2,433,97.1,429.5,97.1z"/>
		<path class="st0" d="M525.2,93.2l-19.6-4.4c-3.3,5.9-10,8.8-17.3,8.8c-8.8,0-17.9-5.2-17.9-16.7h56v-5.4
			c-0.2-12-3.8-21.8-10.8-29.2c-6.9-7.3-17-11-27.2-11c-10.5,0-20.7,3.8-27.9,11.3c-7.2,7.5-10.9,17.2-10.9,28.8
			c0,11.7,3.7,21.5,10.9,28.9c7.2,7.5,17.3,11.2,27.7,11.2c8.3,0,16.9-2,22.9-5.9C517.1,105.9,522.2,100.6,525.2,93.2z M488.7,53.6
			c12.5,0,16.6,8.9,17,13.9h-34.8C472.1,59.4,478.6,53.6,488.7,53.6z"/>
		<rect x="683" y="37.8" class="st0" width="21.4" height="75.5"/>
		<path class="st0" d="M281.4,113.2h11.7V15.8h-21.5v61.9l-35.7-53.1c-5.7-7.3-7.9-8.8-18.7-8.8h-11.1v97.5h21.5V49.6l38.2,56.9
			C269.6,112,275.6,113.2,281.4,113.2z"/>
		<path class="st0" d="M382.4,76.9V37.8h-21.6v41.3c0,24.5-30.5,24.5-30.5,0l0,0V37.8h-21.5v39.2c0,29.3,18.4,38.7,36.8,38.7
			C364,115.6,382.4,106.3,382.4,76.9z"/>
		<path class="st0" d="M693.7-0.4c-6.7,0-12.1,5.4-12.1,12.1c0,6.7,5.4,12.1,12.1,12.1c6.7,0,12.1-5.4,12.1-12.1
			C705.7,5,700.3-0.4,693.7-0.4z"/>
		<path class="st0" d="M740.4,115.6c16.2,0,23.7-11.5,23.7-11.5c0,1.5,0,1.4,0,2.5c0,4.7,2,6.8,9.2,6.8h0c1,0,12.3,0,12.3,0V71.5
			c0-22.1-11-36-32.5-36c-19,0-32.8,11.8-34,25.9h19.4c0.9-4.7,5.5-9.1,13-9.1c8.1,0,12.1,5.8,12.1,14.3V68h-9.9
			c-26.5,0-38,9.1-38,25.4C715.7,107.3,724.9,115.6,740.4,115.6z M754.2,81.1h9.5v6.7c0,1.2-0.2,2.4-0.5,3.5
			c-1.6,5.1-7.2,8.3-13.7,8.3c-6.3,0-9.9-3-9.9-8.1C739.6,83.8,744.6,81.1,754.2,81.1z"/>
		<path class="st0" d="M587,37.1c-25.4-7.6-49.5,4.1-49.5,32.1v44.1h21.4V70.5c0-17.3,13.1-19,22.4-16.5L587,37.1z"/>
		<path class="st0" d="M666.8,106.5V37.8h-21.4v6.1l-1.5-1.3c-5.2-4.8-11.6-7.2-20.5-7.2c-15.2,0-35,11.6-35,37.1
			c0,22.1,15.2,36.4,34.6,36.4c15.5,0,22.7-8.5,22.7-8.5v5.1c0,22.7-27.6,23.7-37.8,9.1l-16.7,10.9
			C607.7,150.7,666.8,150.7,666.8,106.5z M640.7,85.1c-3.4,3.5-7.7,5.3-12.6,5.3c-5.2,0-9.6-1.8-13.1-5.3c-3.4-3.5-5.2-8-5.2-13.3
			c0-5.4,1.7-9.8,5.1-13.3c3.4-3.5,7.8-5.2,13.2-5.2c5,0,9.2,1.8,12.6,5.3c3.4,3.5,5.2,7.9,5.2,13.2
			C645.8,77.1,644.1,81.6,640.7,85.1z"/>
	</g>
	<g>
		<path class="st1" d="M137.5,15.8H58.9c-19.8,0-36,16.2-36,36v78.5c0,19.8,16.2,36,36,36h78.5c19.8,0,36-16.2,36-36V51.8
			C173.5,32,157.3,15.8,137.5,15.8z"/>
		<path class="st2" d="M111.5,37.9c4.5,0,8.2,3.7,8.2,8.2c0,4.6-3.7,8.2-8.2,8.2c-4.5,0-8.2-3.7-8.2-8.2
			C103.2,41.6,106.9,37.9,111.5,37.9z M124.8,62.7c4.5,0,8.2,3.7,8.2,8.2c0,4.5-3.7,8.2-8.2,8.2c-4.5,0-8.2-3.7-8.2-8.2
			C116.5,66.3,120.2,62.7,124.8,62.7z M109,70.9c0,6-4.8,10.8-10.8,10.8c-6,0-10.8-4.8-10.8-10.8c0-6,4.8-10.8,10.8-10.8
			C104.2,60.1,109,65,109,70.9z M84.9,37.9c4.5,0,8.2,3.7,8.2,8.2c0,4.6-3.7,8.2-8.2,8.2c-4.5,0-8.2-3.7-8.2-8.2
			C76.6,41.6,80.3,37.9,84.9,37.9z M79.8,70.8c0,4.5-3.7,8.2-8.2,8.2c-4.5,0-8.2-3.7-8.2-8.2c0-4.5,3.7-8.2,8.2-8.2
			C76.1,62.7,79.8,66.3,79.8,70.8z M58.3,54.3c-4.5,0-8.2-3.7-8.2-8.2c0-4.5,3.7-8.2,8.2-8.2c4.5,0,8.2,3.7,8.2,8.2
			C66.5,50.6,62.8,54.3,58.3,54.3z M134.7,89.1c-7.9,5.6-25.2,13.8-25.2,13.8l17,47.9c0,0-1.5,1.9-5.2-2.6
			c-2.7-3.3-15.7-20.3-20.4-26.2c-0.8-1-1.6-1.5-2.5-1.6c-0.9,0.1-1.7,0.6-2.5,1.6c-4.6,5.9-17,23-19.7,26.2
			c-3.7,4.5-5.2,2.6-5.2,2.6l16.4-47.9c0,0-17.3-8.2-25.2-13.8c-2.8-2-2.2-3.1,0-2.6c13.8,3.2,25.2,4.8,36.2,4.9
			c10.9-0.1,22.4-1.7,36.2-4.9C136.9,86,137.5,87.2,134.7,89.1z M138.1,54.3c-4.5,0-8.2-3.7-8.2-8.2c0-4.5,3.7-8.2,8.2-8.2
			c4.5,0,8.2,3.7,8.2,8.2C146.3,50.6,142.6,54.3,138.1,54.3z"/>
	</g>
</g>
</svg>
