<?xml version="1.0" encoding="UTF-8"?>
<svg id="Calque_1" data-name="Calque 1" xmlns="http://www.w3.org/2000/svg" version="1.1" viewBox="0 0 1000 1000">
  <defs>
    <style>
      .cls-1 {
        fill: #0069b4;
        stroke-width: 0px;
      }
    </style>
  </defs>
  <g>
    <path class="cls-1" d="M861.9,258.7c-2.2,23.3-4.3,45.3-6.4,67.5-6.8,74.1-13.7,148.2-20.4,222.4-6,65.6-11.9,131.2-17.9,196.7-5,54.2-9.8,108.4-15.2,162.5-3.7,36.6-35.8,65-73.9,65.6-29.3.5-58.6.1-87.8.1-121.3,0-242.5,0-363.8,0-40.5,0-73.4-27.3-77.8-64.5-2.3-19.6-3.9-39.2-5.7-58.9-6.8-74.1-13.7-148.2-20.5-222.4-6-65.6-11.9-131.2-17.9-196.7-5.2-56.4-10.4-112.8-15.6-169.1,0-.6-.5-1.1-1.3-3.1-6.9,0-14.4.1-21.9,0-18.6-.4-27.5-9.3-27.6-27.7-.1-24.2.1-48.4,0-72.6-.2-18.7,7.6-33.2,22.2-44.2,18-13.5,38.6-19,60.8-19.1,63.7,0,127.3,0,191,0,3.7,0,7.4,0,12.1,0,0-10.5-.1-20,0-29.5.3-23.2,16-39.3,38.9-39.3,58.2-.2,116.5-.2,174.7,0,22.5,0,38.4,16.1,38.8,38.4.2,9.8,0,19.6,0,30.4,4.7,0,8.4,0,12.2,0,63.7,0,127.3,0,191,0,19.4,0,37.9,4.2,54.6,14.4,18.8,11.5,28.9,27.9,28.4,50.5-.4,23.5,0,47.1-.1,70.7,0,18.5-8.9,27.5-27.4,28-7.5.2-15.1,0-23.2,0ZM170,259.1c0,3.4-.2,5.9,0,8.4,5.9,64.3,11.8,128.6,17.7,192.9,6.7,72.5,13.5,145.1,20.1,217.6,6.7,72.5,13,145.1,19.9,217.6,3.1,32.7,19.9,47.3,52.8,47.3,140,0,280.1,0,420.1,0,8.9,0,17.8.2,26.7,0,23.7-.7,41.6-16.9,44.4-40.4,1.7-13.9,2.6-27.9,3.9-41.8,8.7-93.4,17.4-186.9,26-280.3,8.9-96.3,17.7-192.6,26.5-288.9,1-10.6,1.7-21.2,2.6-32.3H170ZM118.5,227.6h763.5c0-22.7-.4-44.9.1-67.1.3-11.7-4.9-19.4-14.3-25-12.4-7.4-25.9-9.9-40.2-9.9-106.6,0-213.2,0-319.8,0-112,0-224,0-336,0-15.6,0-30.8,2.6-42.9,12.9-4.8,4.2-9.6,11.3-9.9,17.2-1.1,23.5-.5,47-.5,71.7ZM595.9,94.7c0-9.6-.2-18.1,0-26.7.3-8.1-3.2-11.5-11.3-11.4-18.1.3-36.3,0-54.4,0-37.9,0-75.7,0-113.6,0-5.7,0-11.5.3-11.9,7.7-.5,10-.1,20.1-.1,30.4h191.3Z"/>
    <path class="cls-1" d="M691.3,983.4c-8.6,0-17.1,0-25.5,0-8.5,0-17,0-25.6,0h-90.9c-90.9,0-181.9,0-272.8,0-45.7,0-82.5-30.8-87.6-73.2-1.8-15.1-3.2-30.4-4.5-45.1-.4-4.7-.8-9.3-1.3-14-6.8-74.1-13.7-148.2-20.5-222.4-3-32.5-5.9-65-8.9-97.5-3-33.1-6-66.1-9-99.2-5-54.4-10-108.8-15.1-163.2-4.6,0-9.4,0-14.3,0-23.9-.5-37.1-13.8-37.2-37.5,0-10.7,0-21.4,0-32,0-13.3,0-27,0-40.5-.2-21.4,8.6-39,26.2-52.1,18.6-13.9,41-21,66.7-21,45.9,0,91.8,0,137.6,0h55.6c0-6.8,0-13.3,0-19.8.4-28.8,20.4-49,48.7-49,57.8-.2,116.6-.2,174.8,0,27.7,0,48.1,20.3,48.6,48.1.1,6.8,0,13.5,0,20.6v.2h55c46.1,0,92.2,0,138.3,0,22.5,0,42.6,5.4,59.7,15.9,22.5,13.8,33.6,33.7,33.1,59.1-.3,14.4-.2,29.2-.2,43.5,0,9,0,18,0,27.1-.1,23.8-13.3,37.2-37,37.7-4.8.1-9.6,0-14.5,0l-1.2,12.5c-1.5,15.6-2.9,30.8-4.3,46-6.8,74.1-13.7,148.2-20.4,222.4-2.6,28.7-5.2,57.5-7.9,86.2-3.3,36.8-6.7,73.7-10.1,110.5l-3.2,34.8c-3.8,41.9-7.8,85.2-12.1,127.7-4.2,41.7-40.1,73.7-83.5,74.4-12.3.2-24.7.3-36.9.3ZM700.6,933.1c2.6,0,5.2,0,7.9,0,6.1,0,12.5,0,18.6-.1,19-.6,32.7-13,34.9-31.8,1.1-9.4,2-19,2.8-28.3.4-4.4.8-8.8,1.2-13.2l8.4-90.9c5.9-63.1,11.7-126.3,17.6-189.4,8.9-96.3,17.7-192.6,26.5-288.9.7-7.1,1.2-14.3,1.7-21.6H180c5.8,63.5,11.6,127.1,17.5,190.6,2.6,28.6,5.3,57.3,8,85.9,4.1,43.9,8.1,87.8,12.2,131.7,2.4,26.3,4.8,52.6,7.1,78.9,4.1,45.5,8.3,92.5,12.7,138.7,2.6,27.3,15.1,38.4,43,38.4h420.1ZM128.3,217.8h743.9c0-3.4,0-6.8,0-10.2,0-15.5-.2-31.6.2-47.3.2-7.5-2.6-12.2-9.5-16.3-9.7-5.8-20.9-8.5-35.1-8.5h0c-81.4,0-162.9,0-244.3,0h-159.5s-252,0-252,0c-16.7,0-28,3.3-36.5,10.6-3.7,3.2-6.4,8-6.5,10.3-.8,16.8-.7,33.5-.6,51.2,0,3.4,0,6.8,0,10.3ZM414.3,84.9h171.7c0-5.9,0-11.5.1-17.2,0-.5,0-.9,0-1.2-.4,0-.8,0-1.4,0-12.9.2-26.1.2-38.8.1-5.3,0-10.5,0-15.8,0h-28.8c-28.3,0-56.5,0-84.8,0-.5,0-1.3,0-2.1,0-.2,6.1-.2,12.1-.1,18.4Z"/>
  </g>
  <g>
    <path class="cls-1" d="M554.3,747.5c3.3,3,5.3,4.5,6.9,6.4,5.2,6.1,5.8,12.8,1,19.2-5.1,6.8-12.7,8.6-19.5,4-16.1-10.8-31.7-22.3-47-34.3-7.4-5.8-7.5-15.5-.5-21.8,14.2-12.7,28.9-25,43.7-36.9,6.6-5.3,15.6-3.7,20.5,2.7,5.2,6.7,4.8,13.6-.7,19.9-2.4,2.8-5.4,5.1-8.5,8,1.3.7,2,1.5,2.8,1.5,28.6,0,57.3.9,85.8-.4,33.1-1.5,52.6-36.7,37.2-66.3-11.2-21.4-24-41.9-35.8-63-2.2-4-4.5-9.4-3.4-13.2,1.3-4.5,5.5-10.2,9.7-11.4,4.5-1.3,13.3.2,15.2,3.4,17.7,30.3,41.4,57.8,48.9,93,9,41.6-24.3,85.1-66.8,87.7-27.6,1.7-55.3.7-83,.9-1.5,0-3.1.2-6.6.5Z"/>
    <path class="cls-1" d="M550.5,791.1c-4.8,0-9.7-1.5-14.2-4.5-15.7-10.6-31.7-22.3-47.6-34.7-6.1-4.8-9.8-11.8-10-19.2-.2-7.5,3-14.9,9-20.2,13.6-12.1,28-24.3,44.2-37.3,5.4-4.4,12.2-6.3,19-5.5,6.9.8,13.3,4.5,17.7,10.1,6.1,7.9,7.6,16.8,4.6,25.1h5.1c19.8.2,40.2.4,60.1-.5,11.5-.5,21.4-6.5,27.1-16.4,5.8-10.1,6-22.5.4-33.1-6.6-12.6-13.9-25.2-21-37.3-4.8-8.3-9.8-16.8-14.6-25.4-4.7-8.4-6.1-15.8-4.4-21.9,2.2-7.7,8.9-16.8,17.5-19.3,7.1-2.1,22.7-.9,28.3,8.6,4.6,7.9,9.8,15.8,14.8,23.4,14.5,22.2,29.5,45.1,35.5,73,4.9,23-.9,47.7-16,67.6-15.2,20.1-37.6,32.5-61.2,33.9-19.3,1.2-38.9,1.1-57.8,1-3.5,0-7,0-10.5,0,1.8,7.3.2,14.8-4.9,21.6-5.5,7.3-13.1,11.1-20.8,11.1Z"/>
  </g>
  <g>
    <path class="cls-1" d="M338.8,562c-4.6,1.3-7,2.3-9.4,2.6-7.8,1.1-13.8-1.8-16.9-9.3-3.1-7.7-.9-14.7,6-18.1,17.7-8.6,35.7-16.7,54-23.9,9-3.5,17,1.9,19.1,11.9,3.5,17.4,6.7,35,9.3,52.6,1.6,10.6-3.7,17.7-12.6,19-8.2,1.2-15-4.3-17.3-14.1-.6-2.5-.9-5-1.6-9.3-2.2,2.8-3.8,4.4-4.9,6.3-12.8,22-25.7,43.9-38.1,66.1-18.7,33.3,1.4,69.4,39.6,70.6,21.9.7,43.9.1,65.9.2,3.5,0,7.1,0,10.4.7,7.9,1.7,12.2,7.1,12,15-.2,7.9-4.7,14.2-12.7,14.2-30.8.2-62.2,3-92.4-1.8-50.4-8-75.6-65.3-51.3-110.5,11.3-21,23.7-41.4,35.6-62,1.6-2.7,2.9-5.5,5.3-10Z"/>
    <path class="cls-1" d="M390.5,758.8c-14.4,0-28.9-.6-43.1-2.9-26.6-4.2-48.9-20.7-61.1-45.3-12.8-25.8-12.2-56.4,1.5-81.9,7.7-14.4,16.1-28.6,24.1-42.4,2.2-3.7,4.4-7.4,6.5-11.1-7.4-2.2-13.2-7.6-16.5-15.5-5.4-13.3-.7-26.7,11.6-32.7,18.7-9.1,37.1-17.3,54.8-24.3,7.2-2.8,14.7-2.5,21.1,1,6.8,3.7,11.7,10.7,13.4,19.2,3.6,17.7,6.8,35.6,9.4,53.1,1.3,8.4-.4,16-4.8,21.9-4.1,5.5-10.3,9.1-17.5,10.2-9.2,1.4-17.7-2.2-23.5-9.2l-.8,1.4c-9.7,16.7-19.8,33.9-29.3,51-7,12.4-7.5,25.6-1.5,36.3,6,10.5,17.4,16.8,31.4,17.3,14.4.4,29.1.3,43.3.3,7.4,0,14.8,0,22.2,0h.9c3.6,0,7.7,0,11.9.9,13.3,2.9,21.4,13,21,26.5-.4,14.8-10.3,25.3-24.1,25.3-7.9,0-16.1.3-24,.5-8.9.2-18,.5-27.1.5Z"/>
  </g>
  <g>
    <path class="cls-1" d="M607.7,468.4c.7-4.3.9-6.2,1.4-8,2.2-8.4,8.9-13.1,16.9-12.1,7.8,1,13.9,7.7,13.2,16.1-1.6,18.4-3.4,36.7-5.9,55-1.5,11-10.4,16.2-21.2,12.6-16.8-5.7-33.5-11.9-50.1-18.3-9.1-3.5-12.7-11.7-9.6-19.9,2.9-7.6,10.9-11.2,19.8-8.7,3.2.9,6.4,2.1,11.9,4-16.7-28.4-30.9-55.4-47.9-80.6-17.6-26.2-57.8-23.4-75,4.1-12.1,19.4-23,39.5-34.5,59.3-1.4,2.5-2.7,5.1-4.5,7.3-5.4,6.5-12.4,7.9-19.6,3.8-7.4-4.2-10.2-11.7-6.1-18.8,14.7-26,27.9-53.2,46-76.7,31.4-40.9,95.2-35.4,122.7,8.8,12.9,20.8,24.6,42.3,36.9,63.5,1.4,2.4,3,4.6,5.8,9Z"/>
    <path class="cls-1" d="M618.7,544.6c-3.4,0-6.8-.6-10.3-1.8-15.3-5.2-31.3-11.1-50.5-18.5-14.8-5.7-21.7-20.3-16.2-34.7,3.4-9.1,11-14.9,20.1-16.5-.9-1.5-1.7-3-2.6-4.6-10.8-18.9-21-36.8-32.4-53.9-5.8-8.5-15.2-13.3-26.1-13.1-12.1.2-23.2,6.5-29.7,16.8-8.1,13.1-15.9,26.8-23.5,40.1-3.6,6.3-7.2,12.7-10.9,19l-.9,1.5c-1.3,2.3-2.7,4.8-4.8,7.3-9,10.8-22.1,13.2-34.1,6.4-13.1-7.5-17.5-22-10.4-34.4,3.5-6.2,7-12.5,10.4-18.8,10.9-20,22.2-40.7,36.5-59.3,16.7-21.8,42.4-33.4,70.4-32.1,29.1,1.4,55.7,17.1,71.1,41.8,8.9,14.2,17.2,28.9,25.3,43.2,2,3.5,4,7,6,10.5,5.6-5.2,13.2-7.8,21.4-6.7,14.1,1.8,24.3,14.3,23.1,28.4-1.8,20.8-3.7,39-6,55.6-1.2,8.7-5.5,15.7-12.2,19.9-4.1,2.5-8.8,3.8-13.7,3.8Z"/>
  </g>
</svg>