<?xml version="1.0" encoding="UTF-8"?>
<svg id="Calque_1" xmlns="http://www.w3.org/2000/svg" version="1.1" xmlns:xlink="http://www.w3.org/1999/xlink" viewBox="0 0 511 511">
  <!-- Generator: Adobe Illustrator 29.3.1, SVG Export Plug-In . SVG Version: 2.1.0 Build 151)  -->
  <defs>
    <style>
      .st0 {
        fill: #95c11f;
      }
    </style>
  </defs>
  <path class="st0" d="M437.2,73.8C388.9,25.6,324.7-1,256.5-1S124.1,25.6,75.8,73.8C27.5,122,1,186.3,1,254.5s26.6,132.4,74.8,180.7c48.2,48.3,112.4,74.8,180.7,74.8s132.4-26.6,180.7-74.8c48.3-48.3,74.8-112.4,74.8-180.7s-26.6-132.4-74.8-180.7ZM256.5,479.9c-124.3,0-225.4-101.1-225.4-225.4S132.2,29.1,256.5,29.1s225.4,101.1,225.4,225.4-101.1,225.4-225.4,225.4Z"/>
  <path class="st0" d="M367,259.2c-8.3,0-15,6.7-15,15,0,52.7-42.8,95.5-95.5,95.5s-95.5-42.8-95.5-95.5-6.7-15-15-15-15,6.7-15,15c0,69.2,56.3,125.6,125.6,125.6s125.6-56.3,125.6-125.6c-.1-8.3-6.9-15-15.2-15Z"/>
  <path class="st0" d="M145.9,204.2c8.3,0,15-6.7,15-15s8.9-19.8,19.8-19.8,19.8,8.9,19.8,19.8,6.7,15,15,15,15-6.7,15-15c0-27.5-22.4-49.9-49.9-49.9s-49.9,22.4-49.9,49.9c.2,8.3,6.9,15,15.2,15Z"/>
  <circle class="st0" cx="340" cy="171.7" r="32.5"/>
</svg>