<svg height="511pt" viewBox="0 1 511 511.999" width="511pt" xmlns="http://www.w3.org/2000/svg"><path d="m437.519531 74.980469c-48.351562-48.351563-112.640625-74.980469-181.019531-74.980469s-132.667969 26.628906-181.019531 74.980469c-48.351563 48.351562-74.980469 112.640625-74.980469 181.019531s26.628906 132.667969 74.980469 181.019531c48.351562 48.351563 112.636719 74.980469 181.019531 74.980469 68.378906 0 132.664062-26.628906 181.019531-74.980469 48.347657-48.351562 74.976563-112.640625 74.976563-181.019531s-26.625-132.667969-74.976563-181.019531zm-181.019531 406.902343c-124.554688 0-225.882812-101.332031-225.882812-225.882812 0-124.554688 101.328124-225.882812 225.882812-225.882812s225.882812 101.332031 225.882812 225.882812-101.332031 225.882812-225.882812 225.882812zm0 0"/><path d="m367.265625 260.6875c-8.316406 0-15.058594 6.742188-15.058594 15.058594 0 52.773437-42.933593 95.707031-95.707031 95.707031s-95.707031-42.933594-95.707031-95.707031c0-8.316406-6.742188-15.058594-15.058594-15.058594s-15.058594 6.742188-15.058594 15.058594c0 69.378906 56.445313 125.824218 125.824219 125.824218s125.824219-56.445312 125.824219-125.824218c0-8.316406-6.742188-15.058594-15.058594-15.058594zm0 0"/><path d="m145.734375 205.605469c8.316406 0 15.058594-6.742188 15.058594-15.058594 0-10.960937 8.914062-19.875 19.875-19.875 10.957031 0 19.875 8.914063 19.875 19.875 0 8.316406 6.742187 15.058594 15.058593 15.058594 8.316407 0 15.058594-6.742188 15.058594-15.058594 0-27.566406-22.429687-49.992187-49.992187-49.992187-27.566407 0-49.992188 22.425781-49.992188 49.992187 0 8.316406 6.742188 15.058594 15.058594 15.058594zm0 0"/><path d="m332.332031 140.554688c-27.5625 0-49.992187 22.425781-49.992187 49.992187 0 8.316406 6.742187 15.058594 15.058594 15.058594 8.316406 0 15.058593-6.742188 15.058593-15.058594 0-10.960937 8.917969-19.875 19.875-19.875 10.960938 0 19.875 8.914063 19.875 19.875 0 8.316406 6.742188 15.058594 15.058594 15.058594s15.058594-6.742188 15.058594-15.058594c0-27.566406-22.425781-49.992187-49.992188-49.992187zm0 0"/></svg>