<?xml version="1.0" encoding="UTF-8"?>
<svg id="Calque_1" data-name="Calque 1" xmlns="http://www.w3.org/2000/svg" version="1.1" viewBox="0 0 481.4 407">
  <defs>
    <style>
      .cls-1 {
        fill: none;
        stroke: #d9d9d9;
        stroke-linejoin: round;
        stroke-width: 1px;
      }

      .cls-2 {
        fill: #1f4e79;
      }

      .cls-2, .cls-3, .cls-4, .cls-5, .cls-6, .cls-7 {
        stroke-width: 0px;
      }

      .cls-3 {
        fill: #2e75b6;
      }

      .cls-4 {
        fill: #bdd7ee;
      }

      .cls-5 {
        fill: #9dc3e6;
      }

      .cls-6 {
        fill: #002060;
      }

      .cls-7 {
        fill: #595959;
      }
    </style>
  </defs>
  <rect class="cls-4" x="34.1" y="146.2" width="52.8" height="232.3"/>
  <rect class="cls-5" x="125.3" y="126.9" width="52.6" height="251.6"/>
  <rect class="cls-3" x="216.4" y="79.7" width="52.6" height="298.8"/>
  <rect class="cls-2" x="307.5" y="72" width="52.8" height="306.5"/>
  <rect class="cls-6" x="398.6" y="40.8" width="52.8" height="337.7"/>
  <line class="cls-1" x1="13.7" y1="378.5" x2="470.7" y2="378.5"/>
  <g>
    <path class="cls-7" d="M50.8,401.6v2.1h-8c.1-.8.3-1.6.8-2.3s1.3-1.7,2.6-2.8c1-1,1.7-1.6,1.9-1.9.3-.5.5-.9.5-1.4s-.1-.9-.4-1.2c-.3-.3-.6-.4-1.1-.4s-.9.1-1.1.4c-.3.3-.4.8-.5,1.4l-2.3-.2c.1-1.3.6-2.2,1.3-2.7s1.6-.8,2.7-.8,2.1.3,2.8.9,1,1.4,1,2.4-.1,1-.3,1.5-.5,1-.9,1.5c-.3.4-.8.9-1.5,1.5s-1.2,1.1-1.4,1.3c-.2.2-.3.4-.5.6h4.4Z"/>
    <path class="cls-7" d="M56.3,391.8c1.2,0,2,.4,2.7,1.2.8,1,1.2,2.6,1.2,4.8s-.4,3.9-1.2,4.8c-.6.8-1.5,1.2-2.7,1.2s-2.1-.4-2.8-1.3-1.1-2.5-1.1-4.8.4-3.8,1.2-4.8c.6-.7,1.5-1.1,2.7-1.1ZM56.3,393.7c-.3,0-.5.1-.7.3-.2.2-.4.5-.5.9-.2.6-.2,1.6-.2,3s.1,2.4.2,2.9c.1.5.3.9.5,1s.5.3.7.3.5-.1.7-.3c.2-.2.4-.5.5-.9.2-.6.2-1.6.2-3s-.1-2.4-.2-2.9c-.1-.5-.3-.9-.5-1s-.4-.3-.7-.3Z"/>
    <path class="cls-7" d="M67.4,403.7h-2.3v-8.6c-.8.8-1.8,1.4-2.9,1.7v-2.1c.6-.2,1.2-.6,1.9-1.1s1.2-1.2,1.4-1.9h1.8v12h.1Z"/>
    <path class="cls-7" d="M70.9,401l2.2-.2c.1.4.2.8.4,1s.5.3.9.3.9-.2,1.2-.6.5-1.3.6-2.7c-.6.7-1.3,1-2.1,1s-1.7-.4-2.4-1.1-1-1.7-1-2.8.4-2.2,1.1-2.9c.7-.7,1.6-1.1,2.7-1.1s2.2.5,3,1.4,1.2,2.5,1.2,4.6-.4,3.7-1.2,4.7-1.9,1.4-3.1,1.4-1.7-.2-2.3-.7c-.7-.6-1.1-1.3-1.2-2.3ZM76,396c0-.7-.2-1.3-.5-1.7-.3-.4-.7-.6-1.2-.6s-.8.2-1,.5c-.3.3-.4.9-.4,1.6s.2,1.3.5,1.7c.3.4.7.5,1.1.5s.8-.2,1.1-.5.4-.8.4-1.5Z"/>
  </g>
  <g>
    <path class="cls-7" d="M142,401.6v2.1h-8c.1-.8.3-1.6.8-2.3s1.3-1.7,2.6-2.8c1-1,1.7-1.6,1.9-1.9.3-.5.5-.9.5-1.4s-.1-.9-.4-1.2c-.3-.3-.6-.4-1.1-.4s-.9.1-1.1.4c-.3.3-.4.8-.5,1.4l-2.3-.2c.1-1.3.6-2.2,1.3-2.7s1.6-.8,2.7-.8,2.1.3,2.8.9c.7.6,1,1.4,1,2.4s-.1,1-.3,1.5-.5,1-.9,1.5c-.3.4-.8.9-1.5,1.5s-1.2,1.1-1.4,1.3-.3.4-.5.6h4.4Z"/>
    <path class="cls-7" d="M147.4,391.8c1.2,0,2,.4,2.7,1.2.8,1,1.2,2.6,1.2,4.8s-.4,3.9-1.2,4.8c-.6.8-1.5,1.2-2.7,1.2s-2.1-.4-2.8-1.3c-.7-.9-1.1-2.5-1.1-4.8s.4-3.8,1.2-4.8c.7-.7,1.6-1.1,2.7-1.1ZM147.4,393.7c-.3,0-.5.1-.7.3-.2.2-.4.5-.5.9-.2.6-.2,1.6-.2,3s.1,2.4.2,2.9.3.9.5,1,.5.3.7.3.5-.1.7-.3c.2-.2.4-.5.5-.9.2-.6.2-1.6.2-3s-.1-2.4-.2-2.9-.3-.9-.5-1-.4-.3-.7-.3Z"/>
    <path class="cls-7" d="M160.4,401.6v2.1h-8c.1-.8.3-1.6.8-2.3s1.3-1.7,2.6-2.8c1-1,1.7-1.6,1.9-1.9.3-.5.5-.9.5-1.4s-.1-.9-.4-1.2c-.3-.3-.7-.4-1.1-.4s-.9.1-1.1.4c-.3.3-.4.8-.5,1.4l-2.3-.2c.1-1.3.6-2.2,1.3-2.7s1.6-.8,2.7-.8,2.1.3,2.8.9c.7.6,1,1.4,1,2.4s-.1,1-.3,1.5c-.2.5-.5,1-.9,1.5-.3.4-.8.9-1.5,1.5-.7.7-1.2,1.1-1.4,1.3s-.3.4-.5.6h4.4Z"/>
    <path class="cls-7" d="M165.8,391.8c1.2,0,2,.4,2.7,1.2.8,1,1.2,2.6,1.2,4.8s-.4,3.9-1.2,4.8c-.6.8-1.5,1.2-2.7,1.2s-2.1-.4-2.8-1.3c-.7-.9-1.1-2.5-1.1-4.8s.4-3.8,1.2-4.8c.7-.7,1.6-1.1,2.7-1.1ZM165.8,393.7c-.3,0-.5.1-.7.3-.2.2-.4.5-.5.9-.2.6-.2,1.6-.2,3s.1,2.4.2,2.9.3.9.5,1,.5.3.7.3.5-.1.7-.3c.2-.2.4-.5.5-.9.2-.6.2-1.6.2-3s-.1-2.4-.2-2.9-.3-.9-.5-1-.4-.3-.7-.3Z"/>
  </g>
  <g>
    <path class="cls-7" d="M233.1,401.6v2.1h-8c.1-.8.3-1.6.8-2.3.4-.7,1.3-1.7,2.6-2.8,1-1,1.7-1.6,1.9-1.9.3-.5.5-.9.5-1.4s-.1-.9-.4-1.2c-.3-.3-.6-.4-1.1-.4s-.9.1-1.1.4c-.3.3-.4.8-.5,1.4l-2.3-.2c.1-1.3.6-2.2,1.3-2.7.7-.5,1.6-.8,2.7-.8s2.1.3,2.8.9,1,1.4,1,2.4-.1,1-.3,1.5-.5,1-.9,1.5c-.3.4-.8.9-1.5,1.5s-1.2,1.1-1.4,1.3-.3.4-.5.6h4.4Z"/>
    <path class="cls-7" d="M238.6,391.8c1.2,0,2,.4,2.7,1.2.8,1,1.2,2.6,1.2,4.8s-.4,3.9-1.2,4.8c-.6.8-1.5,1.2-2.7,1.2s-2.1-.4-2.8-1.3c-.7-.9-1.1-2.5-1.1-4.8s.4-3.8,1.2-4.8c.6-.7,1.5-1.1,2.7-1.1ZM238.6,393.7c-.3,0-.5.1-.7.3s-.4.5-.5.9c-.2.6-.2,1.6-.2,3s.1,2.4.2,2.9.3.9.5,1c.2.2.5.3.7.3s.5-.1.7-.3c.2-.2.4-.5.5-.9.2-.6.2-1.6.2-3s-.1-2.4-.2-2.9-.3-.9-.5-1c-.2-.2-.4-.3-.7-.3Z"/>
    <path class="cls-7" d="M251.6,401.6v2.1h-8c.1-.8.3-1.6.8-2.3.4-.7,1.3-1.7,2.6-2.8,1-1,1.7-1.6,1.9-1.9.3-.5.5-.9.5-1.4s-.1-.9-.4-1.2c-.3-.3-.6-.4-1.1-.4s-.9.1-1.1.4c-.3.3-.4.8-.5,1.4l-2.3-.2c.1-1.3.6-2.2,1.3-2.7.7-.5,1.6-.8,2.7-.8s2.1.3,2.8.9,1,1.4,1,2.4-.1,1-.3,1.5-.5,1-.9,1.5c-.3.4-.8.9-1.5,1.5s-1.2,1.1-1.4,1.3-.3.4-.5.6h4.4Z"/>
    <path class="cls-7" d="M259,403.7h-2.3v-8.6c-.8.8-1.8,1.4-2.9,1.7v-2.1c.6-.2,1.2-.6,1.9-1.1.7-.5,1.2-1.2,1.4-1.9h1.8v12h.1Z"/>
  </g>
  <g>
    <path class="cls-7" d="M324.3,401.6v2.1h-8c.1-.8.3-1.6.8-2.3.4-.7,1.3-1.7,2.6-2.8,1-1,1.7-1.6,1.9-1.9.3-.5.5-.9.5-1.4s-.1-.9-.4-1.2c-.3-.3-.6-.4-1.1-.4s-.9.1-1.1.4c-.3.3-.4.8-.5,1.4l-2.3-.2c.1-1.3.6-2.2,1.3-2.7.7-.5,1.6-.8,2.7-.8s2.1.3,2.8.9,1,1.4,1,2.4-.1,1-.3,1.5-.5,1-.9,1.5c-.3.4-.8.9-1.5,1.5s-1.2,1.1-1.4,1.3-.3.4-.5.6h4.4Z"/>
    <path class="cls-7" d="M329.7,391.8c1.2,0,2,.4,2.7,1.2.8,1,1.2,2.6,1.2,4.8s-.4,3.9-1.2,4.8c-.6.8-1.5,1.2-2.7,1.2s-2.1-.4-2.8-1.3c-.7-.9-1.1-2.5-1.1-4.8s.4-3.8,1.2-4.8c.7-.7,1.6-1.1,2.7-1.1ZM329.7,393.7c-.3,0-.5.1-.7.3s-.4.5-.5.9c-.2.6-.2,1.6-.2,3s.1,2.4.2,2.9.3.9.5,1c.2.2.5.3.7.3s.5-.1.7-.3c.2-.2.4-.5.5-.9.2-.6.2-1.6.2-3s-.1-2.4-.2-2.9-.3-.9-.5-1c-.2-.2-.4-.3-.7-.3Z"/>
    <path class="cls-7" d="M342.7,401.6v2.1h-8c.1-.8.3-1.6.8-2.3.4-.7,1.3-1.7,2.6-2.8,1-1,1.7-1.6,1.9-1.9.3-.5.5-.9.5-1.4s-.1-.9-.4-1.2c-.3-.3-.6-.4-1.1-.4s-.9.1-1.1.4c-.3.3-.4.8-.5,1.4l-2.3-.2c.1-1.3.6-2.2,1.3-2.7.7-.5,1.6-.8,2.7-.8s2.1.3,2.8.9,1,1.4,1,2.4-.1,1-.3,1.5-.5,1-.9,1.5c-.3.4-.8.9-1.5,1.5s-1.2,1.1-1.4,1.3-.3.4-.5.6h4.4Z"/>
    <path class="cls-7" d="M352,401.6v2.1h-8c.1-.8.3-1.6.8-2.3.4-.7,1.3-1.7,2.6-2.8,1-1,1.7-1.6,1.9-1.9.3-.5.5-.9.5-1.4s-.1-.9-.4-1.2c-.3-.3-.6-.4-1.1-.4s-.9.1-1.1.4c-.3.3-.4.8-.5,1.4l-2.3-.2c.1-1.3.6-2.2,1.3-2.7.7-.5,1.6-.8,2.7-.8s2.1.3,2.8.9,1,1.4,1,2.4-.1,1-.3,1.5-.5,1-.9,1.5c-.3.4-.8.9-1.5,1.5s-1.2,1.1-1.4,1.3-.3.4-.5.6h4.4Z"/>
  </g>
  <g>
    <path class="cls-7" d="M415.4,401.6v2.1h-8c0-.8.3-1.6.8-2.3.4-.7,1.3-1.7,2.6-2.8,1-1,1.7-1.6,1.9-1.9.3-.5.5-.9.5-1.4s0-.9-.4-1.2c-.3-.3-.6-.4-1.1-.4s-.9.1-1.1.4c-.3.3-.4.8-.5,1.4l-2.3-.2c0-1.3.6-2.2,1.3-2.7s1.6-.8,2.7-.8,2.1.3,2.8.9,1,1.4,1,2.4,0,1-.3,1.5-.5,1-.9,1.5c-.3.4-.8.9-1.5,1.5s-1.2,1.1-1.4,1.3c-.2.2-.3.4-.5.6h4.4Z"/>
    <path class="cls-7" d="M420.9,391.8c1.2,0,2,.4,2.7,1.2.8,1,1.2,2.6,1.2,4.8s-.4,3.9-1.2,4.8c-.6.8-1.5,1.2-2.7,1.2s-2.1-.4-2.8-1.3-1.1-2.5-1.1-4.8.4-3.8,1.2-4.8c.6-.7,1.5-1.1,2.7-1.1ZM420.9,393.7c-.3,0-.5.1-.7.3s-.4.5-.5.9c-.2.6-.2,1.6-.2,3s0,2.4.2,2.9c0,.5.3.9.5,1,.2.2.5.3.7.3s.5-.1.7-.3c.2-.2.4-.5.5-.9.2-.6.2-1.6.2-3s0-2.4-.2-2.9-.3-.9-.5-1c-.2-.2-.4-.3-.7-.3Z"/>
    <path class="cls-7" d="M433.9,401.6v2.1h-8c0-.8.3-1.6.8-2.3.4-.7,1.3-1.7,2.6-2.8,1-1,1.7-1.6,1.9-1.9.3-.5.5-.9.5-1.4s0-.9-.4-1.2c-.3-.3-.6-.4-1.1-.4s-.9.1-1.1.4c-.3.3-.4.8-.5,1.4l-2.3-.2c0-1.3.6-2.2,1.3-2.7s1.6-.8,2.7-.8,2.1.3,2.8.9,1,1.4,1,2.4,0,1-.3,1.5-.5,1-.9,1.5c-.3.4-.8.9-1.5,1.5s-1.2,1.1-1.4,1.3c-.2.2-.3.4-.5.6h4.4Z"/>
    <path class="cls-7" d="M435.3,400.6l2.2-.3c0,.6.3,1,.6,1.3s.7.4,1.1.4.9-.2,1.2-.5.5-.8.5-1.4-.2-1-.5-1.4c-.3-.3-.7-.5-1.1-.5s-.6.1-1,.2l.3-1.9c.6,0,1.1-.1,1.4-.4s.5-.7.5-1.1,0-.7-.4-1c-.2-.2-.6-.4-.9-.4s-.7.1-1,.4-.4.7-.5,1.2l-2.1-.4c0-.7.4-1.3.7-1.7.3-.4.7-.8,1.2-1s1.1-.4,1.8-.4c1.1,0,2,.4,2.7,1.1.6.6.8,1.2.8,2s-.6,1.9-1.7,2.5c.7.1,1.2.5,1.6,1,.4.5.6,1.1.6,1.8,0,1-.4,1.9-1.1,2.7s-1.7,1.1-2.8,1.1-2-.3-2.7-.9c-.8-.6-1.2-1.4-1.4-2.4Z"/>
  </g>
  <g>
    <path class="cls-7" d="M32.2,128.2l3.9-7.3h3.1v7.3h1.1v2.2h-1.1v2.3h-2.7v-2.3h-4.3v-2.2ZM36.5,124.1h0l-2,4h2.1v-4Z"/>
    <path class="cls-7" d="M41.3,124.7v-.4c0-2.4,1.3-3.6,3.9-3.6s3.7,1.5,3.7,3.4-.4,2.5-1.9,3.9c-1.2,1.1-2.1,1.9-2.3,2.5h4.3v2.2h-7.7c0-2.8,1.7-4.5,2.7-5.4,2.1-1.8,2.1-2.3,2.1-3.2s-.2-1.6-1-1.6-1.1,1.3-1.1,2.2h-2.7Z"/>
    <path class="cls-7" d="M50.3,129.6h2.7v2.5c0,1.7-.3,3.3-2.7,3.4v-1.3c.8,0,1.1-.5,1.1-1.6h-1.1v-3Z"/>
    <path class="cls-7" d="M58.3,132.9c-3.6,0-4-2.3-4-6.1,0-3.5.4-6.1,4-6.1s4,2.3,4,6.1c0,3.5-.4,6.1-4,6.1ZM58.3,131.1c1,0,1.1-.9,1.1-4.3s-.1-4.4-1.1-4.4-1.1.9-1.1,4.4.1,4.3,1.1,4.3Z"/>
    <path class="cls-7" d="M67.7,120.6h4.2l1.5,8h0l1.4-8h4.1v12.1h-2.7v-9.5h0l-1.9,9.5h-2.2l-2-9.5h0v9.5h-2.5v-12.1Z"/>
    <path class="cls-7" d="M88.3,123.7c-.1-.2-.3-.5-.7-.8-.4-.2-.8-.4-1.3-.4s-.9.1-1.2.4c-.5.4-.7,1.1-.7,1.7h3.7l-.7,1.6h-3.1c0,.4,0,.8,0,1.3h2.7l-.7,1.6h-1.9c0,.5.2,1,.5,1.4.2.2.6.6,1.4.6s1-.2,1.4-.4c.5-.3.9-.7,1.2-1.1v2.4c-.3.2-.7.5-1.2.7-.6.2-1.3.3-1.9.3s-1.9-.1-2.7-.8c-.8-.7-1.4-1.8-1.5-3.1h-1.6l.7-1.6h.8c0-.4,0-.9,0-1.3h-1.5l.7-1.6h.9c.1-1,.5-2.3,1.6-3.1,1-.7,2.1-.8,2.9-.8s1.3,0,2.1.3c.5.2.8.4,1.2.7l-.9,2Z"/>
  </g>
  <g>
    <path class="cls-7" d="M122.2,109.2l3.9-7.3h3.1v7.3h1.1v2.2h-1.1v2.3h-2.7v-2.3h-4.3v-2.2ZM126.5,105.1h0l-2,4h2.1v-4Z"/>
    <path class="cls-7" d="M138.7,104.8c0,1.3-.6,2.3-1.7,2.5h0c1.3.2,2,1.3,2,2.9s-.7,3.8-4,3.8-4-1.6-4-3.8.6-2.6,2-2.8h0c-1-.3-1.6-1.2-1.6-2.6s1-3.1,3.7-3.1,3.7,1.2,3.7,3.1ZM133.9,110.2c0,1.1.2,1.9,1.1,1.9s1.1-.8,1.1-1.9-.2-1.9-1.1-1.9-1.1.8-1.1,1.9ZM136,105c0-.8-.2-1.5-1-1.5s-1,.7-1,1.5.3,1.5,1,1.5,1-.4,1-1.5Z"/>
    <path class="cls-7" d="M140.3,110.6h2.7v2.5c0,1.7-.3,3.3-2.7,3.4v-1.3c.8,0,1.1-.5,1.1-1.6h-1.1v-3Z"/>
    <path class="cls-7" d="M144.3,109.2l3.9-7.3h3.1v7.3h1.1v2.2h-1.1v2.3h-2.7v-2.3h-4.3v-2.2ZM148.6,105.1h0l-2,4h2.1v-4Z"/>
    <path class="cls-7" d="M157.7,101.6h4.2l1.5,8h0l1.4-8h4.1v12.1h-2.7v-9.5h0l-1.9,9.5h-2.2l-2-9.5h0v9.5h-2.5v-12.1Z"/>
    <path class="cls-7" d="M178.3,104.7c-.1-.2-.3-.5-.7-.8-.4-.2-.8-.4-1.3-.4s-.9.1-1.2.4c-.5.4-.7,1.1-.7,1.7h3.7l-.7,1.6h-3.1c0,.4,0,.8,0,1.3h2.7l-.7,1.6h-1.9c0,.5.2,1,.5,1.4.2.2.6.6,1.4.6s1-.2,1.4-.4c.5-.3.9-.7,1.2-1.1v2.4c-.3.2-.7.5-1.2.7-.6.2-1.3.3-1.9.3s-1.9-.1-2.7-.8c-.8-.7-1.4-1.8-1.5-3.1h-1.6l.7-1.6h.8c0-.4,0-.9,0-1.3h-1.5l.7-1.6h.9c.1-1,.5-2.3,1.6-3.1,1-.7,2.1-.8,2.9-.8s1.3,0,2.1.3c.5.2.8.4,1.2.7l-.9,2Z"/>
  </g>
  <g>
    <path class="cls-7" d="M217,63.2v.4c0,.8.2,1.5,1,1.5s1.1-.9,1.1-2.6-.3-2.1-1.1-2.1-1,.3-1.1,1h-2.7l.4-6.5h6.7v2.2h-4.6v2.3c-.1,0-.1,0-.1,0,.3-.6,1.2-1,2-1,2.2,0,3.2,1.3,3.2,4.2s-1.3,4.3-3.9,4.3-3.8-1.2-3.8-3.3v-.4h2.8Z"/>
    <path class="cls-7" d="M225.9,63.2v.4c0,.8.2,1.5,1,1.5s1.1-.9,1.1-2.6-.3-2.1-1.1-2.1-1,.3-1.1,1h-2.7l.4-6.5h6.7v2.2h-4.6v2.3c-.1,0-.1,0-.1,0,.3-.6,1.2-1,2-1,2.2,0,3.2,1.3,3.2,4.2s-1.3,4.3-3.9,4.3-3.8-1.2-3.8-3.3v-.4h2.8Z"/>
    <path class="cls-7" d="M232.3,63.6h2.7v2.5c0,1.7-.3,3.3-2.7,3.4v-1.3c.8,0,1.1-.5,1.1-1.6h-1.1v-3Z"/>
    <path class="cls-7" d="M236.4,57.3v-2.4h7.7v2.1c-1.9,2.8-3.1,7-3.3,9.7h-3c.2-2.8,1.8-7.1,3.5-9.4h-4.9Z"/>
    <path class="cls-7" d="M249.7,54.6h4.2l1.5,8h0l1.4-8h4.1v12.1h-2.7v-9.5h0l-1.9,9.5h-2.2l-2-9.5h0v9.5h-2.5v-12.1Z"/>
    <path class="cls-7" d="M270.3,57.7c-.1-.2-.3-.5-.7-.8-.4-.2-.8-.4-1.3-.4s-.9.1-1.2.4c-.5.4-.7,1.1-.7,1.7h3.7l-.7,1.6h-3.1c0,.4,0,.8,0,1.3h2.7l-.7,1.6h-1.9c0,.5.2,1,.5,1.4.2.2.6.6,1.4.6s1-.2,1.4-.4c.5-.3.9-.7,1.2-1.1v2.4c-.3.2-.7.5-1.2.7-.6.2-1.3.3-1.9.3s-1.9-.1-2.7-.8c-.8-.7-1.4-1.8-1.5-3.1h-1.6l.7-1.6h.8c0-.4,0-.9,0-1.3h-1.5l.7-1.6h.9c.1-1,.5-2.3,1.6-3.1,1-.7,2.1-.8,2.9-.8s1.3,0,2.1.3c.5.2.8.4,1.2.7l-.9,2Z"/>
  </g>
  <g>
    <path class="cls-7" d="M309,55.2v.4c0,.8.2,1.5,1,1.5s1.1-.9,1.1-2.6-.3-2.1-1.1-2.1-1,.3-1.1,1h-2.7l.4-6.5h6.7v2.2h-4.6v2.3c-.1,0-.1,0-.1,0,.3-.6,1.2-1,2-1,2.2,0,3.2,1.3,3.2,4.2s-1.3,4.3-3.9,4.3-3.8-1.2-3.8-3.3v-.4h2.8Z"/>
    <path class="cls-7" d="M315.2,49.3v-2.4h7.7v2.1c-1.9,2.8-3.1,7-3.3,9.7h-3c.2-2.8,1.8-7.1,3.5-9.4h-4.9Z"/>
    <path class="cls-7" d="M324.3,55.6h2.7v2.5c0,1.7-.3,3.3-2.7,3.4v-1.3c.8,0,1.1-.5,1.1-1.6h-1.1v-3Z"/>
    <path class="cls-7" d="M333.3,49.7c0-.3,0-.7-.2-.9-.1-.2-.4-.4-.7-.4-1,0-1.2.7-1.2,3.4h0c.4-.7,1.1-1.1,2.1-1.1,1.8,0,2.9,1,2.9,3.7s-.8,4.4-3.9,4.4-4-2.3-4-5.9.3-6.4,4.2-6.4,3.5.9,3.5,3.1h-2.8ZM333.4,55c0-1.5-.2-2.1-1.1-2.1s-1,.8-1,1.9.2,2.3,1.1,2.3,1.1-.8,1.1-2.1Z"/>
    <path class="cls-7" d="M341.7,46.6h4.2l1.5,8h0l1.4-8h4.1v12.1h-2.7v-9.5h0l-1.9,9.5h-2.2l-2-9.5h0v9.5h-2.5v-12.1Z"/>
    <path class="cls-7" d="M362.3,49.7c-.1-.2-.3-.5-.7-.8-.4-.2-.8-.4-1.3-.4s-.9.1-1.2.4c-.5.4-.7,1.1-.7,1.7h3.7l-.7,1.6h-3.1c0,.4,0,.8,0,1.3h2.7l-.7,1.6h-1.9c0,.5.2,1,.5,1.4.2.2.6.6,1.4.6s1-.2,1.4-.4c.5-.3.9-.7,1.2-1.1v2.4c-.3.2-.7.5-1.2.7-.6.2-1.3.3-1.9.3s-1.9-.1-2.7-.8c-.8-.7-1.4-1.8-1.5-3.1h-1.6l.7-1.6h.8c0-.4,0-.9,0-1.3h-1.5l.7-1.6h.9c.1-1,.5-2.3,1.6-3.1,1-.7,2.1-.8,2.9-.8s1.3,0,2.1.3c.5.2.8.4,1.2.7l-.9,2Z"/>
  </g>
  <g>
    <path class="cls-7" d="M402.2,17.7c0-.3,0-.7-.2-.9-.1-.2-.4-.4-.7-.4-1,0-1.2.7-1.2,3.4h0c.4-.7,1.1-1.1,2.1-1.1,1.8,0,2.9,1,2.9,3.7s-.8,4.4-3.9,4.4-4-2.3-4-5.9.3-6.4,4.2-6.4,3.5.9,3.5,3.1h-2.8ZM402.3,23c0-1.5-.2-2.1-1.1-2.1s-1,.8-1,1.9.2,2.3,1.1,2.3,1.1-.8,1.1-2.1Z"/>
    <path class="cls-7" d="M408.9,23.2c0,1.1.2,2,1.1,2s1.1-.4,1.1-1.8-.4-1.9-1.5-1.9h-.7v-1.8h.8c.9,0,1.2-.6,1.2-1.8s-.3-1.4-1-1.4-1.1.4-1.1,1.7h-2.5c0-1.2.3-2.1.9-2.7.6-.6,1.6-.9,2.9-.9,2.3,0,3.5,1,3.5,3.3s-.6,2.2-1.7,2.4h0c1.4.3,2,1.2,2,2.9,0,2.6-1.7,3.6-3.8,3.6s-4-.7-4-3.8h2.8Z"/>
    <path class="cls-7" d="M415.3,23.6h2.7v2.5c0,1.7-.3,3.3-2.7,3.4v-1.3c.8,0,1.1-.5,1.1-1.6h-1.1v-3Z"/>
    <path class="cls-7" d="M423.3,26.9c-3.6,0-4-2.3-4-6.1,0-3.5.4-6.1,4-6.1s4,2.3,4,6.1c0,3.5-.4,6.1-4,6.1ZM423.3,25.1c1,0,1.1-.9,1.1-4.3s-.1-4.4-1.1-4.4-1.1.9-1.1,4.4.1,4.3,1.1,4.3Z"/>
    <path class="cls-7" d="M432.7,14.6h4.2l1.5,8h0l1.4-8h4.1v12.1h-2.7v-9.5h0l-1.9,9.5h-2.2l-2-9.5h0v9.5h-2.5v-12.1Z"/>
    <path class="cls-7" d="M453.3,17.7c-.1-.2-.3-.5-.7-.8-.4-.2-.8-.4-1.3-.4s-.9.1-1.2.4c-.5.4-.7,1.1-.7,1.7h3.7l-.7,1.6h-3.1c0,.4,0,.8,0,1.3h2.7l-.7,1.6h-1.9c0,.5.2,1,.5,1.4.2.2.6.6,1.4.6s1-.2,1.4-.4c.5-.3.9-.7,1.2-1.1v2.4c-.3.2-.7.5-1.2.7-.6.2-1.3.3-1.9.3s-1.9-.1-2.7-.8c-.8-.7-1.4-1.8-1.5-3.1h-1.6l.7-1.6h.8c0-.4,0-.9,0-1.3h-1.5l.7-1.6h.9c.1-1,.5-2.3,1.6-3.1,1-.7,2.1-.8,2.9-.8s1.3,0,2.1.3c.5.2.8.4,1.2.7l-.9,2Z"/>
  </g>
</svg>